{
copyright = "Copyright (c) 2011-12 by vernon adams. All rights reserved.";
customParameters = (
{
name = openTypeHeadFlags;
value = (
    0,
    1,
    3
);
},
{
name = openTypeHeadLowestRecPPEM;
value = 8;
},
{
name = openTypeHheaCaretOffset;
value = 0;
},
{
name = openTypeHheaCaretSlopeRise;
value = 1;
},
{
name = openTypeHheaCaretSlopeRun;
value = 0;
},
{
name = openTypeNameDescription;
value = "Copyright (c) 2011-12 by vernon adams. All rights reserved.";
},
{
name = openTypeNameLicense;
value = "Copyright (c) 2011-12, Vernon Adams (vern@newtypography.co.uk),\012with Reserved Font Name Oxygen\012This Font Software is licensed under the SIL Open Font License, Version 1.1.\012This license is copied below, and is also available with a FAQ at:\012http://scripts.sil.org/OFL";
},
{
name = openTypeNameLicenseURL;
value = "http://scripts.sil.org/OFL";
},
{
name = openTypeNameUniqueID;
value = "vernon adams : OxygenSans Regular : 5-11-2012";
},
{
name = openTypeNameVersion;
value = "Version Release 0.2.3";
},
{
name = openTypeOS2CodePageRanges;
value = (
    0,
    1,
    2,
    3,
    4,
    7,
    32
);
},
{
name = openTypeOS2Panose;
value = (
    2,
    0,
    5,
    3,
    0,
    0,
    0,
    0,
    0,
    0
);
},
{
name = openTypeOS2Selection;
value = (
);
},
{
name = openTypeOS2StrikeoutPosition;
value = 530;
},
{
name = openTypeOS2StrikeoutSize;
value = 102;
},
{
name = openTypeOS2SubscriptXOffset;
value = 0;
},
{
name = openTypeOS2SubscriptXSize;
value = 1331;
},
{
name = openTypeOS2SubscriptYOffset;
value = 286;
},
{
name = openTypeOS2SubscriptYSize;
value = 1433;
},
{
name = openTypeOS2SuperscriptXOffset;
value = 0;
},
{
name = openTypeOS2SuperscriptXSize;
value = 1331;
},
{
name = openTypeOS2SuperscriptYOffset;
value = 983;
},
{
name = openTypeOS2SuperscriptYSize;
value = 1433;
},
{
name = openTypeOS2Type;
value = (
);
},
{
name = openTypeOS2UnicodeRanges;
value = (
    0,
    1,
    2,
    3,
    4,
    5,
    6,
    7,
    12,
    32,
    33,
    34,

glyphs = (
{
glyphname = A;
lastChange = "2012-12-28 16:51:01 -0800";
layers = (
{
anchors = (
{
name = ogonek;
position = "{1221, 10}";
},
{
name = top;
position = "{679, 1398}";
}
);
layerId = "44E8B56B-104B-45A6-8718-400D756F8F39";
name = Regular;
paths = (
{
closed = 1;
nodes = (
"578 1390 LINE",
"74 0 LINE",
"252 0 LINE",
"412 430 LINE",
"956 430 LINE",
"1115 0 LINE",
"1283 0 LINE",
"780 1390 LINE"
);
},
{
closed = 1;
nodes = (
"907 561 LINE",
"463 561 LINE",
"678 1223 LINE"
);
}
);
width = 1357;
}
);
leftKerningGroup = A_Right;
rightKerningGroup = A_Left;
unicode = 0041;
},
{
glyphname = Aringacute;
lastChange = "2012-12-20 03:58:12 -0800";
layers = (
{
layerId = "44E8B56B-104B-45A6-8718-400D756F8F39";
name = Regular;
paths = (
{
closed = 1;
nodes = (
"589 1390 LINE",
"85 0 LINE",
"263 0 LINE",
"423 430 LINE",
"967 430 LINE",
"1126 0 LINE",
"1294 0 LINE",
"791 1390 LINE"
);
},
{
closed = 1;
nodes = (
"918 561 LINE",
"474 561 LINE",
"689 1223 LINE"
);
},
{
closed = 1;
nodes = (
"739 1674 OFFCURVE",
"777 1625 OFFCURVE",
"777 1569 CURVE SMOOTH",
"777 1513 OFFCURVE",
"735 1467 OFFCURVE",
"689 1467 CURVE SMOOTH",
"633 1467 OFFCURVE",
"599 1508 OFFCURVE",
"599 1569 CURVE SMOOTH",
"599 1625 OFFCURVE",
"643 1674 OFFCURVE",
"689 1674 CURVE SMOOTH"
);
},
{
closed = 1;
nodes = (
"597 1748 OFFCURVE",
"512 1677 OFFCURVE",
"512 1569 CURVE SMOOTH",
"512 1464 OFFCURVE",
"596 1401 OFFCURVE",
"691 1401 CURVE SMOOTH",
"781 1401 OFFCURVE",
"866 1464 OFFCURVE",
"866 1569 CURVE SMOOTH",
"866 1671 OFFCURVE",
"784 1748 OFFCURVE",
"689 1748 CURVE SMOOTH"
);
},
{
closed = 1;
nodes = (
"808 2264 LINE",
"638 1911 LINE",
"742 1911 LINE",
"1038 2264 LINE"
);
}
);
width = 1379;
}
);
unicode = 01FA;
},
{
glyphname = AE;
lastChange = "2012-12-20 03:58:12 -0800";
layers = (
{
anchors = (
{
name = top;
position = "{959, 0}";
}
);
layerId = "44E8B56B-104B-45A6-8718-400D756F8F39";
name = Regular;
paths = (
{
closed = 1;
nodes = (
"917 1427 LINE",
"84 0 LINE",
"241 0 LINE",
"460 389 LINE",
"1055 389 LINE",
"1083 0 LINE",
"1795 0 LINE",
"1795 144 LINE",
"1228 144 LINE",
"1189 659 LINE",
"1745 659 LINE",
"1745 803 LINE",
"1171 803 LINE",
"1136 1282 LINE",
"1777 1282 LINE",
"1777 1427 LINE"
);
},
{
closed = 1;
nodes = (
"1035 536 LINE",
"536 536 LINE",
"979 1282 LINE"
);
}
);
width = 1918;
}
);
unicode = 00C6;
},
{
glyphname = AEacute;
lastChange = "2012-12-20 03:58:12 -0800";
layers = (
{
layerId = "44E8B56B-104B-45A6-8718-400D756F8F39";
name = Regular;
paths = (
{
closed = 1;
nodes = (
"917 1427 LINE",
"84 0 LINE",
"241 0 LINE",
"460 389 LINE",
"1055 389 LINE",
"1083 0 LINE",
"1795 0 LINE",
"1795 144 LINE",
"1228 144 LINE",
"1189 659 LINE",
"1745 659 LINE",
"1745 803 LINE",
"1171 803 LINE",
"1136 1282 LINE",
"1777 1282 LINE",
"1777 1427 LINE"
);
},
{
closed = 1;
nodes = (
"1035 536 LINE",
"536 536 LINE",
"979 1282 LINE"
);
},
{
closed = 1;
nodes = (
"1058 1943 LINE",
"888 1590 LINE",
"992 1590 LINE",
"1288 1943 LINE"
);
}
);
width = 1918;
}
);
unicode = 01FC;
},
{
glyphname = uni01E2;
lastChange = "2012-12-20 03:58:12 -0800";
layers = (
{
layerId = "44E8B56B-104B-45A6-8718-400D756F8F39";
name = Regular;
paths = (
{
closed = 1;
nodes = (
"917 1427 LINE",
"84 0 LINE",
"241 0 LINE",
"460 389 LINE",
"1055 389 LINE",
"1083 0 LINE",
"1795 0 LINE",
"1795 144 LINE",
"1228 144 LINE",
"1189 659 LINE",
"1745 659 LINE",
"1745 803 LINE",
"1171 803 LINE",
"1136 1282 LINE",
"1777 1282 LINE",
"1777 1427 LINE"
);
},
{
closed = 1;
nodes = (
"1035 536 LINE",
"536 536 LINE",
"979 1282 LINE"
);
},
{
closed = 1;
nodes = (
"636 1717 LINE",
"636 1590 LINE",
"1244 1590 LINE",
"1244 1717 LINE"
);
}
);
width = 1918;
}
);
unicode = 01E2;
},
{
glyphname = B;
lastChange = "2012-12-28 16:51:01 -0800";
layers = (
{
layerId = "44E8B56B-104B-45A6-8718-400D756F8F39";
name = Regular;
paths = (
{
closed = 1;
nodes = (
"186 1390 LINE",
"186 0 LINE",
"690 0 LINE SMOOTH",
"1017 0 OFFCURVE",
"1175 175 OFFCURVE",
"1175 413 CURVE SMOOTH",
"1175 574 OFFCURVE",
"1071 708 OFFCURVE",
"880 743 CURVE",
"1093 809 OFFCURVE",
"1110 989 OFFCURVE",
"1110 1055 CURVE SMOOTH",
"1110 1289 OFFCURVE",
"938 1390 OFFCURVE",
"590 1390 CURVE SMOOTH"
);
},
{
closed = 1;
nodes = (
"861 671 OFFCURVE",
"1007 611 OFFCURVE",
"1007 419 CURVE SMOOTH",
"1007 239 OFFCURVE",
"889 129 OFFCURVE",
"658 129 CURVE SMOOTH",
"347 129 LINE",
"347 671 LINE",
"606 671 LINE SMOOTH"
);
},
{
closed = 1;
nodes = (
"814 1257 OFFCURVE",
"942 1208 OFFCURVE",
"942 1031 CURVE SMOOTH",
"942 854 OFFCURVE",
"828 797 OFFCURVE",
"651 797 CURVE SMOOTH",
"347 797 LINE",
"347 1257 LINE",
"582 1257 LINE SMOOTH"
);
}
);
width = 1316;
}
);
rightKerningGroup = B_Left;
unicode = 0042;
},
{
glyphname = C;
lastChange = "2012-12-28 16:51:01 -0800";
layers = (
{
anchors = (
{
name = bottom;
position = "{798, 0}";
},
{
name = top;
position = "{798, 1390}";
}
);
layerId = "44E8B56B-104B-45A6-8718-400D756F8F39";
name = Regular;
paths = (
{
closed = 1;
nodes = (
"383 1413 OFFCURVE",
"140 1130 OFFCURVE",
"140 725 CURVE SMOOTH",
"140 310 OFFCURVE",
"374 -18 OFFCURVE",
"816 -18 CURVE SMOOTH",
"987 -18 OFFCURVE",
"1094 28 OFFCURVE",
"1159 68 CURVE",
"1133 196 LINE",
"1034 149 OFFCURVE",
"930 117 OFFCURVE",
"813 120 CURVE SMOOTH",
"448 129 OFFCURVE",
"312 401 OFFCURVE",
"312 719 CURVE SMOOTH",
"312 1038 OFFCURVE",
"480 1275 OFFCURVE",
"797 1275 CURVE SMOOTH",
"919 1275 OFFCURVE",
"1036 1247 OFFCURVE",
"1127 1193 CURVE",
"1169 1317 LINE",
"1068 1381 OFFCURVE",
"957 1413 OFFCURVE",
"795 1413 CURVE SMOOTH"
);
}
);
width = 1266;
}
);
leftKerningGroup = O_Right;
unicode = 0043;
},
{
glyphname = Ccircumflex;
lastChange = "2012-12-20 03:58:12 -0800";
layers = (
{
layerId = "44E8B56B-104B-45A6-8718-400D756F8F39";
name = Regular;
paths = (
{
closed = 1;
nodes = (
"423 1413 OFFCURVE",
"177 1130 OFFCURVE",
"177 725 CURVE SMOOTH",
"177 310 OFFCURVE",
"401 -2 OFFCURVE",
"817 -18 CURVE SMOOTH",
"988 -25 OFFCURVE",
"1140 28 OFFCURVE",
"1205 68 CURVE",
"1179 196 LINE",
"1080 149 OFFCURVE",
"970 117 OFFCURVE",
"853 120 CURVE SMOOTH",
"488 129 OFFCURVE",
"349 401 OFFCURVE",
"349 719 CURVE SMOOTH",
"349 1038 OFFCURVE",
"520 1275 OFFCURVE",
"837 1275 CURVE SMOOTH",
"959 1275 OFFCURVE",
"1080 1243 OFFCURVE",
"1171 1189 CURVE",
"1225 1313 LINE",
"1124 1377 OFFCURVE",
"997 1413 OFFCURVE",
"835 1413 CURVE SMOOTH"
);
},
{
closed = 1;
nodes = (
"604 1929 LINE",
"434 1576 LINE",
"553 1576 LINE",
"700 1824 LINE",
"847 1576 LINE",
"968 1576 LINE",
"798 1929 LINE"
);
}
);
width = 1346;
}
);
leftKerningGroup = O_Right;
unicode = 0108;
},
{
glyphname = Cdotaccent;
lastChange = "2012-12-20 03:58:12 -0800";
layers = (
{
layerId = "44E8B56B-104B-45A6-8718-400D756F8F39";
name = Regular;
paths = (
{
closed = 1;
nodes = (
"423 1413 OFFCURVE",
"177 1130 OFFCURVE",
"177 725 CURVE SMOOTH",
"177 310 OFFCURVE",
"401 -2 OFFCURVE",
"817 -18 CURVE SMOOTH",
"988 -25 OFFCURVE",
"1140 28 OFFCURVE",
"1205 68 CURVE",
"1179 196 LINE",
"1080 149 OFFCURVE",
"970 117 OFFCURVE",
"853 120 CURVE SMOOTH",
"488 129 OFFCURVE",
"349 401 OFFCURVE",
"349 719 CURVE SMOOTH",
"349 1038 OFFCURVE",
"520 1275 OFFCURVE",
"837 1275 CURVE SMOOTH",
"959 1275 OFFCURVE",
"1080 1243 OFFCURVE",
"1171 1189 CURVE",
"1225 1313 LINE",
"1124 1377 OFFCURVE",
"997 1413 OFFCURVE",
"835 1413 CURVE SMOOTH"
);
},
{
closed = 1;
nodes = (
"625 1756 LINE",
"625 1576 LINE",
"778 1576 LINE",
"778 1756 LINE"
);
}
);
width = 1346;
}
);
leftKerningGroup = O_Right;
unicode = 010A;
},
{
glyphname = D;
lastChange = "2012-12-28 16:51:01 -0800";
layers = (
{
anchors = (
{
name = center;
position = "{333, 705}";
},
{
name = top;
position = "{666, 1390}";
}
);
layerId = "44E8B56B-104B-45A6-8718-400D756F8F39";
name = Regular;
paths = (
{
closed = 1;
nodes = (
"186 1390 LINE",
"186 0 LINE",
"601 0 LINE SMOOTH",
"1049 0 OFFCURVE",
"1317 247 OFFCURVE",
"1317 698 CURVE SMOOTH",
"1317 1172 OFFCURVE",
"1023 1390 OFFCURVE",
"573 1390 CURVE SMOOTH"
);
},
{
closed = 1;
nodes = (
"940 1252 OFFCURVE",
"1139 1082 OFFCURVE",
"1139 694 CURVE SMOOTH",
"1139 340 OFFCURVE",
"960 137 OFFCURVE",
"602 137 CURVE SMOOTH",
"364 137 LINE",
"364 1252 LINE",
"575 1252 LINE SMOOTH"
);
}
);
width = 1457;
}
);
leftKerningGroup = H_Right;
rightKerningGroup = O_Left;
unicode = 0044;
},
{
glyphname = E;
lastChange = "2012-12-28 16:51:01 -0800";
layers = (
{
anchors = (
{
name = bottom;
position = "{675, 0}";
},
{
name = ogonek;
position = "{1052, 10}";
},
{
name = top;
position = "{629, 1390}";
}
);
layerId = "44E8B56B-104B-45A6-8718-400D756F8F39";
name = Regular;
paths = (
{
closed = 1;
nodes = (
"186 1390 LINE",
"186 0 LINE",
"1065 0 LINE",
"1073 139 LINE",
"364 139 LINE",
"364 653 LINE",
"983 653 LINE",
"983 790 LINE",
"364 790 LINE",
"364 1251 LINE",
"1031 1251 LINE",
"1038 1390 LINE"
);
}
);
width = 1169;
}
);
leftKerningGroup = H_Right;
unicode = 0045;
},
{
glyphname = Ebreve;
lastChange = "2012-12-20 03:58:12 -0800";
layers = (
{
layerId = "44E8B56B-104B-45A6-8718-400D756F8F39";
name = Regular;
paths = (
{
closed = 1;
nodes = (
"214 1390 LINE",
"214 0 LINE",
"1050 0 LINE",
"1058 139 LINE",
"392 139 LINE",
"392 653 LINE",
"982 653 LINE",
"982 790 LINE",
"392 790 LINE",
"392 1251 LINE",
"1030 1251 LINE",
"1037 1390 LINE"
);
},
{
closed = 1;
nodes = (
"759 1798 LINE",
"759 1711 OFFCURVE",
"701 1670 OFFCURVE",
"635 1670 CURVE SMOOTH",
"569 1670 OFFCURVE",
"514 1711 OFFCURVE",
"514 1798 CURVE",
"408 1798 LINE",
"408 1641 OFFCURVE",
"523 1576 OFFCURVE",
"635 1576 CURVE SMOOTH",
"748 1576 OFFCURVE",
"865 1641 OFFCURVE",
"865 1798 CURVE"
);
}
);
width = 1192;
}
);
unicode = 0114;
},
{
glyphname = F;
lastChange = "2012-12-28 16:51:01 -0800";
layers = (
{
layerId = "44E8B56B-104B-45A6-8718-400D756F8F39";
name = Regular;
paths = (
{
closed = 1;
nodes = (
"186 1390 LINE",
"186 0 LINE",
"365 0 LINE",
"365 655 LINE",
"961 655 LINE",
"961 788 LINE",
"365 788 LINE",
"365 1251 LINE",
"1006 1251 LINE",
"1017 1390 LINE"
);
}
);
width = 1099;
}
);
leftKerningGroup = H_Right;
unicode = 0046;
},
{
glyphname = G;
lastChange = "2012-12-28 16:51:01 -0800";
layers = (
{
anchors = (
{
name = bottom;
position = "{685, 0}";
},
{
name = top;
position = "{685, 0}";
}
);
layerId = "44E8B56B-104B-45A6-8718-400D756F8F39";
name = Regular;
paths = (
{
closed = 1;
nodes = (
"336 1413 OFFCURVE",
"140 1098 OFFCURVE",
"140 692 CURVE SMOOTH",
"140 291 OFFCURVE",
"320 -20 OFFCURVE",
"780 -20 CURVE SMOOTH",
"968 -20 OFFCURVE",
"1103 19 OFFCURVE",
"1212 59 CURVE",
"1212 722 LINE",
"758 722 LINE",
"750 585 LINE",
"1034 585 LINE",
"1034 147 LINE",
"976 131 OFFCURVE",
"895 118 OFFCURVE",
"790 118 CURVE SMOOTH",
"440 118 OFFCURVE",
"318 361 OFFCURVE",
"318 692 CURVE SMOOTH",
"318 1011 OFFCURVE",
"446 1275 OFFCURVE",
"797 1275 CURVE SMOOTH",
"1018 1275 OFFCURVE",
"1119 1208 OFFCURVE",
"1163 1185 CURVE",
"1213 1307 LINE",
"1100 1380 OFFCURVE",
"958 1413 OFFCURVE",
"797 1413 CURVE SMOOTH"
);
}
);
width = 1373;
}
);
leftKerningGroup = O_Right;
unicode = 0047;
},
{
glyphname = Gbreve;
lastChange = "2012-12-20 03:58:12 -0800";
layers = (
{
layerId = "44E8B56B-104B-45A6-8718-400D756F8F39";
name = Regular;
paths = (
{
closed = 1;
nodes = (
"393 1413 OFFCURVE",
"177 1098 OFFCURVE",
"177 692 CURVE SMOOTH",
"177 291 OFFCURVE",
"382 -18 OFFCURVE",
"842 -18 CURVE SMOOTH",
"1030 -18 OFFCURVE",
"1204 4 OFFCURVE",
"1347 59 CURVE",
"1347 716 LINE",
"848 716 LINE",
"840 579 LINE",
"1169 579 LINE",
"1169 147 LINE",
"1111 131 OFFCURVE",
"957 120 OFFCURVE",
"852 120 CURVE SMOOTH",
"502 120 OFFCURVE",
"355 361 OFFCURVE",
"355 692 CURVE SMOOTH",
"355 1011 OFFCURVE",
"499 1275 OFFCURVE",
"874 1275 CURVE SMOOTH",
"1095 1275 OFFCURVE",
"1222 1208 OFFCURVE",
"1266 1185 CURVE",
"1316 1307 LINE",
"1203 1380 OFFCURVE",
"1035 1413 OFFCURVE",
"874 1413 CURVE SMOOTH"
);
},
{
closed = 1;
nodes = (
"885 1798 LINE",
"885 1711 OFFCURVE",
"827 1670 OFFCURVE",
"761 1670 CURVE SMOOTH",
"695 1670 OFFCURVE",
"640 1711 OFFCURVE",
"640 1798 CURVE",
"534 1798 LINE",
"534 1641 OFFCURVE",
"649 1576 OFFCURVE",
"761 1576 CURVE SMOOTH",
"874 1576 OFFCURVE",
"991 1641 OFFCURVE",
"991 1798 CURVE"
);
}
);
width = 1516;
}
);
leftKerningGroup = O_Right;
unicode = 011E;
},
{
glyphname = Gcaron;
lastChange = "2012-12-20 03:58:12 -0800";
layers = (
{
layerId = "44E8B56B-104B-45A6-8718-400D756F8F39";
name = Regular;
paths = (
{
closed = 1;
nodes = (
"393 1413 OFFCURVE",
"177 1098 OFFCURVE",
"177 692 CURVE SMOOTH",
"177 291 OFFCURVE",
"382 -18 OFFCURVE",
"842 -18 CURVE SMOOTH",
"1030 -18 OFFCURVE",
"1204 4 OFFCURVE",
"1347 59 CURVE",
"1347 716 LINE",
"848 716 LINE",
"840 579 LINE",
"1169 579 LINE",
"1169 147 LINE",
"1111 131 OFFCURVE",
"957 120 OFFCURVE",
"852 120 CURVE SMOOTH",
"502 120 OFFCURVE",
"355 361 OFFCURVE",
"355 692 CURVE SMOOTH",
"355 1011 OFFCURVE",
"499 1275 OFFCURVE",
"874 1275 CURVE SMOOTH",
"1095 1275 OFFCURVE",
"1222 1208 OFFCURVE",
"1266 1185 CURVE",
"1316 1307 LINE",
"1203 1380 OFFCURVE",
"1035 1413 OFFCURVE",
"874 1413 CURVE SMOOTH"
);
},
{
closed = 1;
nodes = (
"908 1929 LINE",
"761 1646 LINE",
"614 1929 LINE",
"495 1929 LINE",
"665 1576 LINE",
"859 1576 LINE",
"1029 1929 LINE"
);
}
);
width = 1516;
}
);
unicode = 01E6;
},
{
glyphname = Gcircumflex;
lastChange = "2012-12-20 03:58:12 -0800";
layers = (
{
layerId = "44E8B56B-104B-45A6-8718-400D756F8F39";
name = Regular;
paths = (
{
closed = 1;
nodes = (
"393 1413 OFFCURVE",
"177 1098 OFFCURVE",
"177 692 CURVE SMOOTH",
"177 291 OFFCURVE",
"382 -18 OFFCURVE",
"842 -18 CURVE SMOOTH",
"1030 -18 OFFCURVE",
"1204 4 OFFCURVE",
"1347 59 CURVE",
"1347 716 LINE",
"848 716 LINE",
"840 579 LINE",
"1169 579 LINE",
"1169 147 LINE",
"1111 131 OFFCURVE",
"957 120 OFFCURVE",
"852 120 CURVE SMOOTH",
"502 120 OFFCURVE",
"355 361 OFFCURVE",
"355 692 CURVE SMOOTH",
"355 1011 OFFCURVE",
"499 1275 OFFCURVE",
"874 1275 CURVE SMOOTH",
"1095 1275 OFFCURVE",
"1222 1208 OFFCURVE",
"1266 1185 CURVE",
"1316 1307 LINE",
"1203 1380 OFFCURVE",
"1035 1413 OFFCURVE",
"874 1413 CURVE SMOOTH"
);
},
{
closed = 1;
nodes = (
"665 1929 LINE",
"495 1576 LINE",
"614 1576 LINE",
"761 1824 LINE",
"908 1576 LINE",
"1029 1576 LINE",
"859 1929 LINE"
);
}
);
width = 1516;
}
);
leftKerningGroup = O_Right;
unicode = 011C;
},
{
glyphname = Gdotaccent;
lastChange = "2012-12-20 03:58:12 -0800";
layers = (
{
layerId = "44E8B56B-104B-45A6-8718-400D756F8F39";
name = Regular;
paths = (
{
closed = 1;
nodes = (
"393 1413 OFFCURVE",
"177 1098 OFFCURVE",
"177 692 CURVE SMOOTH",
"177 291 OFFCURVE",
"382 -18 OFFCURVE",
"842 -18 CURVE SMOOTH",
"1030 -18 OFFCURVE",
"1204 4 OFFCURVE",
"1347 59 CURVE",
"1347 716 LINE",
"848 716 LINE",
"840 579 LINE",
"1169 579 LINE",
"1169 147 LINE",
"1111 131 OFFCURVE",
"957 120 OFFCURVE",
"852 120 CURVE SMOOTH",
"502 120 OFFCURVE",
"355 361 OFFCURVE",
"355 692 CURVE SMOOTH",
"355 1011 OFFCURVE",
"499 1275 OFFCURVE",
"874 1275 CURVE SMOOTH",
"1095 1275 OFFCURVE",
"1222 1208 OFFCURVE",
"1266 1185 CURVE",
"1316 1307 LINE",
"1203 1380 OFFCURVE",
"1035 1413 OFFCURVE",
"874 1413 CURVE SMOOTH"
);
},
{
closed = 1;
nodes = (
"686 1756 LINE",
"686 1576 LINE",
"839 1576 LINE",
"839 1756 LINE"
);
}
);
width = 1516;
}
);
leftKerningGroup = O_Right;
unicode = 0120;
},
{
glyphname = H;
lastChange = "2012-12-28 16:51:01 -0800";
layers = (
{
anchors = (
{
name = center;
position = "{722, 0}";
},
{
name = top;
position = "{722, 0}";
}
);
layerId = "44E8B56B-104B-45A6-8718-400D756F8F39";
name = Regular;
paths = (
{
closed = 1;
nodes = (
"1079 1390 LINE",
"1079 766 LINE",
"364 766 LINE",
"364 1390 LINE",
"186 1390 LINE",
"186 0 LINE",
"364 0 LINE",
"364 634 LINE",
"1079 634 LINE",
"1079 0 LINE",
"1257 0 LINE",
"1257 1390 LINE"
);
}
);
width = 1443;
}
);
leftKerningGroup = H_Right;
rightKerningGroup = H_Left;
unicode = 0048;
},
{
glyphname = Hbar;
lastChange = "2012-12-20 03:58:12 -0800";
layers = (
{
layerId = "44E8B56B-104B-45A6-8718-400D756F8F39";
name = Regular;
paths = (
{
closed = 1;
nodes = (
"1100 1361 LINE",
"1100 1138 LINE",
"357 1138 LINE",
"357 1361 LINE",
"196 1361 LINE",
"196 1138 LINE",
"114 1138 LINE",
"114 1043 LINE",
"196 1043 LINE",
"196 0 LINE",
"357 0 LINE",
"357 633 LINE",
"1100 633 LINE",
"1100 0 LINE",
"1261 0 LINE",
"1261 1043 LINE",
"1343 1043 LINE",
"1343 1138 LINE",
"1261 1138 LINE",
"1261 1361 LINE"
);
},
{
closed = 1;
nodes = (
"1100 772 LINE",
"357 772 LINE",
"357 1043 LINE",
"1100 1043 LINE"
);
}
);
width = 1458;
}
);
unicode = 0126;
},
{
glyphname = Hcircumflex;
lastChange = "2012-12-20 03:58:12 -0800";
layers = (
{
layerId = "44E8B56B-104B-45A6-8718-400D756F8F39";
name = Regular;
paths = (
{
closed = 1;
nodes = (
"1115 1390 LINE",
"1115 766 LINE",
"392 766 LINE",
"392 1390 LINE",
"214 1390 LINE",
"214 0 LINE",
"392 0 LINE",
"392 634 LINE",
"1115 634 LINE",
"1115 0 LINE",
"1293 0 LINE",
"1293 1390 LINE"
);
},
{
closed = 1;
nodes = (
"657 1929 LINE",
"487 1576 LINE",
"606 1576 LINE",
"753 1824 LINE",
"900 1576 LINE",
"1021 1576 LINE",
"851 1929 LINE"
);
}
);
width = 1507;
}
);
leftKerningGroup = H_Right;
rightKerningGroup = H_Left;
unicode = 0124;
},
{
glyphname = I;
lastChange = "2012-12-28 16:51:01 -0800";
layers = (
{
anchors = (
{
name = ogonek;
position = "{496, 10}";
},
{
name = top;
position = "{276, 1390}";
}
);
layerId = "44E8B56B-104B-45A6-8718-400D756F8F39";
name = Regular;
paths = (
{
closed = 1;
nodes = (
"186 1390 LINE",
"186 0 LINE",
"365 0 LINE",
"365 1390 LINE"
);
}
);
width = 551;
}
);
unicode = 0049;
},
{
glyphname = Ibreve;
lastChange = "2012-12-20 03:58:12 -0800";
layers = (
{
layerId = "44E8B56B-104B-45A6-8718-400D756F8F39";
name = Regular;
paths = (
{
closed = 1;
nodes = (
"214 1390 LINE",
"214 0 LINE",
"393 0 LINE",
"393 1390 LINE"
);
},
{
closed = 1;
nodes = (
"426 1798 LINE",
"426 1711 OFFCURVE",
"368 1670 OFFCURVE",
"302 1670 CURVE SMOOTH",
"236 1670 OFFCURVE",
"181 1711 OFFCURVE",
"181 1798 CURVE",
"75 1798 LINE",
"75 1641 OFFCURVE",
"190 1576 OFFCURVE",
"302 1576 CURVE SMOOTH",
"415 1576 OFFCURVE",
"532 1641 OFFCURVE",
"532 1798 CURVE"
);
}
);
width = 607;
}
);
unicode = 012C;
},
{
glyphname = Idotaccent;
lastChange = "2012-12-20 03:58:12 -0800";
layers = (
{
layerId = "44E8B56B-104B-45A6-8718-400D756F8F39";
name = Regular;
paths = (
{
closed = 1;
nodes = (
"214 1390 LINE",
"214 0 LINE",
"393 0 LINE",
"393 1390 LINE"
);
},
{
closed = 1;
nodes = (
"227 1756 LINE",
"227 1576 LINE",
"380 1576 LINE",
"380 1756 LINE"
);
}
);
width = 607;
}
);
unicode = 0130;
},
{
glyphname = Itilde;
lastChange = "2012-12-20 03:58:12 -0800";
layers = (
{
layerId = "44E8B56B-104B-45A6-8718-400D756F8F39";
name = Regular;
paths = (
{
closed = 1;
nodes = (
"214 1390 LINE",
"214 0 LINE",
"393 0 LINE",
"393 1390 LINE"
);
},
{
closed = 1;
nodes = (
"487 1775 LINE",
"484 1737 OFFCURVE",
"481 1693 OFFCURVE",
"445 1690 CURVE",
"445 1690 OFFCURVE",
"289 1775 OFFCURVE",
"176 1775 CURVE SMOOTH",
"79 1775 OFFCURVE",
"20 1712 OFFCURVE",
"20 1576 CURVE",
"117 1576 LINE",
"120 1626 OFFCURVE",
"137 1663 OFFCURVE",
"167 1664 CURVE",
"167 1664 OFFCURVE",
"369 1576 OFFCURVE",
"451 1576 CURVE SMOOTH",
"547 1576 OFFCURVE",
"587 1650 OFFCURVE",
"587 1775 CURVE"
);
}
);
width = 607;
}
);
unicode = 0128;
},
{
glyphname = J;
lastChange = "2012-12-28 16:51:01 -0800";
layers = (
{
anchors = (
{
name = top;
position = "{500, 0}";
}
);
layerId = "44E8B56B-104B-45A6-8718-400D756F8F39";
name = Regular;
paths = (
{
closed = 1;
nodes = (
"664 1390 LINE",
"664 490 LINE SMOOTH",
"664 256 OFFCURVE",
"600 119 OFFCURVE",
"401 119 CURVE SMOOTH",
"242 119 OFFCURVE",
"167 168 OFFCURVE",
"124 185 CURVE",
"82 61 LINE",
"138 30 OFFCURVE",
"246 -20 OFFCURVE",
"418 -20 CURVE SMOOTH",
"721 -20 OFFCURVE",
"842 202 OFFCURVE",
"842 487 CURVE SMOOTH",
"842 1390 LINE"
);
}
);
width = 1012;
}
);
unicode = 004A;
},
{
glyphname = Jcircumflex;
lastChange = "2012-12-20 03:58:12 -0800";
layers = (
{
layerId = "44E8B56B-104B-45A6-8718-400D756F8F39";
name = Regular;
paths = (
{
closed = 1;
nodes = (
"349 1408 LINE",
"349 186 LINE SMOOTH",
"349 51 OFFCURVE",
"345 -45 OFFCURVE",
"107 -45 CURVE",
"121 -192 LINE",
"480 -192 OFFCURVE",
"527 -61 OFFCURVE",
"527 219 CURVE SMOOTH",
"527 1408 LINE"
);
},
{
closed = 1;
nodes = (
"220 1929 LINE",
"50 1576 LINE",
"169 1576 LINE",
"316 1824 LINE",
"463 1576 LINE",
"584 1576 LINE",
"414 1929 LINE"
);
}
);
width = 741;
}
);
unicode = 0134;
},
{
glyphname = K;
lastChange = "2012-12-28 16:51:01 -0800";
layers = (
{
anchors = (
{
name = bottom;
position = "{644, 0}";
},
{
name = top;
position = "{644, 0}";
}
);
layerId = "44E8B56B-104B-45A6-8718-400D756F8F39";
name = Regular;
paths = (
{
closed = 1;
nodes = (
"1047 1390 LINE",
"364 661 LINE",
"364 1390 LINE",
"186 1390 LINE",
"186 0 LINE",
"364 0 LINE",
"364 493 LINE",
"565 684 LINE",
"1106 0 LINE",
"1302 0 LINE",
"687 785 LINE",
"1251 1390 LINE"
);
}
);
width = 1288;
}
);
leftKerningGroup = H_Right;
unicode = 004B;
},
{
glyphname = L;
lastChange = "2012-12-28 16:51:01 -0800";
layers = (
{
anchors = (
{
name = bottom;
position = "{583, 0}";
},
{
name = top;
position = "{410, 1390}";
}
);
layerId = "44E8B56B-104B-45A6-8718-400D756F8F39";
name = Regular;
paths = (
{
closed = 1;
nodes = (
"186 1390 LINE",
"186 0 LINE",
"995 0 LINE",
"1002 140 LINE",
"365 140 LINE",
"365 1390 LINE"
);
}
);
width = 1054;
}
);
leftKerningGroup = H_Right;
unicode = 004C;
},
{
glyphname = Lcaron;
lastChange = "2012-12-20 03:58:12 -0800";
layers = (
{
layerId = "44E8B56B-104B-45A6-8718-400D756F8F39";
name = Regular;
paths = (
{
closed = 1;
nodes = (
"214 1390 LINE",
"214 0 LINE",
"974 0 LINE",
"981 140 LINE",
"393 140 LINE",
"393 1390 LINE"
);
},
{
closed = 1;
nodes = (
"1311 1413 LINE",
"1226 984 LINE",
"1332 984 LINE",
"1454 1413 LINE"
);
}
);
width = 1055;
}
);
leftKerningGroup = H_Right;
unicode = 013D;
},
{
glyphname = Lcommaaccent;
lastChange = "2012-12-20 03:58:12 -0800";
layers = (
{
layerId = "44E8B56B-104B-45A6-8718-400D756F8F39";
name = Regular;
paths = (
{
closed = 1;
nodes = (
"214 1390 LINE",
"214 0 LINE",
"974 0 LINE",
"981 140 LINE",
"393 140 LINE",
"393 1390 LINE"
);
},
{
closed = 1;
nodes = (
"565 -163 LINE",
"479 -617 LINE",
"586 -617 LINE",
"716 -163 LINE"
);
}
);
width = 1055;
}
);
leftKerningGroup = H_Right;
unicode = 013B;
},
{
glyphname = Lslash;
lastChange = "2012-12-20 03:58:12 -0800";
layers = (
{
layerId = "44E8B56B-104B-45A6-8718-400D756F8F39";
name = Regular;
paths = (
{
closed = 1;
nodes = (
"246 1361 LINE",
"246 688 LINE",
"111 614 LINE",
"111 480 LINE",
"246 551 LINE",
"246 0 LINE",
"994 0 LINE",
"1005 141 LINE",
"407 141 LINE",
"407 638 LINE",
"725 809 LINE",
"725 951 LINE",
"407 776 LINE",
"407 1361 LINE"
);
}
);
width = 1096;
}
);
unicode = 0141;
},
{
glyphname = M;
lastChange = "2012-12-28 16:51:01 -0800";
layers = (
{
layerId = "44E8B56B-104B-45A6-8718-400D756F8F39";
name = Regular;
paths = (
{
closed = 1;
nodes = (
"1383 1390 LINE",
"898 309 LINE",
"409 1390 LINE",
"186 1390 LINE",
"186 0 LINE",
"349 0 LINE",
"349 839 LINE",
"338 1167 LINE",
"815 112 LINE",
"981 112 LINE",
"1445 1163 LINE",
"1437 843 LINE",
"1437 0 LINE",
"1600 0 LINE",
"1600 1390 LINE"
);
}
);
width = 1786;
}
);
leftKerningGroup = H_Right;
rightKerningGroup = H_Left;
unicode = 004D;
},
{
glyphname = N;
lastChange = "2012-12-28 16:51:01 -0800";
layers = (
{
anchors = (
{
name = bottom;
position = "{745, 0}";
},
{
name = top;
position = "{768, 1390}";
}
);
layerId = "44E8B56B-104B-45A6-8718-400D756F8F39";
name = Regular;
paths = (
{
closed = 1;
nodes = (
"1148 1390 LINE",
"1148 555 LINE",
"1153 215 LINE",
"365 1390 LINE",
"186 1390 LINE",
"186 0 LINE",
"342 0 LINE",
"342 830 LINE",
"337 1171 LINE",
"1121 0 LINE",
"1304 0 LINE",
"1304 1390 LINE"
);
}
);
width = 1490;
}
);
leftKerningGroup = H_Right;
rightKerningGroup = H_Left;
unicode = 004E;
},
{
glyphname = Eng;
lastChange = "2012-12-20 03:58:12 -0800";
layers = (
{
layerId = "44E8B56B-104B-45A6-8718-400D756F8F39";
name = Regular;
paths = (
{
closed = 1;
nodes = (
"627 1383 OFFCURVE",
"463 1346 OFFCURVE",
"298 1168 CURVE",
"282 1361 LINE",
"136 1361 LINE",
"138 0 LINE",
"298 0 LINE",
"298 991 LINE",
"384 1121 OFFCURVE",
"539 1236 OFFCURVE",
"737 1236 CURVE SMOOTH",
"934 1236 OFFCURVE",
"1001 1155 OFFCURVE",
"1001 913 CURVE SMOOTH",
"1001 156 LINE SMOOTH",
"1001 -92 OFFCURVE",
"980 -159 OFFCURVE",
"728 -159 CURVE SMOOTH",
"709 -159 OFFCURVE",
"690 -158 OFFCURVE",
"566 -151 CURVE",
"587 -286 LINE",
"698 -297 OFFCURVE",
"744 -298 OFFCURVE",
"769 -298 CURVE SMOOTH",
"1098 -298 OFFCURVE",
"1160 -130 OFFCURVE",
"1160 150 CURVE SMOOTH",
"1160 918 LINE SMOOTH",
"1160 1220 OFFCURVE",
"1032 1383 OFFCURVE",
"785 1383 CURVE SMOOTH"
);
}
);
width = 1292;
}
);
unicode = 014A;
},
{
glyphname = O;
lastChange = "2012-12-28 16:51:01 -0800";
layers = (
{
anchors = (
{
name = top;
position = "{794, 1390}";
}
);
layerId = "44E8B56B-104B-45A6-8718-400D756F8F39";
name = Regular;
paths = (
{
closed = 1;
nodes = (
"379 1413 OFFCURVE",
"140 1125 OFFCURVE",
"140 698 CURVE SMOOTH",
"140 281 OFFCURVE",
"371 -20 OFFCURVE",
"794 -20 CURVE SMOOTH",
"1212 -20 OFFCURVE",
"1447 287 OFFCURVE",
"1447 697 CURVE SMOOTH",
"1447 1122 OFFCURVE",
"1204 1413 OFFCURVE",
"795 1413 CURVE SMOOTH"
);
},
{
closed = 1;
nodes = (
"1112 1275 OFFCURVE",
"1268 1027 OFFCURVE",
"1268 697 CURVE SMOOTH",
"1268 379 OFFCURVE",
"1118 118 OFFCURVE",
"794 118 CURVE SMOOTH",
"470 118 OFFCURVE",
"319 379 OFFCURVE",
"319 697 CURVE SMOOTH",
"319 1028 OFFCURVE",
"478 1275 OFFCURVE",
"795 1275 CURVE SMOOTH"
);
}
);
width = 1587;
}
);
leftKerningGroup = O_Right;
rightKerningGroup = O_Left;
unicode = 004F;
},
{
glyphname = Obreve;
lastChange = "2012-12-20 03:58:12 -0800";
layers = (
{
layerId = "44E8B56B-104B-45A6-8718-400D756F8F39";
name = Regular;
paths = (
{
closed = 1;
nodes = (
"416 1413 OFFCURVE",
"177 1125 OFFCURVE",
"177 698 CURVE SMOOTH",
"177 281 OFFCURVE",
"408 -18 OFFCURVE",
"831 -18 CURVE SMOOTH",
"1249 -18 OFFCURVE",
"1484 287 OFFCURVE",
"1484 697 CURVE SMOOTH",
"1484 1122 OFFCURVE",
"1241 1413 OFFCURVE",
"832 1413 CURVE SMOOTH"
);
},
{
closed = 1;
nodes = (
"1149 1275 OFFCURVE",
"1305 1027 OFFCURVE",
"1305 697 CURVE SMOOTH",
"1305 379 OFFCURVE",
"1155 120 OFFCURVE",
"831 120 CURVE SMOOTH",
"507 120 OFFCURVE",
"356 379 OFFCURVE",
"356 697 CURVE SMOOTH",
"356 1028 OFFCURVE",
"515 1275 OFFCURVE",
"832 1275 CURVE SMOOTH"
);
},
{
closed = 1;
nodes = (
"953 1798 LINE",
"953 1711 OFFCURVE",
"895 1670 OFFCURVE",
"829 1670 CURVE SMOOTH",
"763 1670 OFFCURVE",
"708 1711 OFFCURVE",
"708 1798 CURVE",
"602 1798 LINE",
"602 1641 OFFCURVE",
"717 1576 OFFCURVE",
"829 1576 CURVE SMOOTH",
"942 1576 OFFCURVE",
"1059 1641 OFFCURVE",
"1059 1798 CURVE"
);
}
);
width = 1661;
}
);
leftKerningGroup = O_Right;
rightKerningGroup = O_Left;
unicode = 014E;
},
{
glyphname = Ohorn;
lastChange = "2012-12-20 03:58:12 -0800";
layers = (
{
layerId = "44E8B56B-104B-45A6-8718-400D756F8F39";
name = Regular;
paths = (
{
closed = 1;
nodes = (
"416 1413 OFFCURVE",
"177 1125 OFFCURVE",
"177 698 CURVE SMOOTH",
"177 281 OFFCURVE",
"408 -18 OFFCURVE",
"831 -18 CURVE SMOOTH",
"1249 -18 OFFCURVE",
"1484 287 OFFCURVE",
"1484 697 CURVE SMOOTH",
"1484 1122 OFFCURVE",
"1241 1413 OFFCURVE",
"832 1413 CURVE SMOOTH"
);
},
{
closed = 1;
nodes = (
"1149 1275 OFFCURVE",
"1305 1027 OFFCURVE",
"1305 697 CURVE SMOOTH",
"1305 379 OFFCURVE",
"1155 120 OFFCURVE",
"831 120 CURVE SMOOTH",
"507 120 OFFCURVE",
"356 379 OFFCURVE",
"356 697 CURVE SMOOTH",
"356 1028 OFFCURVE",
"515 1275 OFFCURVE",
"832 1275 CURVE SMOOTH"
);
},
{
closed = 1;
nodes = (
"1653 1413 LINE",
"1667 1376 OFFCURVE",
"1680 1324 OFFCURVE",
"1680 1279 CURVE SMOOTH",
"1680 1229 OFFCURVE",
"1664 1188 OFFCURVE",
"1611 1188 CURVE SMOOTH",
"1596 1188 OFFCURVE",
"1580 1190 OFFCURVE",
"1566 1190 CURVE",
"1566 1104 LINE",
"1594 1101 OFFCURVE",
"1624 1099 OFFCURVE",
"1650 1099 CURVE SMOOTH",
"1742 1099 OFFCURVE",
"1788 1180 OFFCURVE",
"1788 1276 CURVE SMOOTH",
"1788 1321 OFFCURVE",
"1778 1368 OFFCURVE",
"1759 1413 CURVE"
);
}
);
width = 1661;
}
);
unicode = 01A0;
},
{
glyphname = Oslash;
lastChange = "2012-12-20 03:58:12 -0800";
layers = (
{
anchors = (
{
name = top;
position = "{780, 0}";
}
);
layerId = "44E8B56B-104B-45A6-8718-400D756F8F39";
name = Regular;
paths = (
{
closed = 1;
nodes = (
"1006 1411 LINE",
"937 1432 OFFCURVE",
"861 1443 OFFCURVE",
"779 1443 CURVE SMOOTH",
"358 1443 OFFCURVE",
"115 1156 OFFCURVE",
"115 708 CURVE SMOOTH",
"115 406 OFFCURVE",
"231 162 OFFCURVE",
"456 48 CURVE",
"386 -125 LINE",
"500 -164 LINE",
"568 5 LINE",
"632 -13 OFFCURVE",
"702 -23 OFFCURVE",
"779 -23 CURVE SMOOTH",
"1216 -23 OFFCURVE",
"1443 283 OFFCURVE",
"1443 708 CURVE SMOOTH",
"1443 1017 OFFCURVE",
"1329 1246 OFFCURVE",
"1121 1362 CURVE",
"1196 1546 LINE",
"1077 1588 LINE"
);
},
{
closed = 1;
nodes = (
"840 1282 OFFCURVE",
"895 1274 OFFCURVE",
"944 1258 CURVE",
"520 207 LINE",
"364 302 OFFCURVE",
"288 491 OFFCURVE",
"288 714 CURVE SMOOTH",
"288 1031 OFFCURVE",
"450 1282 OFFCURVE",
"779 1282 CURVE SMOOTH"
);
},
{
closed = 1;
nodes = (
"1199 1104 OFFCURVE",
"1269 923 OFFCURVE",
"1269 714 CURVE SMOOTH",
"1269 390 OFFCURVE",
"1110 138 OFFCURVE",
"779 138 CURVE SMOOTH",
"724 138 OFFCURVE",
"676 144 OFFCURVE",
"631 157 CURVE",
"1056 1203 LINE"
);
}
);
width = 1560;
}
);
leftKerningGroup = O_Right;
rightKerningGroup = O_Left;
unicode = 00D8;
},
{
glyphname = Oslashacute;
lastChange = "2012-12-20 03:58:12 -0800";
layers = (
{
layerId = "44E8B56B-104B-45A6-8718-400D756F8F39";
name = Regular;
paths = (
{
closed = 1;
nodes = (
"1006 1411 LINE",
"937 1432 OFFCURVE",
"861 1443 OFFCURVE",
"779 1443 CURVE SMOOTH",
"358 1443 OFFCURVE",
"115 1156 OFFCURVE",
"115 708 CURVE SMOOTH",
"115 406 OFFCURVE",
"231 162 OFFCURVE",
"456 48 CURVE",
"386 -125 LINE",
"500 -164 LINE",
"568 5 LINE",
"632 -13 OFFCURVE",
"702 -23 OFFCURVE",
"779 -23 CURVE SMOOTH",
"1216 -23 OFFCURVE",
"1443 283 OFFCURVE",
"1443 708 CURVE SMOOTH",
"1443 1017 OFFCURVE",
"1329 1246 OFFCURVE",
"1121 1362 CURVE",
"1196 1546 LINE",
"1077 1588 LINE"
);
},
{
closed = 1;
nodes = (
"840 1282 OFFCURVE",
"895 1274 OFFCURVE",
"944 1258 CURVE",
"520 207 LINE",
"364 302 OFFCURVE",
"288 491 OFFCURVE",
"288 714 CURVE SMOOTH",
"288 1031 OFFCURVE",
"450 1282 OFFCURVE",
"779 1282 CURVE SMOOTH"
);
},
{
closed = 1;
nodes = (
"1199 1104 OFFCURVE",
"1269 923 OFFCURVE",
"1269 714 CURVE SMOOTH",
"1269 390 OFFCURVE",
"1110 138 OFFCURVE",
"779 138 CURVE SMOOTH",
"724 138 OFFCURVE",
"676 144 OFFCURVE",
"631 157 CURVE",
"1056 1203 LINE"
);
},
{
closed = 1;
nodes = (
"897 2104 LINE",
"727 1751 LINE",
"831 1751 LINE",
"1127 2104 LINE"
);
}
);
width = 1560;
}
);
unicode = 01FE;
},
{
glyphname = OE;
lastChange = "2012-12-20 03:58:12 -0800";
layers = (
{
anchors = (
{
name = top;
position = "{933, 0}";
}
);
layerId = "44E8B56B-104B-45A6-8718-400D756F8F39";
name = Regular;
paths = (
{
closed = 1;
nodes = (
"383 1387 OFFCURVE",
"122 1099 OFFCURVE",
"113 702 CURVE SMOOTH",
"113 272 OFFCURVE",
"338 -21 OFFCURVE",
"770 -21 CURVE SMOOTH",
"876 -21 OFFCURVE",
"1027 33 OFFCURVE",
"1066 75 CURVE",
"1066 0 LINE",
"1734 0 LINE",
"1748 142 LINE",
"1227 142 LINE",
"1227 630 LINE",
"1678 630 LINE",
"1678 769 LINE",
"1227 769 LINE",
"1227 1220 LINE",
"1711 1220 LINE",
"1726 1360 LINE",
"1066 1360 LINE",
"1066 1286 LINE",
"998 1345 OFFCURVE",
"884 1387 OFFCURVE",
"749 1387 CURVE SMOOTH"
);
},
{
closed = 1;
nodes = (
"890 1249 OFFCURVE",
"996 1203 OFFCURVE",
"1066 1146 CURVE",
"1066 202 LINE",
"1022 176 OFFCURVE",
"888 117 OFFCURVE",
"771 117 CURVE SMOOTH",
"415 121 OFFCURVE",
"286 380 OFFCURVE",
"286 703 CURVE SMOOTH",
"293 1020 OFFCURVE",
"468 1249 OFFCURVE",
"763 1249 CURVE SMOOTH"
);
}
);
width = 1866;
}
);
leftKerningGroup = O_Right;
unicode = 0152;
},
{
glyphname = P;
lastChange = "2012-12-28 16:51:01 -0800";
layers = (
{
layerId = "44E8B56B-104B-45A6-8718-400D756F8F39";
name = Regular;
paths = (
{
closed = 1;
nodes = (
"186 1390 LINE",
"186 0 LINE",
"365 0 LINE",
"365 586 LINE",
"435 582 OFFCURVE",
"609 583 OFFCURVE",
"682 583 CURVE SMOOTH",
"1026 583 OFFCURVE",
"1161 755 OFFCURVE",
"1161 1008 CURVE SMOOTH",
"1161 1253 OFFCURVE",
"966 1390 OFFCURVE",
"703 1390 CURVE SMOOTH"
);
},
{
closed = 1;
nodes = (
"870 1253 OFFCURVE",
"982 1167 OFFCURVE",
"982 1005 CURVE SMOOTH",
"982 825 OFFCURVE",
"914 714 OFFCURVE",
"690 714 CURVE SMOOTH",
"627 714 OFFCURVE",
"365 716 OFFCURVE",
"365 716 CURVE",
"365 1253 LINE",
"699 1253 LINE SMOOTH"
);
}
);
width = 1245;
}
);
leftKerningGroup = H_Right;
rightKerningGroup = P_Left;
unicode = 0050;
},
{
glyphname = Thorn;
lastChange = "2012-12-20 03:58:12 -0800";
layers = (
{
layerId = "44E8B56B-104B-45A6-8718-400D756F8F39";
name = Regular;
paths = (
{
closed = 1;
nodes = (
"136 1361 LINE",
"136 0 LINE",
"298 0 LINE",
"298 318 LINE",
"657 311 LINE SMOOTH",
"973 311 OFFCURVE",
"1103 478 OFFCURVE",
"1103 720 CURVE SMOOTH",
"1103 1008 OFFCURVE",
"920 1107 OFFCURVE",
"592 1107 CURVE SMOOTH",
"298 1107 LINE",
"298 1361 LINE"
);
},
{
closed = 1;
nodes = (
"859 972 OFFCURVE",
"949 891 OFFCURVE",
"949 712 CURVE SMOOTH",
"949 560 OFFCURVE",
"873 449 OFFCURVE",
"647 449 CURVE SMOOTH",
"298 449 LINE",
"298 972 LINE",
"609 972 LINE SMOOTH"
);
}
);
width = 1213;
}
);
leftKerningGroup = H_Right;
unicode = 00DE;
},
{
glyphname = Q;
lastChange = "2012-12-28 16:51:01 -0800";
layers = (
{
components = (
{
name = O;
transform = "{1, 0, 0, 1, 0, 0}";
}
);
layerId = "44E8B56B-104B-45A6-8718-400D756F8F39";
name = Regular;
paths = (
{
closed = 1;
nodes = (
"897 -1 LINE",
"976 -158 OFFCURVE",
"1179 -386 OFFCURVE",
"1215 -421 CURVE",
"1318 -318 LINE",
"1209 -211 OFFCURVE",
"1066 1 OFFCURVE",
"1044 36 CURVE"
);
}
);
width = 1587;
}
);
leftKerningGroup = O_Right;
rightKerningGroup = O_Left;
unicode = 0051;
},
{
glyphname = R;
lastChange = "2012-12-28 16:51:01 -0800";
layers = (
{
anchors = (
{
name = bottom;
position = "{644, 0}";
},
{
name = top;
position = "{609, 1390}";
}
);
layerId = "44E8B56B-104B-45A6-8718-400D756F8F39";
name = Regular;
paths = (
{
closed = 1;
nodes = (
"186 1390 LINE",
"186 0 LINE",
"365 0 LINE",
"365 661 LINE",
"592 659 LINE SMOOTH",
"624 659 OFFCURVE",
"726 662 OFFCURVE",
"753 664 CURVE",
"1015 0 LINE",
"1201 0 LINE",
"913 700 LINE",
"1096 758 OFFCURVE",
"1158 872 OFFCURVE",
"1158 1040 CURVE SMOOTH",
"1158 1323 OFFCURVE",
"971 1390 OFFCURVE",
"641 1390 CURVE SMOOTH"
);
},
{
closed = 1;
nodes = (
"911 1252 OFFCURVE",
"981 1180 OFFCURVE",
"981 1038 CURVE SMOOTH",
"981 878 OFFCURVE",
"921 799 OFFCURVE",
"676 799 CURVE SMOOTH",
"365 799 LINE",
"365 1252 LINE",
"668 1252 LINE SMOOTH"
);
}
);
width = 1288;
}
);
leftKerningGroup = H_Right;
rightKerningGroup = R_Left;
unicode = 0052;
},
{
glyphname = S;
lastChange = "2012-12-28 16:51:01 -0800";
layers = (
{
anchors = (
{
name = bottom;
position = "{545, 0}";
},
{
name = top;
position = "{545, 1395}";
}
);
layerId = "44E8B56B-104B-45A6-8718-400D756F8F39";
name = Regular;
paths = (
{
closed = 1;
nodes = (
"303 1413 OFFCURVE",
"111 1322 OFFCURVE",
"111 1057 CURVE SMOOTH",
"111 877 OFFCURVE",
"221 770 OFFCURVE",
"405 698 CURVE SMOOTH",
"599 622 LINE SMOOTH",
"776 553 OFFCURVE",
"828 491 OFFCURVE",
"828 368 CURVE SMOOTH",
"828 203 OFFCURVE",
"724 118 OFFCURVE",
"548 118 CURVE SMOOTH",
"386 118 OFFCURVE",
"274 174 OFFCURVE",
"165 240 CURVE",
"112 108 LINE",
"189 57 OFFCURVE",
"334 -20 OFFCURVE",
"554 -20 CURVE SMOOTH",
"814 -20 OFFCURVE",
"989 107 OFFCURVE",
"989 378 CURVE SMOOTH",
"989 614 OFFCURVE",
"868 691 OFFCURVE",
"663 772 CURVE SMOOTH",
"468 849 LINE SMOOTH",
"329 904 OFFCURVE",
"275 954 OFFCURVE",
"275 1071 CURVE SMOOTH",
"275 1224 OFFCURVE",
"397 1275 OFFCURVE",
"565 1275 CURVE SMOOTH",
"703 1275 OFFCURVE",
"818 1212 OFFCURVE",
"880 1173 CURVE",
"937 1300 LINE",
"851 1358 OFFCURVE",
"710 1413 OFFCURVE",
"554 1413 CURVE SMOOTH"
);
}
);
width = 1089;
}
);
leftKerningGroup = S_Right;
rightKerningGroup = S_Left;
unicode = 0053;
},
{
glyphname = Scircumflex;
lastChange = "2012-12-20 03:58:12 -0800";
layers = (
{
layerId = "44E8B56B-104B-45A6-8718-400D756F8F39";
name = Regular;
paths = (
{
closed = 1;
nodes = (
"392 1413 OFFCURVE",
"174 1316 OFFCURVE",
"174 1051 CURVE SMOOTH",
"174 871 OFFCURVE",
"290 760 OFFCURVE",
"466 704 CURVE SMOOTH",
"695 624 LINE SMOOTH",
"863 565 OFFCURVE",
"938 492 OFFCURVE",
"938 369 CURVE SMOOTH",
"938 204 OFFCURVE",
"818 120 OFFCURVE",
"638 120 CURVE SMOOTH",
"472 120 OFFCURVE",
"339 172 OFFCURVE",
"227 238 CURVE",
"172 110 LINE",
"251 59 OFFCURVE",
"412 -18 OFFCURVE",
"638 -18 CURVE SMOOTH",
"899 -18 OFFCURVE",
"1093 105 OFFCURVE",
"1093 376 CURVE SMOOTH",
"1093 612 OFFCURVE",
"937 711 OFFCURVE",
"740 772 CURVE SMOOTH",
"523 848 LINE SMOOTH",
"400 886 OFFCURVE",
"333 956 OFFCURVE",
"333 1062 CURVE SMOOTH",
"333 1215 OFFCURVE",
"483 1275 OFFCURVE",
"655 1275 CURVE SMOOTH",
"796 1275 OFFCURVE",
"919 1212 OFFCURVE",
"983 1173 CURVE",
"1038 1298 LINE",
"950 1356 OFFCURVE",
"808 1413 OFFCURVE",
"649 1413 CURVE SMOOTH"
);
},
{
closed = 1;
nodes = (
"536 1929 LINE",
"366 1576 LINE",
"485 1576 LINE",
"632 1824 LINE",
"779 1576 LINE",
"900 1576 LINE",
"730 1929 LINE"
);
}
);
width = 1243;
}
);
unicode = 015C;
},
{
glyphname = Scommaaccent;
lastChange = "2012-12-20 03:58:12 -0800";
layers = (
{
layerId = "44E8B56B-104B-45A6-8718-400D756F8F39";
name = Regular;
paths = (
{
closed = 1;
nodes = (
"392 1413 OFFCURVE",
"174 1316 OFFCURVE",
"174 1051 CURVE SMOOTH",
"174 871 OFFCURVE",
"290 760 OFFCURVE",
"466 704 CURVE SMOOTH",
"695 624 LINE SMOOTH",
"863 565 OFFCURVE",
"938 492 OFFCURVE",
"938 369 CURVE SMOOTH",
"938 204 OFFCURVE",
"818 120 OFFCURVE",
"638 120 CURVE SMOOTH",
"472 120 OFFCURVE",
"339 172 OFFCURVE",
"227 238 CURVE",
"172 110 LINE",
"251 59 OFFCURVE",
"412 -18 OFFCURVE",
"638 -18 CURVE SMOOTH",
"899 -18 OFFCURVE",
"1093 105 OFFCURVE",
"1093 376 CURVE SMOOTH",
"1093 612 OFFCURVE",
"937 711 OFFCURVE",
"740 772 CURVE SMOOTH",
"523 848 LINE SMOOTH",
"400 886 OFFCURVE",
"333 956 OFFCURVE",
"333 1062 CURVE SMOOTH",
"333 1215 OFFCURVE",
"483 1275 OFFCURVE",
"655 1275 CURVE SMOOTH",
"796 1275 OFFCURVE",
"919 1212 OFFCURVE",
"983 1173 CURVE",
"1038 1298 LINE",
"950 1356 OFFCURVE",
"808 1413 OFFCURVE",
"649 1413 CURVE SMOOTH"
);
},
{
closed = 1;
nodes = (
"600 -181 LINE",
"514 -635 LINE",
"621 -635 LINE",
"751 -181 LINE"
);
}
);
width = 1243;
}
);
leftKerningGroup = S_Right;
rightKerningGroup = S_Left;
unicode = 0218;
},
{
glyphname = uni018F;
lastChange = "2012-12-20 03:58:12 -0800";
layers = (
{
layerId = "44E8B56B-104B-45A6-8718-400D756F8F39";
name = Regular;
paths = (
{
closed = 1;
nodes = (
"444 1388 OFFCURVE",
"333 1345 OFFCURVE",
"217 1259 CURVE",
"278 1138 LINE",
"370 1198 OFFCURVE",
"476 1249 OFFCURVE",
"618 1249 CURVE SMOOTH",
"968 1249 OFFCURVE",
"1105 988 OFFCURVE",
"1110 707 CURVE",
"119 707 LINE SMOOTH",
"119 707 OFFCURVE",
"113 624 OFFCURVE",
"113 583 CURVE SMOOTH",
"126 306 OFFCURVE",
"271 -21 OFFCURVE",
"681 -21 CURVE SMOOTH",
"1039 -21 OFFCURVE",
"1282 281 OFFCURVE",
"1282 689 CURVE SMOOTH",
"1282 1074 OFFCURVE",
"1059 1388 OFFCURVE",
"631 1388 CURVE SMOOTH"
);
},
{
closed = 1;
nodes = (
"1073 319 OFFCURVE",
"924 117 OFFCURVE",
"684 117 CURVE SMOOTH",
"359 117 OFFCURVE",
"290 379 OFFCURVE",
"277 574 CURVE",
"1103 574 LINE"
);
}
);
width = 1398;
}
);
unicode = 018F;
},
{
glyphname = T;
lastChange = "2012-12-28 16:51:01 -0800";
layers = (
{
anchors = (
{
name = bottom;
position = "{579, 0}";
},
{
name = center;
position = "{579, 709}";
},
{
name = top;
position = "{579, 1390}";
}
);
layerId = "44E8B56B-104B-45A6-8718-400D756F8F39";
name = Regular;
paths = (
{
closed = 1;
nodes = (
"74 1390 LINE",
"74 1251 LINE",
"489 1251 LINE",
"489 0 LINE",
"668 0 LINE",
"668 1251 LINE",
"1084 1251 LINE",
"1084 1390 LINE"
);
}
);
width = 1158;
}
);
leftKerningGroup = T_Right;
rightKerningGroup = T_Left;
unicode = 0054;
},
{
glyphname = U;
lastChange = "2012-12-28 16:51:01 -0800";
layers = (
{
anchors = (
{
name = ogonek;
position = "{856, 10}";
},
{
name = top;
position = "{705, 1390}";
}
);
layerId = "44E8B56B-104B-45A6-8718-400D756F8F39";
name = Regular;
paths = (
{
closed = 1;
nodes = (
"1061 1390 LINE",
"1061 492 LINE SMOOTH",
"1061 248 OFFCURVE",
"944 118 OFFCURVE",
"704 118 CURVE SMOOTH",
"458 118 OFFCURVE",
"348 248 OFFCURVE",
"348 492 CURVE SMOOTH",
"348 1390 LINE",
"171 1390 LINE",
"171 495 LINE SMOOTH",
"171 196 OFFCURVE",
"339 -20 OFFCURVE",
"704 -20 CURVE SMOOTH",
"1069 -20 OFFCURVE",
"1238 195 OFFCURVE",
"1238 493 CURVE SMOOTH",
"1238 1390 LINE"
);
}
);
width = 1409;
}
);
leftKerningGroup = U_Right;
rightKerningGroup = U_Left;
unicode = 0055;
},
{
glyphname = Ubreve;
lastChange = "2012-12-20 03:58:12 -0800";
layers = (
{
layerId = "44E8B56B-104B-45A6-8718-400D756F8F39";
name = Regular;
paths = (
{
closed = 1;
nodes = (
"1055 1390 LINE",
"1055 492 LINE SMOOTH",
"1055 248 OFFCURVE",
"940 120 OFFCURVE",
"700 120 CURVE SMOOTH",
"454 120 OFFCURVE",
"346 248 OFFCURVE",
"346 492 CURVE SMOOTH",
"346 1390 LINE",
"169 1390 LINE",
"169 495 LINE SMOOTH",
"169 196 OFFCURVE",
"335 -18 OFFCURVE",
"700 -18 CURVE SMOOTH",
"1065 -18 OFFCURVE",
"1232 195 OFFCURVE",
"1232 493 CURVE SMOOTH",
"1232 1390 LINE"
);
},
{
closed = 1;
nodes = (
"823 1798 LINE",
"823 1711 OFFCURVE",
"765 1670 OFFCURVE",
"699 1670 CURVE SMOOTH",
"633 1670 OFFCURVE",
"578 1711 OFFCURVE",
"578 1798 CURVE",
"472 1798 LINE",
"472 1641 OFFCURVE",
"587 1576 OFFCURVE",
"699 1576 CURVE SMOOTH",
"812 1576 OFFCURVE",
"929 1641 OFFCURVE",
"929 1798 CURVE"
);
}
);
width = 1401;
}
);
leftKerningGroup = U_Right;
rightKerningGroup = U_Left;
unicode = 016C;
},
{
glyphname = Uhorn;
lastChange = "2012-12-20 03:58:12 -0800";
layers = (
{
layerId = "44E8B56B-104B-45A6-8718-400D756F8F39";
name = Regular;
paths = (
{
closed = 1;
nodes = (
"1055 1390 LINE",
"1055 492 LINE SMOOTH",
"1055 248 OFFCURVE",
"940 120 OFFCURVE",
"700 120 CURVE SMOOTH",
"454 120 OFFCURVE",
"346 248 OFFCURVE",
"346 492 CURVE SMOOTH",
"346 1390 LINE",
"169 1390 LINE",
"169 495 LINE SMOOTH",
"169 196 OFFCURVE",
"335 -18 OFFCURVE",
"700 -18 CURVE SMOOTH",
"1065 -18 OFFCURVE",
"1232 195 OFFCURVE",
"1232 493 CURVE SMOOTH",
"1232 1390 LINE"
);
},
{
closed = 1;
nodes = (
"1401 1413 LINE",
"1415 1376 OFFCURVE",
"1428 1324 OFFCURVE",
"1428 1279 CURVE SMOOTH",
"1428 1229 OFFCURVE",
"1412 1188 OFFCURVE",
"1359 1188 CURVE SMOOTH",
"1344 1188 OFFCURVE",
"1328 1190 OFFCURVE",
"1314 1190 CURVE",
"1314 1104 LINE",
"1342 1101 OFFCURVE",
"1372 1099 OFFCURVE",
"1398 1099 CURVE SMOOTH",
"1490 1099 OFFCURVE",
"1536 1180 OFFCURVE",
"1536 1276 CURVE SMOOTH",
"1536 1321 OFFCURVE",
"1526 1368 OFFCURVE",
"1507 1413 CURVE"
);
}
);
width = 1401;
}
);
unicode = 01AF;
},
{
glyphname = Utilde;
lastChange = "2012-12-20 03:58:12 -0800";
layers = (
{
layerId = "44E8B56B-104B-45A6-8718-400D756F8F39";
name = Regular;
paths = (
{
closed = 1;
nodes = (
"1055 1390 LINE",
"1055 492 LINE SMOOTH",
"1055 248 OFFCURVE",
"940 120 OFFCURVE",
"700 120 CURVE SMOOTH",
"454 120 OFFCURVE",
"346 248 OFFCURVE",
"346 492 CURVE SMOOTH",
"346 1390 LINE",
"169 1390 LINE",
"169 495 LINE SMOOTH",
"169 196 OFFCURVE",
"335 -18 OFFCURVE",
"700 -18 CURVE SMOOTH",
"1065 -18 OFFCURVE",
"1232 195 OFFCURVE",
"1232 493 CURVE SMOOTH",
"1232 1390 LINE"
);
},
{
closed = 1;
nodes = (
"884 1775 LINE",
"881 1737 OFFCURVE",
"878 1693 OFFCURVE",
"842 1690 CURVE",
"842 1690 OFFCURVE",
"686 1775 OFFCURVE",
"573 1775 CURVE SMOOTH",
"476 1775 OFFCURVE",
"417 1712 OFFCURVE",
"417 1576 CURVE",
"514 1576 LINE",
"517 1626 OFFCURVE",
"534 1663 OFFCURVE",
"564 1664 CURVE",
"564 1664 OFFCURVE",
"766 1576 OFFCURVE",
"848 1576 CURVE SMOOTH",
"944 1576 OFFCURVE",
"984 1650 OFFCURVE",
"984 1775 CURVE"
);
}
);
width = 1401;
}
);
leftKerningGroup = U_Right;
rightKerningGroup = U_Left;
unicode = 0168;
},
{
glyphname = V;
lastChange = "2012-12-28 16:51:01 -0800";
layers = (
{
layerId = "44E8B56B-104B-45A6-8718-400D756F8F39";
name = Regular;
paths = (
{
closed = 1;
nodes = (
"1082 1390 LINE",
"776 495 LINE",
"672 197 LINE",
"569 492 LINE",
"264 1390 LINE",
"78 1390 LINE",
"588 0 LINE",
"756 0 LINE",
"1266 1390 LINE"
);
}
);
width = 1344;
}
);
leftKerningGroup = V_Right;
rightKerningGroup = V_Left;
unicode = 0056;
},
{
glyphname = W;
lastChange = "2012-12-28 16:51:01 -0800";
layers = (
{
anchors = (
{
name = top;
position = "{951, 1390}";
}
);
layerId = "44E8B56B-104B-45A6-8718-400D756F8F39";
name = Regular;
paths = (
{
closed = 1;
nodes = (
"1669 1390 LINE",
"1373 221 LINE",
"1043 1365 LINE",
"861 1365 LINE",
"523 222 LINE",
"234 1390 LINE",
"56 1390 LINE",
"428 0 LINE",
"610 0 LINE",
"959 1160 LINE",
"1286 0 LINE",
"1471 0 LINE",
"1846 1390 LINE"
);
}
);
width = 1902;
}
);
leftKerningGroup = W_Right;
rightKerningGroup = W_Left;
unicode = 0057;
},
{
glyphname = X;
lastChange = "2012-12-28 16:51:01 -0800";
layers = (
{
layerId = "44E8B56B-104B-45A6-8718-400D756F8F39";
name = Regular;
paths = (
{
closed = 1;
nodes = (
"1027 1390 LINE",
"646 831 LINE",
"266 1390 LINE",
"80 1390 LINE",
"543 709 LINE",
"80 0 LINE",
"266 0 LINE",
"646 576 LINE",
"1027 0 LINE",
"1213 0 LINE",
"746 709 LINE",
"1213 1390 LINE"
);
}
);
width = 1293;
}
);
rightKerningGroup = X_Left;
unicode = 0058;
},
{
glyphname = Y;
lastChange = "2012-12-28 16:51:01 -0800";
layers = (
{
anchors = (
{
name = top;
position = "{613, 1390}";
}
);
layerId = "44E8B56B-104B-45A6-8718-400D756F8F39";
name = Regular;
paths = (
{
closed = 1;
nodes = (
"1013 1390 LINE",
"618 723 LINE",
"212 1390 LINE",
"34 1390 LINE",
"530 573 LINE",
"530 0 LINE",
"708 0 LINE",
"708 577 LINE",
"1191 1390 LINE"
);
}
);
width = 1225;
}
);
leftKerningGroup = Y_Right;
rightKerningGroup = Y_Left;
unicode = 0059;
},
{
glyphname = Z;
lastChange = "2012-12-28 16:51:01 -0800";
layers = (
{
anchors = (
{
name = top;
position = "{633, 1390}";
}
);
layerId = "44E8B56B-104B-45A6-8718-400D756F8F39";
name = Regular;
paths = (
{
closed = 1;
nodes = (
"174 1390 LINE",
"174 1252 LINE",
"852 1252 LINE",
"147 124 LINE",
"147 0 LINE",
"1066 0 LINE",
"1072 138 LINE",
"344 138 LINE",
"1061 1272 LINE",
"1061 1390 LINE"
);
}
);
width = 1173;
}
);
unicode = 005A;
},
{
glyphname = uni01C4;
lastChange = "2012-12-20 03:58:12 -0800";
layers = (
{
layerId = "44E8B56B-104B-45A6-8718-400D756F8F39";
name = Regular;
paths = (
{
closed = 1;
nodes = (
"214 1390 LINE",
"214 0 LINE",
"622 0 LINE SMOOTH",
"1070 0 OFFCURVE",
"1343 253 OFFCURVE",
"1343 698 CURVE SMOOTH",
"1343 1166 OFFCURVE",
"1044 1390 OFFCURVE",
"594 1390 CURVE SMOOTH"
);
},
{
closed = 1;
nodes = (
"955 1252 OFFCURVE",
"1165 1082 OFFCURVE",
"1165 694 CURVE SMOOTH",
"1165 340 OFFCURVE",
"975 137 OFFCURVE",
"617 137 CURVE SMOOTH",
"392 137 LINE",
"392 1252 LINE",
"590 1252 LINE SMOOTH"
);
},
{
closed = 1;
nodes = (
"1702 1390 LINE",
"1702 1252 LINE",
"2409 1252 LINE",
"1675 124 LINE",
"1675 0 LINE",
"2615 0 LINE",
"2621 138 LINE",
"1876 138 LINE",
"2614 1272 LINE",
"2614 1390 LINE"
);
},
{
closed = 1;
nodes = (
"2294 1929 LINE",
"2147 1646 LINE",
"2000 1929 LINE",
"1881 1929 LINE",
"2051 1576 LINE",
"2245 1576 LINE",
"2415 1929 LINE"
);
}
);
width = 2754;
}
);
unicode = 01C4;
},
{
glyphname = uni01C5;
lastChange = "2012-12-20 03:58:12 -0800";
layers = (
{
layerId = "44E8B56B-104B-45A6-8718-400D756F8F39";
name = Regular;
paths = (
{
closed = 1;
nodes = (
"214 1390 LINE",
"214 0 LINE",
"622 0 LINE SMOOTH",
"1070 0 OFFCURVE",
"1343 253 OFFCURVE",
"1343 698 CURVE SMOOTH",
"1343 1166 OFFCURVE",
"1044 1390 OFFCURVE",
"594 1390 CURVE SMOOTH"
);
},
{
closed = 1;
nodes = (
"955 1252 OFFCURVE",
"1165 1082 OFFCURVE",
"1165 694 CURVE SMOOTH",
"1165 340 OFFCURVE",
"975 137 OFFCURVE",
"617 137 CURVE SMOOTH",
"392 137 LINE",
"392 1252 LINE",
"590 1252 LINE SMOOTH"
);
},
{
closed = 1;
nodes = (
"1657 998 LINE",
"1657 878 LINE",
"2147 878 LINE",
"1636 117 LINE",
"1636 0 LINE",
"2334 0 LINE",
"2334 120 LINE",
"1815 120 LINE",
"2317 873 LINE",
"2317 998 LINE"
);
},
{
closed = 1;
nodes = (
"2131 1535 LINE",
"1984 1252 LINE",
"1837 1535 LINE",
"1718 1535 LINE",
"1888 1182 LINE",
"2082 1182 LINE",
"2252 1535 LINE"
);
}
);
width = 2430;
}
);
unicode = 01C5;
},
{
glyphname = uni01C7;
lastChange = "2012-12-20 03:58:12 -0800";
layers = (
{
layerId = "44E8B56B-104B-45A6-8718-400D756F8F39";
name = Regular;
paths = (
{
closed = 1;
nodes = (
"214 1390 LINE",
"214 0 LINE",
"974 0 LINE",
"981 140 LINE",
"393 140 LINE",
"393 1390 LINE"
);
},
{
closed = 1;
nodes = (
"1404 1408 LINE",
"1404 186 LINE SMOOTH",
"1404 51 OFFCURVE",
"1400 -45 OFFCURVE",
"1162 -45 CURVE",
"1176 -192 LINE",
"1535 -192 OFFCURVE",
"1582 -61 OFFCURVE",
"1582 219 CURVE SMOOTH",
"1582 1408 LINE"
);
}
);
width = 1796;
}
);
unicode = 01C7;
},
{
glyphname = uni01C8;
lastChange = "2012-12-20 03:58:12 -0800";
layers = (
{
layerId = "44E8B56B-104B-45A6-8718-400D756F8F39";
name = Regular;
paths = (
{
closed = 1;
nodes = (
"214 1390 LINE",
"214 0 LINE",
"974 0 LINE",
"981 140 LINE",
"393 140 LINE",
"393 1390 LINE"
);
},
{
closed = 1;
nodes = (
"1317 998 LINE",
"1318 -127 LINE SMOOTH",
"1318 -215 OFFCURVE",
"1304 -257 OFFCURVE",
"1169 -257 CURVE SMOOTH",
"1121 -257 LINE",
"1141 -398 LINE",
"1189 -398 LINE SMOOTH",
"1437 -398 OFFCURVE",
"1492 -312 OFFCURVE",
"1492 -68 CURVE SMOOTH",
"1492 998 LINE"
);
},
{
closed = 1;
nodes = (
"1317 1361 LINE",
"1317 1181 LINE",
"1492 1181 LINE",
"1492 1361 LINE"
);
}
);
width = 1677;
}
);
unicode = 01C8;
},
{
glyphname = uni01CA;
lastChange = "2012-12-20 03:58:12 -0800";
layers = (
{
layerId = "44E8B56B-104B-45A6-8718-400D756F8F39";
name = Regular;
paths = (
{
closed = 1;
nodes = (
"1187 1390 LINE",
"1187 555 LINE",
"1192 208 LINE",
"393 1390 LINE",
"214 1390 LINE",
"214 0 LINE",
"370 0 LINE",
"370 830 LINE",
"365 1181 LINE",
"1160 0 LINE",
"1343 0 LINE",
"1343 1390 LINE"
);
},
{
closed = 1;
nodes = (
"1906 1408 LINE",
"1906 186 LINE SMOOTH",
"1906 51 OFFCURVE",
"1902 -45 OFFCURVE",
"1664 -45 CURVE",
"1678 -192 LINE",
"2037 -192 OFFCURVE",
"2084 -61 OFFCURVE",
"2084 219 CURVE SMOOTH",
"2084 1408 LINE"
);
}
);
width = 2298;
}
);
unicode = 01CA;
},
{
glyphname = uni01CB;
lastChange = "2012-12-20 03:58:12 -0800";
layers = (
{
layerId = "44E8B56B-104B-45A6-8718-400D756F8F39";
name = Regular;
paths = (
{
closed = 1;
nodes = (
"1187 1390 LINE",
"1187 555 LINE",
"1192 208 LINE",
"393 1390 LINE",
"214 1390 LINE",
"214 0 LINE",
"370 0 LINE",
"370 830 LINE",
"365 1181 LINE",
"1160 0 LINE",
"1343 0 LINE",
"1343 1390 LINE"
);
},
{
closed = 1;
nodes = (
"1819 998 LINE",
"1820 -127 LINE SMOOTH",
"1820 -215 OFFCURVE",
"1806 -257 OFFCURVE",
"1671 -257 CURVE SMOOTH",
"1623 -257 LINE",
"1643 -398 LINE",
"1691 -398 LINE SMOOTH",
"1939 -398 OFFCURVE",
"1994 -312 OFFCURVE",
"1994 -68 CURVE SMOOTH",
"1994 998 LINE"
);
},
{
closed = 1;
nodes = (
"1819 1361 LINE",
"1819 1181 LINE",
"1994 1181 LINE",
"1994 1361 LINE"
);
}
);
width = 2179;
}
);
unicode = 01CB;
},
{
glyphname = uni01CD;
lastChange = "2012-12-20 03:58:12 -0800";
layers = (
{
layerId = "44E8B56B-104B-45A6-8718-400D756F8F39";
name = Regular;
paths = (
{
closed = 1;
nodes = (
"589 1390 LINE",
"85 0 LINE",
"263 0 LINE",
"423 430 LINE",
"967 430 LINE",
"1126 0 LINE",
"1294 0 LINE",
"791 1390 LINE"
);
},
{
closed = 1;
nodes = (
"918 561 LINE",
"474 561 LINE",
"689 1223 LINE"
);
},
{
closed = 1;
nodes = (
"836 1929 LINE",
"689 1646 LINE",
"542 1929 LINE",
"423 1929 LINE",
"593 1576 LINE",
"787 1576 LINE",
"957 1929 LINE"
);
}
);
width = 1379;
}
);
unicode = 01CD;
},
{
glyphname = uni01CF;
lastChange = "2012-12-20 03:58:12 -0800";
layers = (
{
layerId = "44E8B56B-104B-45A6-8718-400D756F8F39";
name = Regular;
paths = (
{
closed = 1;
nodes = (
"214 1390 LINE",
"214 0 LINE",
"393 0 LINE",
"393 1390 LINE"
);
},
{
closed = 1;
nodes = (
"450 1929 LINE",
"303 1646 LINE",
"156 1929 LINE",
"37 1929 LINE",
"207 1576 LINE",
"401 1576 LINE",
"571 1929 LINE"
);
}
);
width = 607;
}
);
unicode = 01CF;
},
{
glyphname = uni01D1;
lastChange = "2012-12-20 03:58:12 -0800";
layers = (
{
layerId = "44E8B56B-104B-45A6-8718-400D756F8F39";
name = Regular;
paths = (
{
closed = 1;
nodes = (
"416 1413 OFFCURVE",
"177 1125 OFFCURVE",
"177 698 CURVE SMOOTH",
"177 281 OFFCURVE",
"408 -18 OFFCURVE",
"831 -18 CURVE SMOOTH",
"1249 -18 OFFCURVE",
"1484 287 OFFCURVE",
"1484 697 CURVE SMOOTH",
"1484 1122 OFFCURVE",
"1241 1413 OFFCURVE",
"832 1413 CURVE SMOOTH"
);
},
{
closed = 1;
nodes = (
"1149 1275 OFFCURVE",
"1305 1027 OFFCURVE",
"1305 697 CURVE SMOOTH",
"1305 379 OFFCURVE",
"1155 120 OFFCURVE",
"831 120 CURVE SMOOTH",
"507 120 OFFCURVE",
"356 379 OFFCURVE",
"356 697 CURVE SMOOTH",
"356 1028 OFFCURVE",
"515 1275 OFFCURVE",
"832 1275 CURVE SMOOTH"
);
},
{
closed = 1;
nodes = (
"977 1929 LINE",
"830 1646 LINE",
"683 1929 LINE",
"564 1929 LINE",
"734 1576 LINE",
"928 1576 LINE",
"1098 1929 LINE"
);
}
);
width = 1661;
}
);
unicode = 01D1;
},
{
glyphname = uni01D3;
lastChange = "2012-12-20 03:58:12 -0800";
layers = (
{
layerId = "44E8B56B-104B-45A6-8718-400D756F8F39";
name = Regular;
paths = (
{
closed = 1;
nodes = (
"1055 1390 LINE",
"1055 492 LINE SMOOTH",
"1055 248 OFFCURVE",
"940 120 OFFCURVE",
"700 120 CURVE SMOOTH",
"454 120 OFFCURVE",
"346 248 OFFCURVE",
"346 492 CURVE SMOOTH",
"346 1390 LINE",
"169 1390 LINE",
"169 495 LINE SMOOTH",
"169 196 OFFCURVE",
"335 -18 OFFCURVE",
"700 -18 CURVE SMOOTH",
"1065 -18 OFFCURVE",
"1232 195 OFFCURVE",
"1232 493 CURVE SMOOTH",
"1232 1390 LINE"
);
},
{
closed = 1;
nodes = (
"847 1929 LINE",
"700 1646 LINE",
"553 1929 LINE",
"434 1929 LINE",
"604 1576 LINE",
"798 1576 LINE",
"968 1929 LINE"
);
}
);
width = 1401;
}
);
unicode = 01D3;
},
{
glyphname = uni01D5;
lastChange = "2012-12-20 03:58:12 -0800";
layers = (
{
layerId = "44E8B56B-104B-45A6-8718-400D756F8F39";
name = Regular;
paths = (
{
closed = 1;
nodes = (
"1055 1390 LINE",
"1055 492 LINE SMOOTH",
"1055 248 OFFCURVE",
"940 120 OFFCURVE",
"700 120 CURVE SMOOTH",
"454 120 OFFCURVE",
"346 248 OFFCURVE",
"346 492 CURVE SMOOTH",
"346 1390 LINE",
"169 1390 LINE",
"169 495 LINE SMOOTH",
"169 196 OFFCURVE",
"335 -18 OFFCURVE",
"700 -18 CURVE SMOOTH",
"1065 -18 OFFCURVE",
"1232 195 OFFCURVE",
"1232 493 CURVE SMOOTH",
"1232 1390 LINE"
);
},
{
closed = 1;
nodes = (
"453 1769 LINE",
"453 1576 LINE",
"594 1576 LINE",
"594 1769 LINE"
);
},
{
closed = 1;
nodes = (
"808 1769 LINE",
"808 1576 LINE",
"949 1576 LINE",
"949 1769 LINE"
);
},
{
closed = 1;
nodes = (
"397 2059 LINE",
"397 1932 LINE",
"1005 1932 LINE",
"1005 2059 LINE"
);
}
);
width = 1401;
}
);
unicode = 01D5;
},
{
glyphname = uni01D7;
lastChange = "2012-12-20 03:58:12 -0800";
layers = (
{
layerId = "44E8B56B-104B-45A6-8718-400D756F8F39";
name = Regular;
paths = (
{
closed = 1;
nodes = (
"1055 1390 LINE",
"1055 492 LINE SMOOTH",
"1055 248 OFFCURVE",
"940 120 OFFCURVE",
"700 120 CURVE SMOOTH",
"454 120 OFFCURVE",
"346 248 OFFCURVE",
"346 492 CURVE SMOOTH",
"346 1390 LINE",
"169 1390 LINE",
"169 495 LINE SMOOTH",
"169 196 OFFCURVE",
"335 -18 OFFCURVE",
"700 -18 CURVE SMOOTH",
"1065 -18 OFFCURVE",
"1232 195 OFFCURVE",
"1232 493 CURVE SMOOTH",
"1232 1390 LINE"
);
},
{
closed = 1;
nodes = (
"453 1769 LINE",
"453 1576 LINE",
"594 1576 LINE",
"594 1769 LINE"
);
},
{
closed = 1;
nodes = (
"808 1769 LINE",
"808 1576 LINE",
"949 1576 LINE",
"949 1769 LINE"
);
},
{
closed = 1;
nodes = (
"819 2285 LINE",
"649 1932 LINE",
"753 1932 LINE",
"1049 2285 LINE"
);
}
);
width = 1401;
}
);
unicode = 01D7;
},
{
glyphname = uni01D9;
lastChange = "2012-12-20 03:58:12 -0800";
layers = (
{
layerId = "44E8B56B-104B-45A6-8718-400D756F8F39";
name = Regular;
paths = (
{
closed = 1;
nodes = (
"1055 1390 LINE",
"1055 492 LINE SMOOTH",
"1055 248 OFFCURVE",
"940 120 OFFCURVE",
"700 120 CURVE SMOOTH",
"454 120 OFFCURVE",
"346 248 OFFCURVE",
"346 492 CURVE SMOOTH",
"346 1390 LINE",
"169 1390 LINE",
"169 495 LINE SMOOTH",
"169 196 OFFCURVE",
"335 -18 OFFCURVE",
"700 -18 CURVE SMOOTH",
"1065 -18 OFFCURVE",
"1232 195 OFFCURVE",
"1232 493 CURVE SMOOTH",
"1232 1390 LINE"
);
},
{
closed = 1;
nodes = (
"453 1769 LINE",
"453 1576 LINE",
"594 1576 LINE",
"594 1769 LINE"
);
},
{
closed = 1;
nodes = (
"808 1769 LINE",
"808 1576 LINE",
"949 1576 LINE",
"949 1769 LINE"
);
},
{
closed = 1;
nodes = (
"847 2285 LINE",
"700 2002 LINE",
"553 2285 LINE",
"434 2285 LINE",
"604 1932 LINE",
"798 1932 LINE",
"968 2285 LINE"
);
}
);
width = 1401;
}
);
unicode = 01D9;
},
{
glyphname = uni01DB;
lastChange = "2012-12-20 03:58:12 -0800";
layers = (
{
layerId = "44E8B56B-104B-45A6-8718-400D756F8F39";
name = Regular;
paths = (
{
closed = 1;
nodes = (
"1055 1390 LINE",
"1055 492 LINE SMOOTH",
"1055 248 OFFCURVE",
"940 120 OFFCURVE",
"700 120 CURVE SMOOTH",
"454 120 OFFCURVE",
"346 248 OFFCURVE",
"346 492 CURVE SMOOTH",
"346 1390 LINE",
"169 1390 LINE",
"169 495 LINE SMOOTH",
"169 196 OFFCURVE",
"335 -18 OFFCURVE",
"700 -18 CURVE SMOOTH",
"1065 -18 OFFCURVE",
"1232 195 OFFCURVE",
"1232 493 CURVE SMOOTH",
"1232 1390 LINE"
);
},
{
closed = 1;
nodes = (
"453 1769 LINE",
"453 1576 LINE",
"594 1576 LINE",
"594 1769 LINE"
);
},
{
closed = 1;
nodes = (
"808 1769 LINE",
"808 1576 LINE",
"949 1576 LINE",
"949 1769 LINE"
);
},
{
closed = 1;
nodes = (
"356 2285 LINE",
"650 1932 LINE",
"752 1932 LINE",
"584 2285 LINE"
);
}
);
width = 1401;
}
);
unicode = 01DB;
},
{
glyphname = uni01DE;
lastChange = "2012-12-20 03:58:12 -0800";
layers = (
{
layerId = "44E8B56B-104B-45A6-8718-400D756F8F39";
name = Regular;
paths = (
{
closed = 1;
nodes = (
"589 1390 LINE",
"85 0 LINE",
"263 0 LINE",
"423 430 LINE",
"967 430 LINE",
"1126 0 LINE",
"1294 0 LINE",
"791 1390 LINE"
);
},
{
closed = 1;
nodes = (
"918 561 LINE",
"474 561 LINE",
"689 1223 LINE"
);
},
{
closed = 1;
nodes = (
"442 1769 LINE",
"442 1576 LINE",
"583 1576 LINE",
"583 1769 LINE"
);
},
{
closed = 1;
nodes = (
"797 1769 LINE",
"797 1576 LINE",
"938 1576 LINE",
"938 1769 LINE"
);
},
{
closed = 1;
nodes = (
"386 2059 LINE",
"386 1932 LINE",
"994 1932 LINE",
"994 2059 LINE"
);
}
);
width = 1379;
}
);
unicode = 01DE;
},
{
glyphname = uni01E0;
lastChange = "2012-12-20 03:58:12 -0800";
layers = (
{
layerId = "44E8B56B-104B-45A6-8718-400D756F8F39";
name = Regular;
paths = (
{
closed = 1;
nodes = (
"589 1390 LINE",
"85 0 LINE",
"263 0 LINE",
"423 430 LINE",
"967 430 LINE",
"1126 0 LINE",
"1294 0 LINE",
"791 1390 LINE"
);
},
{
closed = 1;
nodes = (
"918 561 LINE",
"474 561 LINE",
"689 1223 LINE"
);
},
{
closed = 1;
nodes = (
"613 1756 LINE",
"613 1576 LINE",
"766 1576 LINE",
"766 1756 LINE"
);
},
{
closed = 1;
nodes = (
"386 2005 LINE",
"386 1878 LINE",
"994 1878 LINE",
"994 2005 LINE"
);
}
);
width = 1379;
}
);
unicode = 01E0;
},
{
glyphname = uni01E8;
lastChange = "2012-12-20 03:58:12 -0800";
layers = (
{
layerId = "44E8B56B-104B-45A6-8718-400D756F8F39";
name = Regular;
paths = (
{
closed = 1;
nodes = (
"993 1389 LINE",
"392 746 LINE",
"392 1389 LINE",
"214 1389 LINE",
"214 0 LINE",
"392 0 LINE",
"392 585 LINE",
"509 689 LINE",
"1055 0 LINE",
"1264 0 LINE",
"639 763 LINE",
"1217 1389 LINE"
);
},
{
closed = 1;
nodes = (
"885 1929 LINE",
"738 1646 LINE",
"591 1929 LINE",
"472 1929 LINE",
"642 1576 LINE",
"836 1576 LINE",
"1006 1929 LINE"
);
}
);
width = 1302;
}
);
unicode = 01E8;
},
{
glyphname = uni01EA;
lastChange = "2012-12-20 03:58:12 -0800";
layers = (
{
layerId = "44E8B56B-104B-45A6-8718-400D756F8F39";
name = Regular;
paths = (
{
closed = 1;
nodes = (
"416 1413 OFFCURVE",
"177 1125 OFFCURVE",
"177 698 CURVE SMOOTH",
"177 281 OFFCURVE",
"408 -18 OFFCURVE",
"831 -18 CURVE SMOOTH",
"1249 -18 OFFCURVE",
"1484 287 OFFCURVE",
"1484 697 CURVE SMOOTH",
"1484 1122 OFFCURVE",
"1241 1413 OFFCURVE",
"832 1413 CURVE SMOOTH"
);
},
{
closed = 1;
nodes = (
"779 -5 LINE",
"692 -56 OFFCURVE",
"605 -132 OFFCURVE",
"605 -231 CURVE SMOOTH",
"605 -335 OFFCURVE",
"683 -391 OFFCURVE",
"781 -391 CURVE SMOOTH",
"830 -391 OFFCURVE",
"889 -377 OFFCURVE",
"924 -362 CURVE",
"924 -256 LINE",
"878 -275 OFFCURVE",
"848 -286 OFFCURVE",
"799 -286 CURVE SMOOTH",
"762 -286 OFFCURVE",
"719 -253 OFFCURVE",
"719 -205 CURVE SMOOTH",
"719 -143 OFFCURVE",
"788 -75 OFFCURVE",
"883 -5 CURVE"
);
},
{
closed = 1;
nodes = (
"1149 1275 OFFCURVE",
"1305 1027 OFFCURVE",
"1305 697 CURVE SMOOTH",
"1305 379 OFFCURVE",
"1155 120 OFFCURVE",
"831 120 CURVE SMOOTH",
"507 120 OFFCURVE",
"356 379 OFFCURVE",
"356 697 CURVE SMOOTH",
"356 1028 OFFCURVE",
"515 1275 OFFCURVE",
"832 1275 CURVE SMOOTH"
);
}
);
width = 1661;
}
);
unicode = 01EA;
},
{
glyphname = uni01EC;
lastChange = "2012-12-20 03:58:12 -0800";
layers = (
{
layerId = "44E8B56B-104B-45A6-8718-400D756F8F39";
name = Regular;
paths = (
{
closed = 1;
nodes = (
"416 1413 OFFCURVE",
"177 1125 OFFCURVE",
"177 698 CURVE SMOOTH",
"177 281 OFFCURVE",
"408 -18 OFFCURVE",
"831 -18 CURVE SMOOTH",
"1249 -18 OFFCURVE",
"1484 287 OFFCURVE",
"1484 697 CURVE SMOOTH",
"1484 1122 OFFCURVE",
"1241 1413 OFFCURVE",
"832 1413 CURVE SMOOTH"
);
},
{
closed = 1;
nodes = (
"779 -5 LINE",
"692 -56 OFFCURVE",
"605 -132 OFFCURVE",
"605 -231 CURVE SMOOTH",
"605 -335 OFFCURVE",
"683 -391 OFFCURVE",
"781 -391 CURVE SMOOTH",
"830 -391 OFFCURVE",
"889 -377 OFFCURVE",
"924 -362 CURVE",
"924 -256 LINE",
"878 -275 OFFCURVE",
"848 -286 OFFCURVE",
"799 -286 CURVE SMOOTH",
"762 -286 OFFCURVE",
"719 -253 OFFCURVE",
"719 -205 CURVE SMOOTH",
"719 -143 OFFCURVE",
"788 -75 OFFCURVE",
"883 -5 CURVE"
);
},
{
closed = 1;
nodes = (
"1149 1275 OFFCURVE",
"1305 1027 OFFCURVE",
"1305 697 CURVE SMOOTH",
"1305 379 OFFCURVE",
"1155 120 OFFCURVE",
"831 120 CURVE SMOOTH",
"507 120 OFFCURVE",
"356 379 OFFCURVE",
"356 697 CURVE SMOOTH",
"356 1028 OFFCURVE",
"515 1275 OFFCURVE",
"832 1275 CURVE SMOOTH"
);
},
{
closed = 1;
nodes = (
"527 1703 LINE",
"527 1576 LINE",
"1135 1576 LINE",
"1135 1703 LINE"
);
}
);
width = 1661;
}
);
unicode = 01EC;
},
{
glyphname = uni01F1;
lastChange = "2012-12-20 03:58:12 -0800";
layers = (
{
layerId = "44E8B56B-104B-45A6-8718-400D756F8F39";
name = Regular;
paths = (
{
closed = 1;
nodes = (
"214 1390 LINE",
"214 0 LINE",
"622 0 LINE SMOOTH",
"1070 0 OFFCURVE",
"1343 253 OFFCURVE",
"1343 698 CURVE SMOOTH",
"1343 1166 OFFCURVE",
"1044 1390 OFFCURVE",
"594 1390 CURVE SMOOTH"
);
},
{
closed = 1;
nodes = (
"955 1252 OFFCURVE",
"1165 1082 OFFCURVE",
"1165 694 CURVE SMOOTH",
"1165 340 OFFCURVE",
"975 137 OFFCURVE",
"617 137 CURVE SMOOTH",
"392 137 LINE",
"392 1252 LINE",
"590 1252 LINE SMOOTH"
);
},
{
closed = 1;
nodes = (
"1662 1390 LINE",
"1662 1252 LINE",
"2369 1252 LINE",
"1635 124 LINE",
"1635 0 LINE",
"2575 0 LINE",
"2581 138 LINE",
"1836 138 LINE",
"2574 1272 LINE",
"2574 1390 LINE"
);
}
);
width = 2714;
}
);
leftKerningGroup = H_Right;
unicode = 01F1;
},
{
glyphname = uni01F2;
lastChange = "2012-12-20 03:58:12 -0800";
layers = (
{
layerId = "44E8B56B-104B-45A6-8718-400D756F8F39";
name = Regular;
paths = (
{
closed = 1;
nodes = (
"214 1390 LINE",
"214 0 LINE",
"622 0 LINE SMOOTH",
"1070 0 OFFCURVE",
"1343 253 OFFCURVE",
"1343 698 CURVE SMOOTH",
"1343 1166 OFFCURVE",
"1044 1390 OFFCURVE",
"594 1390 CURVE SMOOTH"
);
},
{
closed = 1;
nodes = (
"955 1252 OFFCURVE",
"1165 1082 OFFCURVE",
"1165 694 CURVE SMOOTH",
"1165 340 OFFCURVE",
"975 137 OFFCURVE",
"617 137 CURVE SMOOTH",
"392 137 LINE",
"392 1252 LINE",
"590 1252 LINE SMOOTH"
);
},
{
closed = 1;
nodes = (
"1617 998 LINE",
"1617 878 LINE",
"2107 878 LINE",
"1596 117 LINE",
"1596 0 LINE",
"2294 0 LINE",
"2294 120 LINE",
"1775 120 LINE",
"2277 873 LINE",
"2277 998 LINE"
);
}
);
width = 2390;
}
);
unicode = 01F2;
},
{
glyphname = uni01F4;
lastChange = "2012-12-20 03:58:12 -0800";
layers = (
{
layerId = "44E8B56B-104B-45A6-8718-400D756F8F39";
name = Regular;
paths = (
{
closed = 1;
nodes = (
"393 1413 OFFCURVE",
"177 1098 OFFCURVE",
"177 692 CURVE SMOOTH",
"177 291 OFFCURVE",
"382 -18 OFFCURVE",
"842 -18 CURVE SMOOTH",
"1030 -18 OFFCURVE",
"1204 4 OFFCURVE",
"1347 59 CURVE",
"1347 716 LINE",
"848 716 LINE",
"840 579 LINE",
"1169 579 LINE",
"1169 147 LINE",
"1111 131 OFFCURVE",
"957 120 OFFCURVE",
"852 120 CURVE SMOOTH",
"502 120 OFFCURVE",
"355 361 OFFCURVE",
"355 692 CURVE SMOOTH",
"355 1011 OFFCURVE",
"499 1275 OFFCURVE",
"874 1275 CURVE SMOOTH",
"1095 1275 OFFCURVE",
"1222 1208 OFFCURVE",
"1266 1185 CURVE",
"1316 1307 LINE",
"1203 1380 OFFCURVE",
"1035 1413 OFFCURVE",
"874 1413 CURVE SMOOTH"
);
},
{
closed = 1;
nodes = (
"880 1929 LINE",
"710 1576 LINE",
"814 1576 LINE",
"1110 1929 LINE"
);
}
);
width = 1516;
}
);
leftKerningGroup = O_Right;
unicode = 01F4;
},
{
glyphname = uni01F8;
lastChange = "2012-12-20 03:58:12 -0800";
layers = (
{
layerId = "44E8B56B-104B-45A6-8718-400D756F8F39";
name = Regular;
paths = (
{
closed = 1;
nodes = (
"1187 1390 LINE",
"1187 555 LINE",
"1192 208 LINE",
"393 1390 LINE",
"214 1390 LINE",
"214 0 LINE",
"370 0 LINE",
"370 830 LINE",
"365 1181 LINE",
"1160 0 LINE",
"1343 0 LINE",
"1343 1390 LINE"
);
},
{
closed = 1;
nodes = (
"434 1929 LINE",
"728 1576 LINE",
"830 1576 LINE",
"662 1929 LINE"
);
}
);
width = 1557;
}
);
unicode = 01F8;
},
{
glyphname = uni0200;
lastChange = "2012-12-20 03:58:12 -0800";
layers = (
{
layerId = "44E8B56B-104B-45A6-8718-400D756F8F39";
name = Regular;
paths = (
{
closed = 1;
nodes = (
"589 1390 LINE",
"85 0 LINE",
"263 0 LINE",
"423 430 LINE",
"967 430 LINE",
"1126 0 LINE",
"1294 0 LINE",
"791 1390 LINE"
);
},
{
closed = 1;
nodes = (
"918 561 LINE",
"474 561 LINE",
"689 1223 LINE"
);
},
{
closed = 1;
nodes = (
"294 1881 LINE",
"521 1576 LINE",
"614 1576 LINE",
"430 1881 LINE"
);
},
{
closed = 1;
nodes = (
"540 1881 LINE",
"765 1576 LINE",
"858 1576 LINE",
"678 1881 LINE"
);
}
);
width = 1379;
}
);
leftKerningGroup = A_Right;
rightKerningGroup = A_Left;
unicode = 0200;
},
{
glyphname = uni0202;
lastChange = "2012-12-20 03:58:12 -0800";
layers = (
{
layerId = "44E8B56B-104B-45A6-8718-400D756F8F39";
name = Regular;
paths = (
{
closed = 1;
nodes = (
"589 1390 LINE",
"85 0 LINE",
"263 0 LINE",
"423 430 LINE",
"967 430 LINE",
"1126 0 LINE",
"1294 0 LINE",
"791 1390 LINE"
);
},
{
closed = 1;
nodes = (
"918 561 LINE",
"474 561 LINE",
"689 1223 LINE"
);
},
{
closed = 1;
nodes = (
"576 1811 OFFCURVE",
"462 1733 OFFCURVE",
"462 1576 CURVE",
"567 1576 LINE",
"567 1663 OFFCURVE",
"622 1704 OFFCURVE",
"688 1704 CURVE SMOOTH",
"754 1704 OFFCURVE",
"812 1663 OFFCURVE",
"812 1576 CURVE",
"918 1576 LINE",
"918 1733 OFFCURVE",
"801 1811 OFFCURVE",
"688 1811 CURVE SMOOTH"
);
}
);
width = 1379;
}
);
leftKerningGroup = A_Right;
rightKerningGroup = A_Left;
unicode = 0202;
},
{
glyphname = uni0204;
lastChange = "2012-12-20 03:58:12 -0800";
layers = (
{
layerId = "44E8B56B-104B-45A6-8718-400D756F8F39";
name = Regular;
paths = (
{
closed = 1;
nodes = (
"214 1390 LINE",
"214 0 LINE",
"1050 0 LINE",
"1058 139 LINE",
"392 139 LINE",
"392 653 LINE",
"982 653 LINE",
"982 790 LINE",
"392 790 LINE",
"392 1251 LINE",
"1030 1251 LINE",
"1037 1390 LINE"
);
},
{
closed = 1;
nodes = (
"241 1881 LINE",
"468 1576 LINE",
"561 1576 LINE",
"377 1881 LINE"
);
},
{
closed = 1;
nodes = (
"487 1881 LINE",
"712 1576 LINE",
"805 1576 LINE",
"625 1881 LINE"
);
}
);
width = 1192;
}
);
leftKerningGroup = H_Right;
unicode = 0204;
},
{
glyphname = uni0206;
lastChange = "2012-12-20 03:58:12 -0800";
layers = (
{
layerId = "44E8B56B-104B-45A6-8718-400D756F8F39";
name = Regular;
paths = (
{
closed = 1;
nodes = (
"214 1390 LINE",
"214 0 LINE",
"1050 0 LINE",
"1058 139 LINE",
"392 139 LINE",
"392 653 LINE",
"982 653 LINE",
"982 790 LINE",
"392 790 LINE",
"392 1251 LINE",
"1030 1251 LINE",
"1037 1390 LINE"
);
},
{
closed = 1;
nodes = (
"522 1811 OFFCURVE",
"408 1733 OFFCURVE",
"408 1576 CURVE",
"513 1576 LINE",
"513 1663 OFFCURVE",
"568 1704 OFFCURVE",
"634 1704 CURVE SMOOTH",
"700 1704 OFFCURVE",
"758 1663 OFFCURVE",
"758 1576 CURVE",
"864 1576 LINE",
"864 1733 OFFCURVE",
"747 1811 OFFCURVE",
"634 1811 CURVE SMOOTH"
);
}
);
width = 1192;
}
);
leftKerningGroup = H_Right;
unicode = 0206;
},
{
glyphname = uni0208;
lastChange = "2012-12-20 03:58:12 -0800";
layers = (
{
layerId = "44E8B56B-104B-45A6-8718-400D756F8F39";
name = Regular;
paths = (
{
closed = 1;
nodes = (
"214 1390 LINE",
"214 0 LINE",
"393 0 LINE",
"393 1390 LINE"
);
},
{
closed = 1;
nodes = (
"-92 1881 LINE",
"135 1576 LINE",
"228 1576 LINE",
"44 1881 LINE"
);
},
{
closed = 1;
nodes = (
"154 1881 LINE",
"379 1576 LINE",
"472 1576 LINE",
"292 1881 LINE"
);
}
);
width = 607;
}
);
unicode = 0208;
},
{
glyphname = uni020A;
lastChange = "2012-12-20 03:58:12 -0800";
layers = (
{
layerId = "44E8B56B-104B-45A6-8718-400D756F8F39";
name = Regular;
paths = (
{
closed = 1;
nodes = (
"214 1390 LINE",
"214 0 LINE",
"393 0 LINE",
"393 1390 LINE"
);
},
{
closed = 1;
nodes = (
"190 1811 OFFCURVE",
"76 1733 OFFCURVE",
"76 1576 CURVE",
"181 1576 LINE",
"181 1663 OFFCURVE",
"236 1704 OFFCURVE",
"302 1704 CURVE SMOOTH",
"368 1704 OFFCURVE",
"426 1663 OFFCURVE",
"426 1576 CURVE",
"532 1576 LINE",
"532 1733 OFFCURVE",
"415 1811 OFFCURVE",
"302 1811 CURVE SMOOTH"
);
}
);
width = 607;
}
);
unicode = 020A;
},
{
glyphname = uni020C;
lastChange = "2012-12-20 03:58:12 -0800";
layers = (
{
layerId = "44E8B56B-104B-45A6-8718-400D756F8F39";
name = Regular;
paths = (
{
closed = 1;
nodes = (
"416 1413 OFFCURVE",
"177 1125 OFFCURVE",
"177 698 CURVE SMOOTH",
"177 281 OFFCURVE",
"408 -18 OFFCURVE",
"831 -18 CURVE SMOOTH",
"1249 -18 OFFCURVE",
"1484 287 OFFCURVE",
"1484 697 CURVE SMOOTH",
"1484 1122 OFFCURVE",
"1241 1413 OFFCURVE",
"832 1413 CURVE SMOOTH"
);
},
{
closed = 1;
nodes = (
"1149 1275 OFFCURVE",
"1305 1027 OFFCURVE",
"1305 697 CURVE SMOOTH",
"1305 379 OFFCURVE",
"1155 120 OFFCURVE",
"831 120 CURVE SMOOTH",
"507 120 OFFCURVE",
"356 379 OFFCURVE",
"356 697 CURVE SMOOTH",
"356 1028 OFFCURVE",
"515 1275 OFFCURVE",
"832 1275 CURVE SMOOTH"
);
},
{
closed = 1;
nodes = (
"435 1881 LINE",
"662 1576 LINE",
"755 1576 LINE",
"571 1881 LINE"
);
},
{
closed = 1;
nodes = (
"681 1881 LINE",
"906 1576 LINE",
"999 1576 LINE",
"819 1881 LINE"
);
}
);
width = 1661;
}
);
leftKerningGroup = O_Right;
rightKerningGroup = O_Left;
unicode = 020C;
},
{
glyphname = uni020E;
lastChange = "2012-12-20 03:58:12 -0800";
layers = (
{
layerId = "44E8B56B-104B-45A6-8718-400D756F8F39";
name = Regular;
paths = (
{
closed = 1;
nodes = (
"416 1413 OFFCURVE",
"177 1125 OFFCURVE",
"177 698 CURVE SMOOTH",
"177 281 OFFCURVE",
"408 -18 OFFCURVE",
"831 -18 CURVE SMOOTH",
"1249 -18 OFFCURVE",
"1484 287 OFFCURVE",
"1484 697 CURVE SMOOTH",
"1484 1122 OFFCURVE",
"1241 1413 OFFCURVE",
"832 1413 CURVE SMOOTH"
);
},
{
closed = 1;
nodes = (
"1149 1275 OFFCURVE",
"1305 1027 OFFCURVE",
"1305 697 CURVE SMOOTH",
"1305 379 OFFCURVE",
"1155 120 OFFCURVE",
"831 120 CURVE SMOOTH",
"507 120 OFFCURVE",
"356 379 OFFCURVE",
"356 697 CURVE SMOOTH",
"356 1028 OFFCURVE",
"515 1275 OFFCURVE",
"832 1275 CURVE SMOOTH"
);
},
{
closed = 1;
nodes = (
"717 1811 OFFCURVE",
"603 1733 OFFCURVE",
"603 1576 CURVE",
"708 1576 LINE",
"708 1663 OFFCURVE",
"763 1704 OFFCURVE",
"829 1704 CURVE SMOOTH",
"895 1704 OFFCURVE",
"953 1663 OFFCURVE",
"953 1576 CURVE",
"1059 1576 LINE",
"1059 1733 OFFCURVE",
"942 1811 OFFCURVE",
"829 1811 CURVE SMOOTH"
);
}
);
width = 1661;
}
);
leftKerningGroup = O_Right;
rightKerningGroup = O_Left;
unicode = 020E;
},
{
glyphname = uni0210;
lastChange = "2012-12-20 03:58:12 -0800";
layers = (
{
layerId = "44E8B56B-104B-45A6-8718-400D756F8F39";
name = Regular;
paths = (
{
closed = 1;
nodes = (
"214 1390 LINE",
"214 0 LINE",
"393 0 LINE",
"393 661 LINE",
"668 659 LINE SMOOTH",
"700 659 OFFCURVE",
"802 662 OFFCURVE",
"829 664 CURVE",
"858 618 OFFCURVE",
"891 544 OFFCURVE",
"927 464 CURVE SMOOTH",
"1112 0 LINE",
"1298 0 LINE",
"1078 517 LINE SMOOTH",
"1046 585 OFFCURVE",
"989 695 OFFCURVE",
"989 700 CURVE",
"1185 755 OFFCURVE",
"1234 872 OFFCURVE",
"1234 1040 CURVE SMOOTH",
"1234 1323 OFFCURVE",
"1047 1390 OFFCURVE",
"717 1390 CURVE SMOOTH"
);
},
{
closed = 1;
nodes = (
"987 1252 OFFCURVE",
"1057 1180 OFFCURVE",
"1057 1038 CURVE SMOOTH",
"1057 878 OFFCURVE",
"997 799 OFFCURVE",
"752 799 CURVE SMOOTH",
"393 799 LINE",
"393 1252 LINE",
"744 1252 LINE SMOOTH"
);
},
{
closed = 1;
nodes = (
"361 1881 LINE",
"588 1576 LINE",
"681 1576 LINE",
"497 1881 LINE"
);
},
{
closed = 1;
nodes = (
"607 1881 LINE",
"832 1576 LINE",
"925 1576 LINE",
"745 1881 LINE"
);
}
);
width = 1416;
}
);
leftKerningGroup = H_Right;
rightKerningGroup = R_Left;
unicode = 0210;
},
{
glyphname = uni0212;
lastChange = "2012-12-20 03:58:12 -0800";
layers = (
{
layerId = "44E8B56B-104B-45A6-8718-400D756F8F39";
name = Regular;
paths = (
{
closed = 1;
nodes = (
"214 1390 LINE",
"214 0 LINE",
"393 0 LINE",
"393 661 LINE",
"668 659 LINE SMOOTH",
"700 659 OFFCURVE",
"802 662 OFFCURVE",
"829 664 CURVE",
"858 618 OFFCURVE",
"891 544 OFFCURVE",
"927 464 CURVE SMOOTH",
"1112 0 LINE",
"1298 0 LINE",
"1078 517 LINE SMOOTH",
"1046 585 OFFCURVE",
"989 695 OFFCURVE",
"989 700 CURVE",
"1185 755 OFFCURVE",
"1234 872 OFFCURVE",
"1234 1040 CURVE SMOOTH",
"1234 1323 OFFCURVE",
"1047 1390 OFFCURVE",
"717 1390 CURVE SMOOTH"
);
},
{
closed = 1;
nodes = (
"987 1252 OFFCURVE",
"1057 1180 OFFCURVE",
"1057 1038 CURVE SMOOTH",
"1057 878 OFFCURVE",
"997 799 OFFCURVE",
"752 799 CURVE SMOOTH",
"393 799 LINE",
"393 1252 LINE",
"744 1252 LINE SMOOTH"
);
},
{
closed = 1;
nodes = (
"642 1811 OFFCURVE",
"528 1733 OFFCURVE",
"528 1576 CURVE",
"633 1576 LINE",
"633 1663 OFFCURVE",
"688 1704 OFFCURVE",
"754 1704 CURVE SMOOTH",
"820 1704 OFFCURVE",
"878 1663 OFFCURVE",
"878 1576 CURVE",
"984 1576 LINE",
"984 1733 OFFCURVE",
"867 1811 OFFCURVE",
"754 1811 CURVE SMOOTH"
);
}
);
width = 1416;
}
);
leftKerningGroup = H_Right;
rightKerningGroup = R_Left;
unicode = 0212;
},
{
glyphname = uni0214;
lastChange = "2012-12-20 03:58:12 -0800";
layers = (
{
layerId = "44E8B56B-104B-45A6-8718-400D756F8F39";
name = Regular;
paths = (
{
closed = 1;
nodes = (
"1055 1390 LINE",
"1055 492 LINE SMOOTH",
"1055 248 OFFCURVE",
"940 120 OFFCURVE",
"700 120 CURVE SMOOTH",
"454 120 OFFCURVE",
"346 248 OFFCURVE",
"346 492 CURVE SMOOTH",
"346 1390 LINE",
"169 1390 LINE",
"169 495 LINE SMOOTH",
"169 196 OFFCURVE",
"335 -18 OFFCURVE",
"700 -18 CURVE SMOOTH",
"1065 -18 OFFCURVE",
"1232 195 OFFCURVE",
"1232 493 CURVE SMOOTH",
"1232 1390 LINE"
);
},
{
closed = 1;
nodes = (
"305 1881 LINE",
"532 1576 LINE",
"625 1576 LINE",
"441 1881 LINE"
);
},
{
closed = 1;
nodes = (
"551 1881 LINE",
"776 1576 LINE",
"869 1576 LINE",
"689 1881 LINE"
);
}
);
width = 1401;
}
);
leftKerningGroup = U_Right;
rightKerningGroup = U_Left;
unicode = 0214;
},
{
glyphname = uni0216;
lastChange = "2012-12-20 03:58:12 -0800";
layers = (
{
layerId = "44E8B56B-104B-45A6-8718-400D756F8F39";
name = Regular;
paths = (
{
closed = 1;
nodes = (
"1055 1390 LINE",
"1055 492 LINE SMOOTH",
"1055 248 OFFCURVE",
"940 120 OFFCURVE",
"700 120 CURVE SMOOTH",
"454 120 OFFCURVE",
"346 248 OFFCURVE",
"346 492 CURVE SMOOTH",
"346 1390 LINE",
"169 1390 LINE",
"169 495 LINE SMOOTH",
"169 196 OFFCURVE",
"335 -18 OFFCURVE",
"700 -18 CURVE SMOOTH",
"1065 -18 OFFCURVE",
"1232 195 OFFCURVE",
"1232 493 CURVE SMOOTH",
"1232 1390 LINE"
);
},
{
closed = 1;
nodes = (
"587 1811 OFFCURVE",
"473 1733 OFFCURVE",
"473 1576 CURVE",
"578 1576 LINE",
"578 1663 OFFCURVE",
"633 1704 OFFCURVE",
"699 1704 CURVE SMOOTH",
"765 1704 OFFCURVE",
"823 1663 OFFCURVE",
"823 1576 CURVE",
"929 1576 LINE",
"929 1733 OFFCURVE",
"812 1811 OFFCURVE",
"699 1811 CURVE SMOOTH"
);
}
);
width = 1401;
}
);
leftKerningGroup = U_Right;
rightKerningGroup = U_Left;
unicode = 0216;
},
{
glyphname = uni021A;
lastChange = "2012-12-20 03:58:12 -0800";
layers = (
{
layerId = "44E8B56B-104B-45A6-8718-400D756F8F39";
name = Regular;
paths = (
{
closed = 1;
nodes = (
"75 1390 LINE",
"75 1251 LINE",
"490 1251 LINE",
"490 0 LINE",
"669 0 LINE",
"669 1251 LINE",
"1085 1251 LINE",
"1085 1390 LINE"
);
},
{
closed = 1;
nodes = (
"548 -163 LINE",
"462 -617 LINE",
"569 -617 LINE",
"699 -163 LINE"
);
}
);
width = 1160;
}
);
leftKerningGroup = T_Right;
rightKerningGroup = T_Left;
unicode = 021A;
},
{
glyphname = uni021E;
lastChange = "2012-12-20 03:58:12 -0800";
layers = (
{
layerId = "44E8B56B-104B-45A6-8718-400D756F8F39";
name = Regular;
paths = (
{
closed = 1;
nodes = (
"1115 1390 LINE",
"1115 766 LINE",
"392 766 LINE",
"392 1390 LINE",
"214 1390 LINE",
"214 0 LINE",
"392 0 LINE",
"392 634 LINE",
"1115 634 LINE",
"1115 0 LINE",
"1293 0 LINE",
"1293 1390 LINE"
);
},
{
closed = 1;
nodes = (
"900 1929 LINE",
"753 1646 LINE",
"606 1929 LINE",
"487 1929 LINE",
"657 1576 LINE",
"851 1576 LINE",
"1021 1929 LINE"
);
}
);
width = 1507;
}
);
unicode = 021E;
},
{
glyphname = uni0226;
lastChange = "2012-12-20 03:58:12 -0800";
layers = (
{
layerId = "44E8B56B-104B-45A6-8718-400D756F8F39";
name = Regular;
paths = (
{
closed = 1;
nodes = (
"589 1390 LINE",
"85 0 LINE",
"263 0 LINE",
"423 430 LINE",
"967 430 LINE",
"1126 0 LINE",
"1294 0 LINE",
"791 1390 LINE"
);
},
{
closed = 1;
nodes = (
"918 561 LINE",
"474 561 LINE",
"689 1223 LINE"
);
},
{
closed = 1;
nodes = (
"613 1756 LINE",
"613 1576 LINE",
"766 1576 LINE",
"766 1756 LINE"
);
}
);
width = 1379;
}
);
unicode = 0226;
},
{
glyphname = uni0228;
lastChange = "2012-12-20 03:58:12 -0800";
layers = (
{
layerId = "44E8B56B-104B-45A6-8718-400D756F8F39";
name = Regular;
paths = (
{
closed = 1;
nodes = (
"214 1390 LINE",
"214 0 LINE",
"1050 0 LINE",
"1058 139 LINE",
"392 139 LINE",
"392 653 LINE",
"982 653 LINE",
"982 790 LINE",
"392 790 LINE",
"392 1251 LINE",
"1030 1251 LINE",
"1037 1390 LINE"
);
},
{
closed = 1;
nodes = (
"597 13 LINE",
"495 -375 LINE",
"635 -375 LINE",
"675 13 LINE"
);
}
);
width = 1192;
}
);
unicode = 0228;
},
{
glyphname = uni022A;
lastChange = "2012-12-20 03:58:12 -0800";
layers = (
{
layerId = "44E8B56B-104B-45A6-8718-400D756F8F39";
name = Regular;
paths = (
{
closed = 1;
nodes = (
"416 1413 OFFCURVE",
"177 1125 OFFCURVE",
"177 698 CURVE SMOOTH",
"177 281 OFFCURVE",
"408 -18 OFFCURVE",
"831 -18 CURVE SMOOTH",
"1249 -18 OFFCURVE",
"1484 287 OFFCURVE",
"1484 697 CURVE SMOOTH",
"1484 1122 OFFCURVE",
"1241 1413 OFFCURVE",
"832 1413 CURVE SMOOTH"
);
},
{
closed = 1;
nodes = (
"1149 1275 OFFCURVE",
"1305 1027 OFFCURVE",
"1305 697 CURVE SMOOTH",
"1305 379 OFFCURVE",
"1155 120 OFFCURVE",
"831 120 CURVE SMOOTH",
"507 120 OFFCURVE",
"356 379 OFFCURVE",
"356 697 CURVE SMOOTH",
"356 1028 OFFCURVE",
"515 1275 OFFCURVE",
"832 1275 CURVE SMOOTH"
);
},
{
closed = 1;
nodes = (
"583 1769 LINE",
"583 1576 LINE",
"724 1576 LINE",
"724 1769 LINE"
);
},
{
closed = 1;
nodes = (
"938 1769 LINE",
"938 1576 LINE",
"1079 1576 LINE",
"1079 1769 LINE"
);
},
{
closed = 1;
nodes = (
"527 2059 LINE",
"527 1932 LINE",
"1135 1932 LINE",
"1135 2059 LINE"
);
}
);
width = 1661;
}
);
unicode = 022A;
},
{
glyphname = uni0230;
lastChange = "2012-12-20 03:58:12 -0800";
layers = (
{
layerId = "44E8B56B-104B-45A6-8718-400D756F8F39";
name = Regular;
paths = (
{
closed = 1;
nodes = (
"416 1413 OFFCURVE",
"177 1125 OFFCURVE",
"177 698 CURVE SMOOTH",
"177 281 OFFCURVE",
"408 -18 OFFCURVE",
"831 -18 CURVE SMOOTH",
"1249 -18 OFFCURVE",
"1484 287 OFFCURVE",
"1484 697 CURVE SMOOTH",
"1484 1122 OFFCURVE",
"1241 1413 OFFCURVE",
"832 1413 CURVE SMOOTH"
);
},
{
closed = 1;
nodes = (
"1149 1275 OFFCURVE",
"1305 1027 OFFCURVE",
"1305 697 CURVE SMOOTH",
"1305 379 OFFCURVE",
"1155 120 OFFCURVE",
"831 120 CURVE SMOOTH",
"507 120 OFFCURVE",
"356 379 OFFCURVE",
"356 697 CURVE SMOOTH",
"356 1028 OFFCURVE",
"515 1275 OFFCURVE",
"832 1275 CURVE SMOOTH"
);
},
{
closed = 1;
nodes = (
"754 1756 LINE",
"754 1576 LINE",
"907 1576 LINE",
"907 1756 LINE"
);
},
{
closed = 1;
nodes = (
"527 2046 LINE",
"527 1919 LINE",
"1135 1919 LINE",
"1135 2046 LINE"
);
}
);
width = 1661;
}
);
unicode = 0230;
},
{
glyphname = uni0232;
lastChange = "2012-12-20 03:58:12 -0800";
layers = (
{
layerId = "44E8B56B-104B-45A6-8718-400D756F8F39";
name = Regular;
paths = (
{
closed = 1;
nodes = (
"1055 1390 LINE",
"668 723 LINE",
"254 1390 LINE",
"76 1390 LINE",
"580 573 LINE",
"580 0 LINE",
"758 0 LINE",
"758 577 LINE",
"1233 1390 LINE"
);
},
{
closed = 1;
nodes = (
"351 1703 LINE",
"351 1576 LINE",
"959 1576 LINE",
"959 1703 LINE"
);
}
);
width = 1309;
}
);
unicode = 0232;
},
{
glyphname = uni1E02;
lastChange = "2012-12-20 03:58:27 -0800";
layers = (
{
layerId = "44E8B56B-104B-45A6-8718-400D756F8F39";
name = Regular;
paths = (
{
closed = 1;
nodes = (
"178 1390 LINE",
"178 0 LINE",
"657 0 LINE SMOOTH",
"984 0 OFFCURVE",
"1142 175 OFFCURVE",
"1142 413 CURVE SMOOTH",
"1142 574 OFFCURVE",
"1052 708 OFFCURVE",
"861 743 CURVE",
"1074 809 OFFCURVE",
"1091 989 OFFCURVE",
"1091 1055 CURVE SMOOTH",
"1091 1289 OFFCURVE",
"919 1390 OFFCURVE",
"571 1390 CURVE SMOOTH"
);
},
{
closed = 1;
nodes = (
"842 671 OFFCURVE",
"974 611 OFFCURVE",
"974 419 CURVE SMOOTH",
"974 239 OFFCURVE",
"856 129 OFFCURVE",
"625 129 CURVE SMOOTH",
"339 129 LINE",
"339 671 LINE",
"587 671 LINE SMOOTH"
);
},
{
closed = 1;
nodes = (
"795 1257 OFFCURVE",
"923 1208 OFFCURVE",
"923 1031 CURVE SMOOTH",
"923 854 OFFCURVE",
"809 797 OFFCURVE",
"632 797 CURVE SMOOTH",
"339 797 LINE",
"339 1257 LINE",
"563 1257 LINE SMOOTH"
);
},
{
closed = 1;
nodes = (
"566 1715 LINE",
"566 1535 LINE",
"736 1535 LINE",
"736 1715 LINE"
);
}
);
width = 1235;
}
);
unicode = 1E02;
},
{
glyphname = uni1E0A;
lastChange = "2012-12-20 03:58:12 -0800";
layers = (
{
layerId = "44E8B56B-104B-45A6-8718-400D756F8F39";
name = Regular;
paths = (
{
closed = 1;
nodes = (
"178 1390 LINE",
"178 0 LINE",
"586 0 LINE SMOOTH",
"1034 0 OFFCURVE",
"1307 253 OFFCURVE",
"1307 698 CURVE SMOOTH",
"1307 1166 OFFCURVE",
"1008 1390 OFFCURVE",
"558 1390 CURVE SMOOTH"
);
},
{
closed = 1;
nodes = (
"919 1252 OFFCURVE",
"1129 1082 OFFCURVE",
"1129 694 CURVE SMOOTH",
"1129 340 OFFCURVE",
"939 137 OFFCURVE",
"581 137 CURVE SMOOTH",
"356 137 LINE",
"356 1252 LINE",
"554 1252 LINE SMOOTH"
);
},
{
closed = 1;
nodes = (
"666 1756 LINE",
"666 1576 LINE",
"819 1576 LINE",
"819 1756 LINE"
);
}
);
width = 1410;
}
);
unicode = 1E0A;
},
{
glyphname = uni1E1E;
lastChange = "2012-12-20 03:58:12 -0800";
layers = (
{
layerId = "44E8B56B-104B-45A6-8718-400D756F8F39";
name = Regular;
paths = (
{
closed = 1;
nodes = (
"178 1390 LINE",
"178 0 LINE",
"357 0 LINE",
"357 657 LINE",
"891 657 LINE",
"891 790 LINE",
"357 790 LINE",
"357 1251 LINE",
"946 1251 LINE",
"957 1390 LINE"
);
},
{
closed = 1;
nodes = (
"491 1756 LINE",
"491 1576 LINE",
"644 1576 LINE",
"644 1756 LINE"
);
}
);
width = 1027;
}
);
unicode = 1E1E;
},
{
glyphname = uni1E40;
lastChange = "2012-12-20 03:58:12 -0800";
layers = (
{
layerId = "44E8B56B-104B-45A6-8718-400D756F8F39";
name = Regular;
paths = (
{
closed = 1;
nodes = (
"1278 1390 LINE",
"832 305 LINE",
"391 1390 LINE",
"178 1390 LINE",
"178 0 LINE",
"333 0 LINE",
"333 839 LINE",
"322 1167 LINE",
"753 108 LINE",
"911 108 LINE",
"1337 1163 LINE",
"1330 843 LINE",
"1330 0 LINE",
"1485 0 LINE",
"1485 1390 LINE"
);
},
{
closed = 1;
nodes = (
"755 1756 LINE",
"755 1576 LINE",
"908 1576 LINE",
"908 1756 LINE"
);
}
);
width = 1663;
}
);
unicode = 1E40;
},
{
glyphname = uni1E56;
lastChange = "2012-12-20 03:58:12 -0800";
layers = (
{
layerId = "44E8B56B-104B-45A6-8718-400D756F8F39";
name = Regular;
paths = (
{
closed = 1;
nodes = (
"178 1390 LINE",
"178 0 LINE",
"357 0 LINE",
"357 616 LINE",
"427 612 OFFCURVE",
"534 613 OFFCURVE",
"607 613 CURVE SMOOTH",
"951 613 OFFCURVE",
"1086 770 OFFCURVE",
"1086 1023 CURVE SMOOTH",
"1086 1268 OFFCURVE",
"891 1390 OFFCURVE",
"628 1390 CURVE SMOOTH"
);
},
{
closed = 1;
nodes = (
"795 1253 OFFCURVE",
"907 1182 OFFCURVE",
"907 1020 CURVE SMOOTH",
"907 840 OFFCURVE",
"839 744 OFFCURVE",
"615 744 CURVE SMOOTH",
"552 744 OFFCURVE",
"357 746 OFFCURVE",
"357 746 CURVE",
"357 1253 LINE",
"624 1253 LINE SMOOTH"
);
},
{
closed = 1;
nodes = (
"556 1756 LINE",
"556 1576 LINE",
"708 1576 LINE",
"708 1756 LINE"
);
}
);
width = 1166;
}
);
unicode = 1E56;
},
{
glyphname = uni1E60;
lastChange = "2012-12-20 03:58:12 -0800";
layers = (
{
layerId = "44E8B56B-104B-45A6-8718-400D756F8F39";
name = Regular;
paths = (
{
closed = 1;
nodes = (
"360 1413 OFFCURVE",
"142 1316 OFFCURVE",
"142 1051 CURVE SMOOTH",
"142 871 OFFCURVE",
"258 760 OFFCURVE",
"434 704 CURVE SMOOTH",
"663 624 LINE SMOOTH",
"831 565 OFFCURVE",
"906 492 OFFCURVE",
"906 369 CURVE SMOOTH",
"906 204 OFFCURVE",
"786 120 OFFCURVE",
"606 120 CURVE SMOOTH",
"440 120 OFFCURVE",
"307 172 OFFCURVE",
"195 238 CURVE",
"140 110 LINE",
"219 59 OFFCURVE",
"380 -18 OFFCURVE",
"606 -18 CURVE SMOOTH",
"867 -18 OFFCURVE",
"1061 105 OFFCURVE",
"1061 376 CURVE SMOOTH",
"1061 612 OFFCURVE",
"905 711 OFFCURVE",
"708 772 CURVE SMOOTH",
"491 848 LINE SMOOTH",
"368 886 OFFCURVE",
"301 956 OFFCURVE",
"301 1062 CURVE SMOOTH",
"301 1215 OFFCURVE",
"451 1275 OFFCURVE",
"623 1275 CURVE SMOOTH",
"764 1275 OFFCURVE",
"887 1212 OFFCURVE",
"951 1173 CURVE",
"1006 1298 LINE",
"918 1356 OFFCURVE",
"776 1413 OFFCURVE",
"617 1413 CURVE SMOOTH"
);
},
{
closed = 1;
nodes = (
"524 1756 LINE",
"524 1576 LINE",
"677 1576 LINE",
"677 1756 LINE"
);
}
);
width = 1229;
}
);
unicode = 1E60;
},
{
glyphname = uni1E6A;
lastChange = "2012-12-20 03:58:12 -0800";
layers = (
{
layerId = "44E8B56B-104B-45A6-8718-400D756F8F39";
name = Regular;
paths = (
{
closed = 1;
nodes = (
"39 1390 LINE",
"39 1251 LINE",
"454 1251 LINE",
"454 0 LINE",
"633 0 LINE",
"633 1251 LINE",
"1049 1251 LINE",
"1049 1390 LINE"
);
},
{
closed = 1;
nodes = (
"468 1756 LINE",
"468 1576 LINE",
"620 1576 LINE",
"620 1756 LINE"
);
}
);
width = 1088;
}
);
unicode = 1E6A;
},
{
glyphname = uni1EBC;
lastChange = "2012-12-20 03:58:12 -0800";
layers = (
{
layerId = "44E8B56B-104B-45A6-8718-400D756F8F39";
name = Regular;
paths = (
{
closed = 1;
nodes = (
"178 1390 LINE",
"178 0 LINE",
"988 0 LINE",
"996 139 LINE",
"356 139 LINE",
"356 662 LINE",
"936 662 LINE",
"936 799 LINE",
"356 799 LINE",
"356 1251 LINE",
"989 1251 LINE",
"996 1390 LINE"
);
},
{
closed = 1;
nodes = (
"770 1775 LINE",
"767 1737 OFFCURVE",
"764 1693 OFFCURVE",
"728 1690 CURVE",
"728 1690 OFFCURVE",
"573 1775 OFFCURVE",
"460 1775 CURVE SMOOTH",
"363 1775 OFFCURVE",
"304 1712 OFFCURVE",
"304 1576 CURVE",
"400 1576 LINE",
"403 1626 OFFCURVE",
"420 1663 OFFCURVE",
"450 1664 CURVE",
"450 1664 OFFCURVE",
"652 1576 OFFCURVE",
"734 1576 CURVE SMOOTH",
"830 1576 OFFCURVE",
"870 1650 OFFCURVE",
"870 1775 CURVE"
);
}
);
width = 1114;
}
);
unicode = 1EBC;
},
{
glyphname = uni1EF8;
lastChange = "2012-12-20 03:58:12 -0800";
layers = (
{
layerId = "44E8B56B-104B-45A6-8718-400D756F8F39";
name = Regular;
paths = (
{
closed = 1;
nodes = (
"991 1390 LINE",
"604 723 LINE",
"190 1390 LINE",
"12 1390 LINE",
"516 573 LINE",
"516 0 LINE",
"694 0 LINE",
"694 577 LINE",
"1169 1390 LINE"
);
},
{
closed = 1;
nodes = (
"774 1775 LINE",
"771 1737 OFFCURVE",
"768 1693 OFFCURVE",
"732 1690 CURVE",
"732 1690 OFFCURVE",
"576 1775 OFFCURVE",
"463 1775 CURVE SMOOTH",
"366 1775 OFFCURVE",
"307 1712 OFFCURVE",
"307 1576 CURVE",
"404 1576 LINE",
"407 1626 OFFCURVE",
"424 1663 OFFCURVE",
"454 1664 CURVE",
"454 1664 OFFCURVE",
"656 1576 OFFCURVE",
"738 1576 CURVE SMOOTH",
"834 1576 OFFCURVE",
"874 1650 OFFCURVE",
"874 1775 CURVE"
);
}
);
width = 1181;
}
);
unicode = 1EF8;
},
{
glyphname = a;
lastChange = "2012-12-28 16:55:54 -0800";
layers = (
{
anchors = (
{
name = ogonek;
position = "{931, 10}";
},
{
name = top;
position = "{535, 1024}";
}
);
layerId = "44E8B56B-104B-45A6-8718-400D756F8F39";
name = Regular;
paths = (
{
closed = 1;
nodes = (
"413 1019 OFFCURVE",
"284 989 OFFCURVE",
"147 950 CURVE",
"182 826 LINE",
"276 855 OFFCURVE",
"428 887 OFFCURVE",
"524 887 CURVE SMOOTH",
"667 887 OFFCURVE",
"728 823 OFFCURVE",
"728 685 CURVE SMOOTH",
"728 597 LINE",
"562 584 LINE SMOOTH",
"277 562 OFFCURVE",
"104 478 OFFCURVE",
"104 263 CURVE SMOOTH",
"104 79 OFFCURVE",
"239 -20 OFFCURVE",
"415 -20 CURVE SMOOTH",
"549 -20 OFFCURVE",
"674 36 OFFCURVE",
"735 126 CURVE",
"762 0 LINE",
"900 0 LINE",
"900 650 LINE SMOOTH",
"900 916 OFFCURVE",
"766 1019 OFFCURVE",
"542 1019 CURVE SMOOTH"
);
},
{
closed = 1;
nodes = (
"728 251 LINE",
"696 165 OFFCURVE",
"558 103 OFFCURVE",
"437 103 CURVE SMOOTH",
"354 103 OFFCURVE",
"278 152 OFFCURVE",
"278 262 CURVE SMOOTH",
"278 402 OFFCURVE",
"350 449 OFFCURVE",
"611 480 CURVE SMOOTH",
"634 483 OFFCURVE",
"728 490 OFFCURVE",
"728 490 CURVE"
);
}
);
width = 1072;
}
);
leftKerningGroup = a_Right;
unicode = 0061;
},
{
glyphname = aringacute;
lastChange = "2012-12-20 03:58:12 -0800";
layers = (
{
layerId = "44E8B56B-104B-45A6-8718-400D756F8F39";
name = Regular;
paths = (
{
closed = 1;
nodes = (
"428 1019 OFFCURVE",
"273 983 OFFCURVE",
"187 935 CURVE",
"194 916 OFFCURVE",
"226 831 OFFCURVE",
"234 812 CURVE",
"328 858 OFFCURVE",
"465 886 OFFCURVE",
"561 886 CURVE SMOOTH",
"704 886 OFFCURVE",
"774 823 OFFCURVE",
"774 685 CURVE SMOOTH",
"774 597 LINE",
"774 597 OFFCURVE",
"645 587 OFFCURVE",
"599 583 CURVE SMOOTH",
"314 562 OFFCURVE",
"134 478 OFFCURVE",
"134 263 CURVE SMOOTH",
"134 79 OFFCURVE",
"269 -21 OFFCURVE",
"445 -21 CURVE SMOOTH",
"579 -21 OFFCURVE",
"720 22 OFFCURVE",
"781 112 CURVE",
"808 0 LINE",
"949 0 LINE",
"949 661 LINE SMOOTH",
"949 927 OFFCURVE",
"801 1019 OFFCURVE",
"557 1019 CURVE SMOOTH"
);
},
{
closed = 1;
nodes = (
"774 251 LINE",
"742 165 OFFCURVE",
"589 102 OFFCURVE",
"468 102 CURVE SMOOTH",
"385 102 OFFCURVE",
"308 152 OFFCURVE",
"308 262 CURVE SMOOTH",
"308 402 OFFCURVE",
"397 447 OFFCURVE",
"658 478 CURVE SMOOTH",
"681 481 OFFCURVE",
"774 490 OFFCURVE",
"774 490 CURVE"
);
},
{
closed = 1;
nodes = (
"592 1455 OFFCURVE",
"630 1406 OFFCURVE",
"630 1350 CURVE SMOOTH",
"630 1294 OFFCURVE",
"588 1248 OFFCURVE",
"542 1248 CURVE SMOOTH",
"486 1248 OFFCURVE",
"452 1289 OFFCURVE",
"452 1350 CURVE SMOOTH",
"452 1406 OFFCURVE",
"496 1455 OFFCURVE",
"542 1455 CURVE SMOOTH"
);
},
{
closed = 1;
nodes = (
"450 1529 OFFCURVE",
"365 1458 OFFCURVE",
"365 1350 CURVE SMOOTH",
"365 1245 OFFCURVE",
"449 1182 OFFCURVE",
"544 1182 CURVE SMOOTH",
"634 1182 OFFCURVE",
"719 1245 OFFCURVE",
"719 1350 CURVE SMOOTH",
"719 1452 OFFCURVE",
"637 1529 OFFCURVE",
"542 1529 CURVE SMOOTH"
);
},
{
closed = 1;
nodes = (
"660 2045 LINE",
"490 1692 LINE",
"594 1692 LINE",
"890 2045 LINE"
);
}
);
width = 1116;
}
);
unicode = 01FB;
},
{
glyphname = ae;
lastChange = "2012-12-20 16:03:40 -0800";
layers = (
{
anchors = (
{
name = top;
position = "{794, 0}";
}
);
layerId = "44E8B56B-104B-45A6-8718-400D756F8F39";
name = Regular;
paths = (
{
closed = 1;
nodes = (
"993 1023 OFFCURVE",
"868 967 OFFCURVE",
"802 848 CURVE",
"775 966 OFFCURVE",
"658 1023 OFFCURVE",
"513 1023 CURVE SMOOTH",
"377 1023 OFFCURVE",
"233 981 OFFCURVE",
"160 939 CURVE",
"193 814 LINE",
"269 854 OFFCURVE",
"392 888 OFFCURVE",
"517 888 CURVE SMOOTH",
"645 888 OFFCURVE",
"690 832 OFFCURVE",
"690 711 CURVE SMOOTH",
"690 561 LINE",
"632 558 LINE SMOOTH",
"356 543 OFFCURVE",
"113 513 OFFCURVE",
"113 273 CURVE SMOOTH",
"113 54 OFFCURVE",
"250 -24 OFFCURVE",
"408 -24 CURVE SMOOTH",
"550 -24 OFFCURVE",
"712 36 OFFCURVE",
"819 102 CURVE",
"892 22 OFFCURVE",
"986 -23 OFFCURVE",
"1117 -23 CURVE SMOOTH",
"1277 -23 OFFCURVE",
"1394 34 OFFCURVE",
"1468 98 CURVE",
"1421 208 LINE",
"1357 163 OFFCURVE",
"1244 108 OFFCURVE",
"1127 108 CURVE SMOOTH",
"933 108 OFFCURVE",
"858 250 OFFCURVE",
"843 463 CURVE",
"1295 486 LINE SMOOTH",
"1442 493 OFFCURVE",
"1465 535 OFFCURVE",
"1465 622 CURVE SMOOTH",
"1465 827 OFFCURVE",
"1373 1023 OFFCURVE",
"1125 1023 CURVE SMOOTH"
);
},
{
closed = 1;
nodes = (
"692 351 OFFCURVE",
"715 264 OFFCURVE",
"756 189 CURVE",
"652 154 OFFCURVE",
"520 103 OFFCURVE",
"419 103 CURVE SMOOTH",
"332 103 OFFCURVE",
"266 144 OFFCURVE",
"266 265 CURVE SMOOTH",
"266 373 OFFCURVE",
"337 428 OFFCURVE",
"629 450 CURVE SMOOTH",
"647 452 OFFCURVE",
"667 453 OFFCURVE",
"687 454 CURVE"
);
},
{
closed = 1;
nodes = (
"1256 895 OFFCURVE",
"1316 802 OFFCURVE",
"1318 595 CURVE SMOOTH",
"1318 586 LINE",
"848 560 LINE",
"858 747 OFFCURVE",
"939 895 OFFCURVE",
"1122 895 CURVE SMOOTH"
);
}
);
width = 1587;
}
);
leftKerningGroup = a_Right;
unicode = 00E6;
},
{
glyphname = aeacute;
lastChange = "2012-12-20 03:58:12 -0800";
layers = (
{
layerId = "44E8B56B-104B-45A6-8718-400D756F8F39";
name = Regular;
paths = (
{
closed = 1;
nodes = (
"993 1023 OFFCURVE",
"868 967 OFFCURVE",
"802 848 CURVE",
"775 966 OFFCURVE",
"658 1023 OFFCURVE",
"513 1023 CURVE SMOOTH",
"377 1023 OFFCURVE",
"233 981 OFFCURVE",
"160 939 CURVE",
"193 814 LINE",
"269 854 OFFCURVE",
"392 888 OFFCURVE",
"517 888 CURVE SMOOTH",
"645 888 OFFCURVE",
"690 832 OFFCURVE",
"690 711 CURVE SMOOTH",
"690 561 LINE",
"632 558 LINE SMOOTH",
"356 543 OFFCURVE",
"113 513 OFFCURVE",
"113 273 CURVE SMOOTH",
"113 54 OFFCURVE",
"250 -24 OFFCURVE",
"408 -24 CURVE SMOOTH",
"550 -24 OFFCURVE",
"712 36 OFFCURVE",
"819 102 CURVE",
"892 22 OFFCURVE",
"986 -23 OFFCURVE",
"1117 -23 CURVE SMOOTH",
"1277 -23 OFFCURVE",
"1394 34 OFFCURVE",
"1468 98 CURVE",
"1421 208 LINE",
"1357 163 OFFCURVE",
"1244 108 OFFCURVE",
"1127 108 CURVE SMOOTH",
"933 108 OFFCURVE",
"858 250 OFFCURVE",
"843 463 CURVE",
"1295 486 LINE SMOOTH",
"1442 493 OFFCURVE",
"1465 535 OFFCURVE",
"1465 622 CURVE SMOOTH",
"1465 827 OFFCURVE",
"1373 1023 OFFCURVE",
"1125 1023 CURVE SMOOTH"
);
},
{
closed = 1;
nodes = (
"692 351 OFFCURVE",
"715 264 OFFCURVE",
"756 189 CURVE",
"652 154 OFFCURVE",
"520 103 OFFCURVE",
"419 103 CURVE SMOOTH",
"332 103 OFFCURVE",
"266 144 OFFCURVE",
"266 265 CURVE SMOOTH",
"266 373 OFFCURVE",
"337 428 OFFCURVE",
"629 450 CURVE SMOOTH",
"647 452 OFFCURVE",
"667 453 OFFCURVE",
"687 454 CURVE"
);
},
{
closed = 1;
nodes = (
"1256 895 OFFCURVE",
"1316 802 OFFCURVE",
"1318 595 CURVE SMOOTH",
"1318 586 LINE",
"848 560 LINE",
"858 747 OFFCURVE",
"939 895 OFFCURVE",
"1122 895 CURVE SMOOTH"
);
},
{
closed = 1;
nodes = (
"909 1539 LINE",
"739 1186 LINE",
"843 1186 LINE",
"1139 1539 LINE"
);
}
);
width = 1587;
}
);
unicode = 01FD;
},
{
glyphname = uni01E3;
lastChange = "2012-12-20 03:58:12 -0800";
layers = (
{
layerId = "44E8B56B-104B-45A6-8718-400D756F8F39";
name = Regular;
paths = (
{
closed = 1;
nodes = (
"993 1023 OFFCURVE",
"868 967 OFFCURVE",
"802 848 CURVE",
"775 966 OFFCURVE",
"658 1023 OFFCURVE",
"513 1023 CURVE SMOOTH",
"377 1023 OFFCURVE",
"233 981 OFFCURVE",
"160 939 CURVE",
"193 814 LINE",
"269 854 OFFCURVE",
"392 888 OFFCURVE",
"517 888 CURVE SMOOTH",
"645 888 OFFCURVE",
"690 832 OFFCURVE",
"690 711 CURVE SMOOTH",
"690 561 LINE",
"632 558 LINE SMOOTH",
"356 543 OFFCURVE",
"113 513 OFFCURVE",
"113 273 CURVE SMOOTH",
"113 54 OFFCURVE",
"250 -24 OFFCURVE",
"408 -24 CURVE SMOOTH",
"550 -24 OFFCURVE",
"712 36 OFFCURVE",
"819 102 CURVE",
"892 22 OFFCURVE",
"986 -23 OFFCURVE",
"1117 -23 CURVE SMOOTH",
"1277 -23 OFFCURVE",
"1394 34 OFFCURVE",
"1468 98 CURVE",
"1421 208 LINE",
"1357 163 OFFCURVE",
"1244 108 OFFCURVE",
"1127 108 CURVE SMOOTH",
"933 108 OFFCURVE",
"858 250 OFFCURVE",
"843 463 CURVE",
"1295 486 LINE SMOOTH",
"1442 493 OFFCURVE",
"1465 535 OFFCURVE",
"1465 622 CURVE SMOOTH",
"1465 827 OFFCURVE",
"1373 1023 OFFCURVE",
"1125 1023 CURVE SMOOTH"
);
},
{
closed = 1;
nodes = (
"692 351 OFFCURVE",
"715 264 OFFCURVE",
"756 189 CURVE",
"652 154 OFFCURVE",
"520 103 OFFCURVE",
"419 103 CURVE SMOOTH",
"332 103 OFFCURVE",
"266 144 OFFCURVE",
"266 265 CURVE SMOOTH",
"266 373 OFFCURVE",
"337 428 OFFCURVE",
"629 450 CURVE SMOOTH",
"647 452 OFFCURVE",
"667 453 OFFCURVE",
"687 454 CURVE"
);
},
{
closed = 1;
nodes = (
"1256 895 OFFCURVE",
"1316 802 OFFCURVE",
"1318 595 CURVE SMOOTH",
"1318 586 LINE",
"848 560 LINE",
"858 747 OFFCURVE",
"939 895 OFFCURVE",
"1122 895 CURVE SMOOTH"
);
},
{
closed = 1;
nodes = (
"487 1313 LINE",
"487 1186 LINE",
"1095 1186 LINE",
"1095 1313 LINE"
);
}
);
width = 1587;
}
);
unicode = 01E3;
},
{
glyphname = b;
lastChange = "2012-12-28 16:51:01 -0800";
layers = (
{
layerId = "44E8B56B-104B-45A6-8718-400D756F8F39";
name = Regular;
paths = (
{
closed = 1;
nodes = (
"176 1395 LINE",
"176 0 LINE",
"331 0 LINE",
"348 163 LINE",
"403 45 OFFCURVE",
"527 -20 OFFCURVE",
"667 -20 CURVE SMOOTH",
"954 -20 OFFCURVE",
"1096 198 OFFCURVE",
"1096 504 CURVE SMOOTH",
"1096 802 OFFCURVE",
"933 1019 OFFCURVE",
"665 1019 CURVE SMOOTH",
"530 1019 OFFCURVE",
"409 955 OFFCURVE",
"343 862 CURVE",
"347 928 OFFCURVE",
"348 991 OFFCURVE",
"348 1053 CURVE SMOOTH",
"348 1409 LINE"
);
},
{
closed = 1;
nodes = (
"831 887 OFFCURVE",
"921 738 OFFCURVE",
"921 499 CURVE SMOOTH",
"921 265 OFFCURVE",
"836 112 OFFCURVE",
"642 112 CURVE SMOOTH",
"437 112 OFFCURVE",
"348 252 OFFCURVE",
"348 482 CURVE SMOOTH",
"348 741 OFFCURVE",
"428 887 OFFCURVE",
"640 887 CURVE SMOOTH"
);
}
);
width = 1212;
}
);
rightKerningGroup = o_Left;
unicode = 0062;
},
{
glyphname = c;
lastChange = "2012-12-28 16:55:18 -0800";
layers = (
{
anchors = (
{
name = bottom;
position = "{601, 0}";
},
{
name = top;
position = "{576, 1024}";
}
);
layerId = "44E8B56B-104B-45A6-8718-400D756F8F39";
name = Regular;
paths = (
{
closed = 1;
nodes = (
"315 1019 OFFCURVE",
"116 810 OFFCURVE",
"116 496 CURVE SMOOTH",
"116 195 OFFCURVE",
"304 -20 OFFCURVE",
"585 -20 CURVE SMOOTH",
"685 -20 OFFCURVE",
"787 9 OFFCURVE",
"848 47 CURVE",
"825 171 LINE",
"753 134 OFFCURVE",
"700 112 OFFCURVE",
"614 112 CURVE SMOOTH",
"400 112 OFFCURVE",
"290 265 OFFCURVE",
"290 495 CURVE SMOOTH",
"290 733 OFFCURVE",
"404 887 OFFCURVE",
"614 887 CURVE SMOOTH",
"680 887 OFFCURVE",
"746 869 OFFCURVE",
"812 839 CURVE",
"854 957 LINE",
"797 988 OFFCURVE",
"700 1019 OFFCURVE",
"595 1019 CURVE SMOOTH"
);
}
);
width = 930;
}
);
leftKerningGroup = o_Right;
unicode = 0063;
},
{
glyphname = ccircumflex;
lastChange = "2012-12-20 03:58:12 -0800";
layers = (
{
layerId = "44E8B56B-104B-45A6-8718-400D756F8F39";
name = Regular;
paths = (
{
closed = 1;
nodes = (
"326 1019 OFFCURVE",
"122 810 OFFCURVE",
"122 496 CURVE SMOOTH",
"122 195 OFFCURVE",
"319 -21 OFFCURVE",
"600 -21 CURVE SMOOTH",
"700 -21 OFFCURVE",
"805 3 OFFCURVE",
"871 51 CURVE",
"848 175 LINE",
"776 138 OFFCURVE",
"715 112 OFFCURVE",
"629 112 CURVE SMOOTH",
"415 112 OFFCURVE",
"296 265 OFFCURVE",
"296 495 CURVE SMOOTH",
"296 733 OFFCURVE",
"419 886 OFFCURVE",
"629 886 CURVE SMOOTH",
"695 886 OFFCURVE",
"764 870 OFFCURVE",
"835 832 CURVE",
"877 950 LINE",
"822 990 OFFCURVE",
"711 1019 OFFCURVE",
"606 1019 CURVE SMOOTH"
);
},
{
closed = 1;
nodes = (
"403 1535 LINE",
"233 1182 LINE",
"352 1182 LINE",
"499 1430 LINE",
"646 1182 LINE",
"767 1182 LINE",
"597 1535 LINE"
);
}
);
width = 985;
}
);
leftKerningGroup = o_Right;
unicode = 0109;
},
{
glyphname = cdotaccent;
lastChange = "2012-12-20 03:58:12 -0800";
layers = (
{
layerId = "44E8B56B-104B-45A6-8718-400D756F8F39";
name = Regular;
paths = (
{
closed = 1;
nodes = (
"326 1019 OFFCURVE",
"122 810 OFFCURVE",
"122 496 CURVE SMOOTH",
"122 195 OFFCURVE",
"319 -21 OFFCURVE",
"600 -21 CURVE SMOOTH",
"700 -21 OFFCURVE",
"805 3 OFFCURVE",
"871 51 CURVE",
"848 175 LINE",
"776 138 OFFCURVE",
"715 112 OFFCURVE",
"629 112 CURVE SMOOTH",
"415 112 OFFCURVE",
"296 265 OFFCURVE",
"296 495 CURVE SMOOTH",
"296 733 OFFCURVE",
"419 886 OFFCURVE",
"629 886 CURVE SMOOTH",
"695 886 OFFCURVE",
"764 870 OFFCURVE",
"835 832 CURVE",
"877 950 LINE",
"822 990 OFFCURVE",
"711 1019 OFFCURVE",
"606 1019 CURVE SMOOTH"
);
},
{
closed = 1;
nodes = (
"423 1362 LINE",
"423 1182 LINE",
"576 1182 LINE",
"576 1362 LINE"
);
}
);
width = 985;
}
);
leftKerningGroup = o_Right;
unicode = 010B;
},
{
glyphname = d;
lastChange = "2012-12-28 16:51:01 -0800";
layers = (
{
anchors = (
{
name = center;
position = "{603, 0}";
}
);
layerId = "44E8B56B-104B-45A6-8718-400D756F8F39";
name = Regular;
paths = (
{
closed = 1;
nodes = (
"854 1395 LINE",
"854 1053 LINE SMOOTH",
"854 991 OFFCURVE",
"854 928 OFFCURVE",
"858 862 CURVE",
"792 955 OFFCURVE",
"682 1019 OFFCURVE",
"550 1019 CURVE SMOOTH",
"290 1019 OFFCURVE",
"116 807 OFFCURVE",
"116 504 CURVE SMOOTH",
"116 198 OFFCURVE",
"272 -20 OFFCURVE",
"551 -20 CURVE SMOOTH",
"688 -20 OFFCURVE",
"799 45 OFFCURVE",
"854 163 CURVE",
"871 0 LINE",
"1026 0 LINE",
"1026 1409 LINE"
);
},
{
closed = 1;
nodes = (
"797 887 OFFCURVE",
"854 741 OFFCURVE",
"854 482 CURVE SMOOTH",
"854 252 OFFCURVE",
"787 112 OFFCURVE",
"578 112 CURVE SMOOTH",
"384 112 OFFCURVE",
"290 265 OFFCURVE",
"290 499 CURVE SMOOTH",
"290 738 OFFCURVE",
"388 887 OFFCURVE",
"579 887 CURVE SMOOTH"
);
}
);
width = 1206;
}
);
leftKerningGroup = o_Right;
unicode = 0064;
},
{
glyphname = eth;
lastChange = "2012-12-20 03:58:12 -0800";
layers = (
{
layerId = "44E8B56B-104B-45A6-8718-400D756F8F39";
name = Regular;
paths = (
{
closed = 1;
nodes = (
"226 1445 LINE",
"440 1241 LINE",
"240 1162 LINE",
"279 1042 LINE",
"527 1144 LINE",
"672 997 OFFCURVE",
"761 877 OFFCURVE",
"803 798 CURVE",
"751 836 OFFCURVE",
"671 885 OFFCURVE",
"552 885 CURVE SMOOTH",
"288 885 OFFCURVE",
"114 707 OFFCURVE",
"114 442 CURVE SMOOTH",
"114 193 OFFCURVE",
"281 -23 OFFCURVE",
"583 -23 CURVE SMOOTH",
"892 -23 OFFCURVE",
"1051 181 OFFCURVE",
"1051 448 CURVE SMOOTH",
"1051 575 OFFCURVE",
"1021 686 OFFCURVE",
"958 804 CURVE SMOOTH",
"891 921 OFFCURVE",
"788 1046 OFFCURVE",
"646 1201 CURVE",
"866 1286 LINE",
"824 1403 LINE",
"561 1300 LINE",
"429 1445 LINE"
);
},
{
closed = 1;
nodes = (
"785 758 OFFCURVE",
"895 595 OFFCURVE",
"895 430 CURVE SMOOTH",
"895 247 OFFCURVE",
"786 104 OFFCURVE",
"589 104 CURVE SMOOTH",
"382 104 OFFCURVE",
"279 267 OFFCURVE",
"279 441 CURVE SMOOTH",
"279 614 OFFCURVE",
"390 758 OFFCURVE",
"583 758 CURVE SMOOTH"
);
}
);
width = 1164;
}
);
leftKerningGroup = o_Right;
unicode = 00F0;
},
{
glyphname = dcaron;
lastChange = "2012-12-20 03:58:12 -0800";
layers = (
{
layerId = "44E8B56B-104B-45A6-8718-400D756F8F39";
name = Regular;
paths = (
{
closed = 1;
nodes = (
"879 1395 LINE",
"879 1053 LINE SMOOTH",
"879 991 OFFCURVE",
"879 928 OFFCURVE",
"883 862 CURVE",
"817 955 OFFCURVE",
"691 1019 OFFCURVE",
"559 1019 CURVE SMOOTH",
"299 1019 OFFCURVE",
"122 807 OFFCURVE",
"122 504 CURVE SMOOTH",
"122 198 OFFCURVE",
"281 -21 OFFCURVE",
"560 -21 CURVE SMOOTH",
"697 -21 OFFCURVE",
"824 45 OFFCURVE",
"879 163 CURVE",
"896 0 LINE",
"1054 0 LINE",
"1054 1409 LINE"
);
},
{
closed = 1;
nodes = (
"803 891 OFFCURVE",
"879 741 OFFCURVE",
"879 482 CURVE SMOOTH",
"879 252 OFFCURVE",
"793 108 OFFCURVE",
"587 108 CURVE SMOOTH",
"393 108 OFFCURVE",
"296 265 OFFCURVE",
"296 499 CURVE SMOOTH",
"296 738 OFFCURVE",
"397 891 OFFCURVE",
"588 891 CURVE SMOOTH"
);
},
{
closed = 1;
nodes = (
"1384 1409 LINE",
"1299 980 LINE",
"1405 980 LINE",
"1527 1409 LINE"
);
}
);
width = 1239;
}
);
leftKerningGroup = o_Right;
unicode = 010F;
},
{
glyphname = dcroat;
lastChange = "2012-12-20 03:58:12 -0800";
layers = (
{
layerId = "44E8B56B-104B-45A6-8718-400D756F8F39";
name = Regular;
paths = (
{
closed = 1;
nodes = (
"860 1395 LINE",
"860 1268 LINE",
"586 1268 LINE",
"586 1166 LINE",
"860 1166 LINE",
"860 1053 LINE SMOOTH",
"860 991 OFFCURVE",
"860 928 OFFCURVE",
"864 862 CURVE",
"798 955 OFFCURVE",
"672 1019 OFFCURVE",
"540 1019 CURVE SMOOTH",
"280 1019 OFFCURVE",
"103 807 OFFCURVE",
"103 504 CURVE SMOOTH",
"103 198 OFFCURVE",
"262 -21 OFFCURVE",
"541 -21 CURVE SMOOTH",
"678 -21 OFFCURVE",
"805 45 OFFCURVE",
"860 163 CURVE",
"877 0 LINE",
"1035 0 LINE",
"1035 1166 LINE",
"1153 1166 LINE",
"1153 1268 LINE",
"1035 1268 LINE",
"1035 1409 LINE"
);
},
{
closed = 1;
nodes = (
"784 891 OFFCURVE",
"860 741 OFFCURVE",
"860 482 CURVE SMOOTH",
"860 252 OFFCURVE",
"774 108 OFFCURVE",
"568 108 CURVE SMOOTH",
"374 108 OFFCURVE",
"277 265 OFFCURVE",
"277 499 CURVE SMOOTH",
"277 738 OFFCURVE",
"378 891 OFFCURVE",
"569 891 CURVE SMOOTH"
);
}
);
width = 1193;
}
);
unicode = 0111;
},
{
glyphname = e;
lastChange = "2012-12-28 16:51:01 -0800";
layers = (
{
anchors = (
{
name = bottom;
position = "{598, 0}";
},
{
name = ogonek;
position = "{950, 43}";
},
{
name = top;
position = "{573, 1019}";
}
);
layerId = "44E8B56B-104B-45A6-8718-400D756F8F39";
name = Regular;
paths = (
{
closed = 1;
nodes = (
"319 1019 OFFCURVE",
"120 805 OFFCURVE",
"120 496 CURVE SMOOTH",
"120 176 OFFCURVE",
"349 -20 OFFCURVE",
"618 -20 CURVE SMOOTH",
"767 -20 OFFCURVE",
"895 24 OFFCURVE",
"963 65 CURVE",
"939 186 LINE",
"839 141 OFFCURVE",
"761 112 OFFCURVE",
"636 112 CURVE SMOOTH",
"446 112 OFFCURVE",
"296 240 OFFCURVE",
"292 469 CURVE",
"979 469 LINE",
"979 469 OFFCURVE",
"985 530 OFFCURVE",
"985 553 CURVE SMOOTH",
"985 832 OFFCURVE",
"845 1019 OFFCURVE",
"588 1019 CURVE SMOOTH"
);
},
{
closed = 1;
nodes = (
"754 887 OFFCURVE",
"816 779 OFFCURVE",
"821 582 CURVE",
"296 582 LINE",
"313 772 OFFCURVE",
"428 887 OFFCURVE",
"593 887 CURVE SMOOTH"
);
}
);
width = 1144;
}
);
leftKerningGroup = o_Right;
unicode = 0065;
},
{
glyphname = ebreve;
lastChange = "2012-12-20 03:58:12 -0800";
layers = (
{
layerId = "44E8B56B-104B-45A6-8718-400D756F8F39";
name = Regular;
paths = (
{
closed = 1;
nodes = (
"338 1019 OFFCURVE",
"126 805 OFFCURVE",
"126 496 CURVE SMOOTH",
"126 176 OFFCURVE",
"331 -21 OFFCURVE",
"620 -21 CURVE SMOOTH",
"769 -21 OFFCURVE",
"883 7 OFFCURVE",
"979 65 CURVE",
"955 197 LINE",
"867 151 OFFCURVE",
"770 112 OFFCURVE",
"645 112 CURVE SMOOTH",
"455 112 OFFCURVE",
"302 240 OFFCURVE",
"298 469 CURVE",
"995 469 LINE",
"995 469 OFFCURVE",
"1001 530 OFFCURVE",
"1001 553 CURVE SMOOTH",
"1001 832 OFFCURVE",
"858 1019 OFFCURVE",
"601 1019 CURVE SMOOTH"
);
},
{
closed = 1;
nodes = (
"767 888 OFFCURVE",
"832 779 OFFCURVE",
"837 582 CURVE",
"302 582 LINE",
"319 772 OFFCURVE",
"450 888 OFFCURVE",
"606 888 CURVE SMOOTH"
);
},
{
closed = 1;
nodes = (
"686 1404 LINE",
"686 1317 OFFCURVE",
"628 1276 OFFCURVE",
"562 1276 CURVE SMOOTH",
"496 1276 OFFCURVE",
"441 1317 OFFCURVE",
"441 1404 CURVE",
"335 1404 LINE",
"335 1247 OFFCURVE",
"450 1182 OFFCURVE",
"562 1182 CURVE SMOOTH",
"675 1182 OFFCURVE",
"792 1247 OFFCURVE",
"792 1404 CURVE"
);
}
);
width = 1132;
}
);
leftKerningGroup = o_Right;
unicode = 0115;
},
{
glyphname = f;
lastChange = "2012-12-28 16:51:01 -0800";
layers = (
{
layerId = "44E8B56B-104B-45A6-8718-400D756F8F39";
name = Regular;
paths = (
{
closed = 1;
nodes = (
"381 1413 OFFCURVE",
"272 1318 OFFCURVE",
"272 1061 CURVE SMOOTH",
"272 998 LINE",
"65 981 LINE",
"60 887 LINE",
"272 887 LINE",
"272 0 LINE",
"444 0 LINE",
"444 887 LINE",
"675 887 LINE",
"675 998 LINE",
"444 998 LINE",
"444 1055 LINE SMOOTH",
"444 1230 OFFCURVE",
"497 1275 OFFCURVE",
"599 1275 CURVE SMOOTH",
"635 1275 OFFCURVE",
"680 1269 OFFCURVE",
"705 1265 CURVE",
"717 1397 LINE",
"699 1401 OFFCURVE",
"635 1413 OFFCURVE",
"559 1413 CURVE SMOOTH"
);
}
);
width = 765;
}
);
unicode = 0066;
},
{
glyphname = g;
lastChange = "2012-12-29 02:51:04 -0800";
layers = (
{
anchors = (
{
name = top;
position = "{549, 1019}";
}
);
layerId = "44E8B56B-104B-45A6-8718-400D756F8F39";
name = Regular;
paths = (
{
closed = 1;
nodes = (
"244 1019 OFFCURVE",
"116 780 OFFCURVE",
"116 496 CURVE SMOOTH",
"116 249 OFFCURVE",
"250 7 OFFCURVE",
"546 7 CURVE SMOOTH",
"707 7 OFFCURVE",
"798 93 OFFCURVE",
"835 171 CURVE",
"835 89 LINE SMOOTH",
"835 -188 OFFCURVE",
"809 -311 OFFCURVE",
"486 -311 CURVE SMOOTH",
"425 -311 OFFCURVE",
"353 -307 OFFCURVE",
"269 -298 CURVE",
"280 -419 LINE",
"374 -432 OFFCURVE",
"456 -438 OFFCURVE",
"528 -438 CURVE SMOOTH",
"914 -438 OFFCURVE",
"1007 -256 OFFCURVE",
"1007 123 CURVE SMOOTH",
"1007 998 LINE",
"851 998 LINE",
"839 865 LINE",
"774 981 OFFCURVE",
"672 1019 OFFCURVE",
"549 1019 CURVE SMOOTH"
);
},
{
closed = 1;
nodes = (
"773 887 OFFCURVE",
"834 732 OFFCURVE",
"834 543 CURVE SMOOTH",
"834 470 LINE SMOOTH",
"834 291 OFFCURVE",
"777 137 OFFCURVE",
"559 137 CURVE SMOOTH",
"372 137 OFFCURVE",
"290 313 OFFCURVE",
"290 504 CURVE SMOOTH",
"290 687 OFFCURVE",
"346 887 OFFCURVE",
"563 887 CURVE SMOOTH"
);
}
);
width = 1183;
},
{
anchors = (
{
name = top;
position = "{549, 1019}";
}
);
associatedMasterId = "44E8B56B-104B-45A6-8718-400D756F8F39";
layerId = "800934E7-0FC2-471B-9E0E-61A4A1DA1174";
name = "Regular Dec 29 12, 10:48";
paths = (
{
closed = 1;
nodes = (
"244 1019 OFFCURVE",
"116 780 OFFCURVE",
"116 496 CURVE SMOOTH",
"116 249 OFFCURVE",
"250 7 OFFCURVE",
"546 7 CURVE SMOOTH",
"707 7 OFFCURVE",
"798 93 OFFCURVE",
"835 171 CURVE",
"835 73 LINE SMOOTH",
"835 -222 OFFCURVE",
"712 -297 OFFCURVE",
"547 -297 CURVE SMOOTH",
"471 -297 OFFCURVE",
"387 -288 OFFCURVE",
"302 -273 CURVE",
"280 -399 LINE",
"380 -421 OFFCURVE",
"473 -428 OFFCURVE",
"557 -428 CURVE SMOOTH",
"831 -428 OFFCURVE",
"1007 -293 OFFCURVE",
"1007 117 CURVE SMOOTH",
"1007 998 LINE",
"851 998 LINE",
"839 865 LINE",
"774 981 OFFCURVE",
"672 1019 OFFCURVE",
"549 1019 CURVE SMOOTH"
);
},
{
closed = 1;
nodes = (
"773 887 OFFCURVE",
"834 732 OFFCURVE",
"834 543 CURVE SMOOTH",
"834 470 LINE SMOOTH",
"834 291 OFFCURVE",
"777 137 OFFCURVE",
"559 137 CURVE SMOOTH",
"372 137 OFFCURVE",
"290 313 OFFCURVE",
"290 504 CURVE SMOOTH",
"290 687 OFFCURVE",
"346 887 OFFCURVE",
"563 887 CURVE SMOOTH"
);
}
);
width = 1183;
}
);
leftKerningGroup = g_Right;
unicode = 0067;
},
{
glyphname = gbreve;
lastChange = "2012-12-20 03:58:12 -0800";
layers = (
{
layerId = "44E8B56B-104B-45A6-8718-400D756F8F39";
name = Regular;
paths = (
{
closed = 1;
nodes = (
"267 1019 OFFCURVE",
"122 780 OFFCURVE",
"122 496 CURVE SMOOTH",
"122 249 OFFCURVE",
"273 0 OFFCURVE",
"569 0 CURVE SMOOTH",
"727 0 OFFCURVE",
"832 73 OFFCURVE",
"879 191 CURVE",
"879 73 LINE SMOOTH",
"879 -199 OFFCURVE",
"774 -291 OFFCURVE",
"530 -291 CURVE SMOOTH",
"429 -291 OFFCURVE",
"337 -273 OFFCURVE",
"297 -262 CURVE",
"286 -390 LINE",
"326 -400 OFFCURVE",
"424 -425 OFFCURVE",
"543 -425 CURVE SMOOTH",
"952 -425 OFFCURVE",
"1054 -187 OFFCURVE",
"1054 148 CURVE SMOOTH",
"1054 998 LINE",
"895 998 LINE",
"883 865 LINE",
"807 968 OFFCURVE",
"705 1019 OFFCURVE",
"572 1019 CURVE SMOOTH"
);
},
{
closed = 1;
nodes = (
"793 891 OFFCURVE",
"879 732 OFFCURVE",
"879 543 CURVE SMOOTH",
"879 470 LINE SMOOTH",
"879 291 OFFCURVE",
"797 130 OFFCURVE",
"582 130 CURVE SMOOTH",
"375 130 OFFCURVE",
"296 333 OFFCURVE",
"296 504 CURVE SMOOTH",
"296 677 OFFCURVE",
"369 891 OFFCURVE",
"586 891 CURVE SMOOTH"
);
},
{
closed = 1;
nodes = (
"711 1404 LINE",
"711 1317 OFFCURVE",
"653 1276 OFFCURVE",
"587 1276 CURVE SMOOTH",
"521 1276 OFFCURVE",
"466 1317 OFFCURVE",
"466 1404 CURVE",
"360 1404 LINE",
"360 1247 OFFCURVE",
"475 1182 OFFCURVE",
"587 1182 CURVE SMOOTH",
"700 1182 OFFCURVE",
"817 1247 OFFCURVE",
"817 1404 CURVE"
);
}
);
width = 1233;
}
);
leftKerningGroup = g_Right;
unicode = 011F;
},
{
glyphname = gcaron;
lastChange = "2012-12-20 03:58:12 -0800";
layers = (
{
layerId = "44E8B56B-104B-45A6-8718-400D756F8F39";
name = Regular;
paths = (
{
closed = 1;
nodes = (
"267 1019 OFFCURVE",
"122 780 OFFCURVE",
"122 496 CURVE SMOOTH",
"122 249 OFFCURVE",
"273 0 OFFCURVE",
"569 0 CURVE SMOOTH",
"727 0 OFFCURVE",
"832 73 OFFCURVE",
"879 191 CURVE",
"879 73 LINE SMOOTH",
"879 -199 OFFCURVE",
"774 -291 OFFCURVE",
"530 -291 CURVE SMOOTH",
"429 -291 OFFCURVE",
"337 -273 OFFCURVE",
"297 -262 CURVE",
"286 -390 LINE",
"326 -400 OFFCURVE",
"424 -425 OFFCURVE",
"543 -425 CURVE SMOOTH",
"952 -425 OFFCURVE",
"1054 -187 OFFCURVE",
"1054 148 CURVE SMOOTH",
"1054 998 LINE",
"895 998 LINE",
"883 865 LINE",
"807 968 OFFCURVE",
"705 1019 OFFCURVE",
"572 1019 CURVE SMOOTH"
);
},
{
closed = 1;
nodes = (
"793 891 OFFCURVE",
"879 732 OFFCURVE",
"879 543 CURVE SMOOTH",
"879 470 LINE SMOOTH",
"879 291 OFFCURVE",
"797 130 OFFCURVE",
"582 130 CURVE SMOOTH",
"375 130 OFFCURVE",
"296 333 OFFCURVE",
"296 504 CURVE SMOOTH",
"296 677 OFFCURVE",
"369 891 OFFCURVE",
"586 891 CURVE SMOOTH"
);
},
{
closed = 1;
nodes = (
"734 1535 LINE",
"587 1252 LINE",
"440 1535 LINE",
"321 1535 LINE",
"491 1182 LINE",
"685 1182 LINE",
"855 1535 LINE"
);
}
);
width = 1233;
}
);
unicode = 01E7;
},
{
glyphname = gcircumflex;
lastChange = "2012-12-20 03:58:12 -0800";
layers = (
{
layerId = "44E8B56B-104B-45A6-8718-400D756F8F39";
name = Regular;
paths = (
{
closed = 1;
nodes = (
"267 1019 OFFCURVE",
"122 780 OFFCURVE",
"122 496 CURVE SMOOTH",
"122 249 OFFCURVE",
"273 0 OFFCURVE",
"569 0 CURVE SMOOTH",
"727 0 OFFCURVE",
"832 73 OFFCURVE",
"879 191 CURVE",
"879 73 LINE SMOOTH",
"879 -199 OFFCURVE",
"774 -291 OFFCURVE",
"530 -291 CURVE SMOOTH",
"429 -291 OFFCURVE",
"337 -273 OFFCURVE",
"297 -262 CURVE",
"286 -390 LINE",
"326 -400 OFFCURVE",
"424 -425 OFFCURVE",
"543 -425 CURVE SMOOTH",
"952 -425 OFFCURVE",
"1054 -187 OFFCURVE",
"1054 148 CURVE SMOOTH",
"1054 998 LINE",
"895 998 LINE",
"883 865 LINE",
"807 968 OFFCURVE",
"705 1019 OFFCURVE",
"572 1019 CURVE SMOOTH"
);
},
{
closed = 1;
nodes = (
"793 891 OFFCURVE",
"879 732 OFFCURVE",
"879 543 CURVE SMOOTH",
"879 470 LINE SMOOTH",
"879 291 OFFCURVE",
"797 130 OFFCURVE",
"582 130 CURVE SMOOTH",
"375 130 OFFCURVE",
"296 333 OFFCURVE",
"296 504 CURVE SMOOTH",
"296 677 OFFCURVE",
"369 891 OFFCURVE",
"586 891 CURVE SMOOTH"
);
},
{
closed = 1;
nodes = (
"491 1535 LINE",
"321 1182 LINE",
"440 1182 LINE",
"587 1430 LINE",
"734 1182 LINE",
"855 1182 LINE",
"685 1535 LINE"
);
}
);
width = 1233;
}
);
leftKerningGroup = g_Right;
unicode = 011D;
},
{
glyphname = gdotaccent;
lastChange = "2012-12-20 03:58:12 -0800";
layers = (
{
layerId = "44E8B56B-104B-45A6-8718-400D756F8F39";
name = Regular;
paths = (
{
closed = 1;
nodes = (
"267 1019 OFFCURVE",
"122 780 OFFCURVE",
"122 496 CURVE SMOOTH",
"122 249 OFFCURVE",
"273 0 OFFCURVE",
"569 0 CURVE SMOOTH",
"727 0 OFFCURVE",
"832 73 OFFCURVE",
"879 191 CURVE",
"879 73 LINE SMOOTH",
"879 -199 OFFCURVE",
"774 -291 OFFCURVE",
"530 -291 CURVE SMOOTH",
"429 -291 OFFCURVE",
"337 -273 OFFCURVE",
"297 -262 CURVE",
"286 -390 LINE",
"326 -400 OFFCURVE",
"424 -425 OFFCURVE",
"543 -425 CURVE SMOOTH",
"952 -425 OFFCURVE",
"1054 -187 OFFCURVE",
"1054 148 CURVE SMOOTH",
"1054 998 LINE",
"895 998 LINE",
"883 865 LINE",
"807 968 OFFCURVE",
"705 1019 OFFCURVE",
"572 1019 CURVE SMOOTH"
);
},
{
closed = 1;
nodes = (
"793 891 OFFCURVE",
"879 732 OFFCURVE",
"879 543 CURVE SMOOTH",
"879 470 LINE SMOOTH",
"879 291 OFFCURVE",
"797 130 OFFCURVE",
"582 130 CURVE SMOOTH",
"375 130 OFFCURVE",
"296 333 OFFCURVE",
"296 504 CURVE SMOOTH",
"296 677 OFFCURVE",
"369 891 OFFCURVE",
"586 891 CURVE SMOOTH"
);
},
{
closed = 1;
nodes = (
"512 1362 LINE",
"512 1182 LINE",
"665 1182 LINE",
"665 1362 LINE"
);
}
);
width = 1233;
}
);
leftKerningGroup = g_Right;
unicode = 0121;
},
{
glyphname = h;
lastChange = "2012-12-28 16:51:01 -0800";
layers = (
{
anchors = (
{
name = center;
position = "{583, 0}";
},
{
name = top;
position = "{583, 0}";
}
);
layerId = "44E8B56B-104B-45A6-8718-400D756F8F39";
name = Regular;
paths = (
{
closed = 1;
nodes = (
"174 1395 LINE",
"174 0 LINE",
"346 0 LINE",
"346 546 LINE SMOOTH",
"346 766 OFFCURVE",
"429 887 OFFCURVE",
"627 887 CURVE SMOOTH",
"785 887 OFFCURVE",
"841 788 OFFCURVE",
"841 623 CURVE SMOOTH",
"841 0 LINE",
"1013 0 LINE",
"1013 612 LINE SMOOTH",
"1013 880 OFFCURVE",
"892 1019 OFFCURVE",
"662 1019 CURVE SMOOTH",
"524 1019 OFFCURVE",
"404 963 OFFCURVE",
"346 864 CURVE",
"346 1409 LINE"
);
}
);
width = 1163;
}
);
rightKerningGroup = n_Left;
unicode = 0068;
},
{
glyphname = hbar;
lastChange = "2012-12-20 03:58:12 -0800";
layers = (
{
layerId = "44E8B56B-104B-45A6-8718-400D756F8F39";
name = Regular;
paths = (
{
closed = 1;
nodes = (
"149 1395 LINE",
"149 1271 LINE",
"20 1271 LINE",
"20 1166 LINE",
"149 1166 LINE",
"149 0 LINE",
"324 0 LINE",
"324 546 LINE SMOOTH",
"324 752 OFFCURVE",
"385 889 OFFCURVE",
"601 889 CURVE SMOOTH",
"754 889 OFFCURVE",
"790 788 OFFCURVE",
"790 623 CURVE SMOOTH",
"790 0 LINE",
"965 0 LINE",
"965 612 LINE SMOOTH",
"965 880 OFFCURVE",
"861 1019 OFFCURVE",
"631 1019 CURVE SMOOTH",
"493 1019 OFFCURVE",
"382 963 OFFCURVE",
"324 864 CURVE",
"324 1166 LINE",
"509 1166 LINE",
"509 1271 LINE",
"324 1271 LINE",
"324 1409 LINE"
);
}
);
width = 1130;
}
);
rightKerningGroup = n_Left;
unicode = 0127;
},
{
glyphname = hcircumflex;
lastChange = "2012-12-20 03:58:12 -0800";
layers = (
{
layerId = "44E8B56B-104B-45A6-8718-400D756F8F39";
name = Regular;
paths = (
{
closed = 1;
nodes = (
"185 1395 LINE",
"185 0 LINE",
"360 0 LINE",
"360 546 LINE SMOOTH",
"360 752 OFFCURVE",
"421 889 OFFCURVE",
"637 889 CURVE SMOOTH",
"790 889 OFFCURVE",
"826 788 OFFCURVE",
"826 623 CURVE SMOOTH",
"826 0 LINE",
"1001 0 LINE",
"1001 612 LINE SMOOTH",
"1001 880 OFFCURVE",
"897 1019 OFFCURVE",
"667 1019 CURVE SMOOTH",
"529 1019 OFFCURVE",
"418 963 OFFCURVE",
"360 864 CURVE",
"360 1409 LINE"
);
},
{
closed = 1;
nodes = (
"496 1925 LINE",
"326 1572 LINE",
"445 1572 LINE",
"592 1820 LINE",
"739 1572 LINE",
"860 1572 LINE",
"690 1925 LINE"
);
}
);
width = 1166;
}
);
rightKerningGroup = n_Left;
unicode = 0125;
},
{
glyphname = i;
lastChange = "2012-12-28 16:51:01 -0800";
layers = (
{
layerId = "44E8B56B-104B-45A6-8718-400D756F8F39";
name = Regular;
paths = (
{
closed = 1;
nodes = (
"189 998 LINE",
"189 0 LINE",
"361 0 LINE",
"361 998 LINE"
);
},
{
closed = 1;
nodes = (
"189 1361 LINE",
"189 1181 LINE",
"361 1181 LINE",
"361 1361 LINE"
);
}
);
width = 534;
}
);
unicode = 0069;
},
{
glyphname = dotlessi;
lastChange = "2012-12-20 16:11:27 -0800";
layers = (
{
anchors = (
{
name = ogonek;
position = "{372, 10}";
},
{
name = top;
position = "{207, 998}";
}
);
layerId = "44E8B56B-104B-45A6-8718-400D756F8F39";
name = Regular;
paths = (
{
closed = 1;
nodes = (
"130 999 LINE",
"130 0 LINE",
"284 0 LINE",
"284 999 LINE"
);
}
);
width = 413;
}
);
unicode = 0131;
},
{
glyphname = ibreve;
lastChange = "2012-12-20 03:58:12 -0800";
layers = (
{
layerId = "44E8B56B-104B-45A6-8718-400D756F8F39";
name = Regular;
paths = (
{
closed = 1;
nodes = (
"130 999 LINE",
"130 0 LINE",
"284 0 LINE",
"284 999 LINE"
);
},
{
closed = 1;
nodes = (
"330 1404 LINE",
"330 1317 OFFCURVE",
"272 1276 OFFCURVE",
"206 1276 CURVE SMOOTH",
"140 1276 OFFCURVE",
"85 1317 OFFCURVE",
"85 1404 CURVE",
"-22 1404 LINE",
"-22 1247 OFFCURVE",
"94 1182 OFFCURVE",
"206 1182 CURVE SMOOTH",
"319 1182 OFFCURVE",
"436 1247 OFFCURVE",
"436 1404 CURVE"
);
}
);
width = 413;
}
);
unicode = 012D;
},
{
glyphname = itilde;
lastChange = "2012-12-20 03:58:12 -0800";
layers = (
{
layerId = "44E8B56B-104B-45A6-8718-400D756F8F39";
name = Regular;
paths = (
{
closed = 1;
nodes = (
"130 999 LINE",
"130 0 LINE",
"284 0 LINE",
"284 999 LINE"
);
},
{
closed = 1;
nodes = (
"391 1381 LINE",
"388 1343 OFFCURVE",
"385 1299 OFFCURVE",
"349 1296 CURVE",
"349 1296 OFFCURVE",
"193 1381 OFFCURVE",
"80 1381 CURVE SMOOTH",
"-18 1381 OFFCURVE",
"-77 1318 OFFCURVE",
"-77 1182 CURVE",
"21 1182 LINE",
"24 1232 OFFCURVE",
"41 1269 OFFCURVE",
"71 1270 CURVE",
"71 1270 OFFCURVE",
"273 1182 OFFCURVE",
"355 1182 CURVE SMOOTH",
"451 1182 OFFCURVE",
"491 1256 OFFCURVE",
"491 1381 CURVE"
);
}
);
width = 413;
}
);
unicode = 0129;
},
{
glyphname = j;
lastChange = "2012-12-28 16:51:01 -0800";
layers = (
{
layerId = "44E8B56B-104B-45A6-8718-400D756F8F39";
name = Regular;
paths = (
{
closed = 1;
nodes = (
"181 998 LINE",
"181 -127 LINE SMOOTH",
"181 -215 OFFCURVE",
"167 -257 OFFCURVE",
"30 -257 CURVE SMOOTH",
"-18 -257 LINE",
"2 -398 LINE",
"50 -398 LINE SMOOTH",
"298 -398 OFFCURVE",
"353 -312 OFFCURVE",
"353 -68 CURVE SMOOTH",
"353 998 LINE"
);
},
{
closed = 1;
nodes = (
"181 1361 LINE",
"181 1181 LINE",
"353 1181 LINE",
"353 1361 LINE"
);
}
);
width = 518;
}
);
unicode = 006A;
},
{
glyphname = uni0237;
lastChange = "2012-12-20 03:58:12 -0800";
layers = (
{
anchors = (
{
name = top;
position = "{209, 0}";
}
);
layerId = "44E8B56B-104B-45A6-8718-400D756F8F39";
name = Regular;
paths = (
{
closed = 1;
nodes = (
"123 998 LINE",
"123 -122 LINE SMOOTH",
"123 -222 OFFCURVE",
"112 -257 OFFCURVE",
"-25 -257 CURVE SMOOTH",
"-73 -257 LINE",
"-53 -398 LINE",
"-5 -398 LINE SMOOTH",
"243 -398 OFFCURVE",
"298 -312 OFFCURVE",
"298 -68 CURVE SMOOTH",
"298 998 LINE"
);
}
);
width = 417;
}
);
unicode = 0237;
},
{
glyphname = jcircumflex;
lastChange = "2012-12-20 03:58:12 -0800";
layers = (
{
layerId = "44E8B56B-104B-45A6-8718-400D756F8F39";
name = Regular;
paths = (
{
closed = 1;
nodes = (
"123 998 LINE",
"123 -122 LINE SMOOTH",
"123 -222 OFFCURVE",
"112 -257 OFFCURVE",
"-25 -257 CURVE SMOOTH",
"-73 -257 LINE",
"-53 -398 LINE",
"-5 -398 LINE SMOOTH",
"243 -398 OFFCURVE",
"298 -312 OFFCURVE",
"298 -68 CURVE SMOOTH",
"298 998 LINE"
);
},
{
closed = 1;
nodes = (
"16 1535 LINE",
"-155 1182 LINE",
"-36 1182 LINE",
"112 1430 LINE",
"259 1182 LINE",
"380 1182 LINE",
"210 1535 LINE"
);
}
);
width = 417;
}
);
unicode = 0135;
},
{
glyphname = k;
lastChange = "2012-12-28 16:51:01 -0800";
layers = (
{
anchors = (
{
name = bottom;
position = "{535, 0}";
}
);
layerId = "44E8B56B-104B-45A6-8718-400D756F8F39";
name = Regular;
paths = (
{
closed = 1;
nodes = (
"176 1395 LINE",
"176 0 LINE",
"348 0 LINE",
"348 363 LINE",
"487 496 LINE",
"834 0 LINE",
"1027 0 LINE",
"618 570 LINE",
"1017 998 LINE",
"802 998 LINE",
"348 515 LINE",
"348 1409 LINE"
);
}
);
width = 1063;
}
);
rightKerningGroup = k_Left;
unicode = 006B;
},
{
glyphname = kgreenlandic;
lastChange = "2012-12-20 03:58:12 -0800";
layers = (
{
layerId = "44E8B56B-104B-45A6-8718-400D756F8F39";
name = Regular;
paths = (
{
closed = 1;
nodes = (
"130 999 LINE",
"130 0 LINE",
"281 0 LINE",
"281 373 LINE",
"392 469 LINE",
"757 0 LINE",
"946 0 LINE",
"502 555 LINE",
"917 998 LINE",
"724 998 LINE",
"589 855 OFFCURVE",
"431 690 OFFCURVE",
"315 557 CURVE SMOOTH",
"281 520 LINE",
"281 999 LINE"
);
}
);
width = 1047;
}
);
rightKerningGroup = k_Left;
unicode = 0138;
},
{
glyphname = l;
lastChange = "2012-12-28 16:51:01 -0800";
layers = (
{
anchors = (
{
name = bottom;
position = "{284, 0}";
},
{
name = top;
position = "{284, 0}";
},
{
name = topright;
position = "{543, 0}";
}
);
layerId = "44E8B56B-104B-45A6-8718-400D756F8F39";
name = Regular;
paths = (
{
closed = 1;
nodes = (
"178 1395 LINE",
"178 305 LINE SMOOTH",
"178 45 OFFCURVE",
"271 -18 OFFCURVE",
"428 -18 CURVE SMOOTH",
"454 -18 OFFCURVE",
"501 -16 OFFCURVE",
"549 -9 CURVE",
"557 116 LINE",
"463 116 LINE SMOOTH",
"388 116 OFFCURVE",
"350 153 OFFCURVE",
"350 345 CURVE SMOOTH",
"350 1409 LINE"
);
}
);
width = 601;
}
);
unicode = 006C;
},
{
glyphname = lacute;
lastChange = "2012-12-20 03:58:12 -0800";
layers = (
{
layerId = "44E8B56B-104B-45A6-8718-400D756F8F39";
name = Regular;
paths = (
{
closed = 1;
nodes = (
"189 1395 LINE",
"189 305 LINE SMOOTH",
"189 45 OFFCURVE",
"262 -18 OFFCURVE",
"419 -18 CURVE SMOOTH",
"445 -18 OFFCURVE",
"481 -16 OFFCURVE",
"529 -9 CURVE",
"518 116 LINE",
"454 116 LINE SMOOTH",
"379 116 OFFCURVE",
"364 153 OFFCURVE",
"364 345 CURVE SMOOTH",
"364 1409 LINE"
);
},
{
closed = 1;
nodes = (
"477 1925 LINE",
"307 1572 LINE",
"411 1572 LINE",
"707 1925 LINE"
);
}
);
width = 642;
}
);
unicode = 013A;
},
{
glyphname = lcaron;
lastChange = "2012-12-20 03:58:12 -0800";
layers = (
{
layerId = "44E8B56B-104B-45A6-8718-400D756F8F39";
name = Regular;
paths = (
{
closed = 1;
nodes = (
"189 1395 LINE",
"189 305 LINE SMOOTH",
"189 45 OFFCURVE",
"262 -18 OFFCURVE",
"419 -18 CURVE SMOOTH",
"445 -18 OFFCURVE",
"481 -16 OFFCURVE",
"529 -9 CURVE",
"518 116 LINE",
"454 116 LINE SMOOTH",
"379 116 OFFCURVE",
"364 153 OFFCURVE",
"364 345 CURVE SMOOTH",
"364 1409 LINE"
);
},
{
closed = 1;
nodes = (
"859 1409 LINE",
"774 980 LINE",
"880 980 LINE",
"1002 1409 LINE"
);
}
);
width = 642;
}
);
unicode = 013E;
},
{
glyphname = lcommaaccent;
lastChange = "2012-12-20 03:58:12 -0800";
layers = (
{
layerId = "44E8B56B-104B-45A6-8718-400D756F8F39";
name = Regular;
paths = (
{
closed = 1;
nodes = (
"189 1395 LINE",
"189 305 LINE SMOOTH",
"189 45 OFFCURVE",
"262 -18 OFFCURVE",
"419 -18 CURVE SMOOTH",
"445 -18 OFFCURVE",
"481 -16 OFFCURVE",
"529 -9 CURVE",
"518 116 LINE",
"454 116 LINE SMOOTH",
"379 116 OFFCURVE",
"364 153 OFFCURVE",
"364 345 CURVE SMOOTH",
"364 1409 LINE"
);
},
{
closed = 1;
nodes = (
"327 -181 LINE",
"241 -635 LINE",
"348 -635 LINE",
"478 -181 LINE"
);
}
);
width = 642;
}
);
unicode = 013C;
},
{
glyphname = lslash;
lastChange = "2012-12-20 03:58:12 -0800";
layers = (
{
layerId = "44E8B56B-104B-45A6-8718-400D756F8F39";
name = Regular;
paths = (
{
closed = 1;
nodes = (
"216 1356 LINE",
"216 653 LINE",
"114 574 LINE",
"114 442 LINE",
"216 521 LINE",
"216 426 LINE SMOOTH",
"216 97 OFFCURVE",
"237 -19 OFFCURVE",
"480 -19 CURVE SMOOTH",
"497 -19 OFFCURVE",
"596 -12 OFFCURVE",
"642 -7 CURVE",
"628 116 LINE",
"583 112 OFFCURVE",
"527 107 OFFCURVE",
"502 107 CURVE SMOOTH",
"372 107 OFFCURVE",
"369 175 OFFCURVE",
"369 392 CURVE SMOOTH",
"369 640 LINE",
"529 763 LINE",
"529 896 LINE",
"369 772 LINE",
"369 1374 LINE"
);
}
);
width = 740;
}
);
unicode = 0142;
},
{
glyphname = m;
lastChange = "2012-12-28 16:51:01 -0800";
layers = (
{
layerId = "44E8B56B-104B-45A6-8718-400D756F8F39";
name = Regular;
paths = (
{
closed = 1;
nodes = (
"1131 1019 OFFCURVE",
"1014 960 OFFCURVE",
"945 840 CURVE",
"918 918 OFFCURVE",
"832 1019 OFFCURVE",
"649 1019 CURVE SMOOTH",
"506 1019 OFFCURVE",
"387 939 OFFCURVE",
"335 855 CURVE",
"317 998 LINE",
"174 998 LINE",
"174 0 LINE",
"343 0 LINE",
"343 525 LINE SMOOTH",
"343 738 OFFCURVE",
"419 887 OFFCURVE",
"626 887 CURVE SMOOTH",
"764 887 OFFCURVE",
"815 787 OFFCURVE",
"815 563 CURVE SMOOTH",
"815 0 LINE",
"984 0 LINE",
"984 535 LINE SMOOTH",
"984 751 OFFCURVE",
"1054 887 OFFCURVE",
"1241 887 CURVE SMOOTH",
"1408 887 OFFCURVE",
"1432 734 OFFCURVE",
"1432 520 CURVE SMOOTH",
"1432 0 LINE",
"1601 0 LINE",
"1601 642 LINE SMOOTH",
"1601 886 OFFCURVE",
"1478 1019 OFFCURVE",
"1266 1019 CURVE SMOOTH"
);
}
);
width = 1751;
}
);
leftKerningGroup = n_Right;
rightKerningGroup = n_Left;
unicode = 006D;
},
{
glyphname = n;
lastChange = "2012-12-28 16:51:01 -0800";
layers = (
{
anchors = (
{
name = bottom;
position = "{586, 0}";
},
{
name = top;
position = "{633, 1019}";
}
);
layerId = "44E8B56B-104B-45A6-8718-400D756F8F39";
name = Regular;
paths = (
{
closed = 1;
nodes = (
"525 1019 OFFCURVE",
"411 963 OFFCURVE",
"339 855 CURVE",
"320 998 LINE",
"174 998 LINE",
"174 0 LINE",
"346 0 LINE",
"346 546 LINE SMOOTH",
"346 752 OFFCURVE",
"426 887 OFFCURVE",
"634 887 CURVE SMOOTH",
"787 887 OFFCURVE",
"841 788 OFFCURVE",
"841 623 CURVE SMOOTH",
"841 0 LINE",
"1013 0 LINE",
"1013 612 LINE SMOOTH",
"1013 880 OFFCURVE",
"898 1019 OFFCURVE",
"668 1019 CURVE SMOOTH"
);
}
);
width = 1163;
}
);
leftKerningGroup = n_Right;
rightKerningGroup = n_Left;
unicode = 006E;
},
{
glyphname = napostrophe;
lastChange = "2012-12-20 03:58:12 -0800";
layers = (
{
layerId = "44E8B56B-104B-45A6-8718-400D756F8F39";
name = Regular;
paths = (
{
closed = 1;
nodes = (
"994 1019 OFFCURVE",
"883 963 OFFCURVE",
"811 855 CURVE",
"792 998 LINE",
"643 998 LINE",
"643 0 LINE",
"818 0 LINE",
"818 546 LINE SMOOTH",
"818 752 OFFCURVE",
"887 889 OFFCURVE",
"1103 889 CURVE SMOOTH",
"1256 889 OFFCURVE",
"1307 788 OFFCURVE",
"1307 623 CURVE SMOOTH",
"1307 0 LINE",
"1482 0 LINE",
"1482 612 LINE SMOOTH",
"1482 880 OFFCURVE",
"1367 1019 OFFCURVE",
"1137 1019 CURVE SMOOTH"
);
},
{
closed = 1;
nodes = (
"206 1432 LINE",
"121 1003 LINE",
"227 1003 LINE",
"349 1432 LINE"
);
}
);
width = 1647;
}
);
unicode = 0149;
},
{
glyphname = ncommaaccent;
lastChange = "2012-12-20 03:58:12 -0800";
layers = (
{
layerId = "44E8B56B-104B-45A6-8718-400D756F8F39";
name = Regular;
paths = (
{
closed = 1;
nodes = (
"536 1019 OFFCURVE",
"425 963 OFFCURVE",
"353 855 CURVE",
"334 998 LINE",
"185 998 LINE",
"185 0 LINE",
"360 0 LINE",
"360 546 LINE SMOOTH",
"360 752 OFFCURVE",
"429 889 OFFCURVE",
"645 889 CURVE SMOOTH",
"798 889 OFFCURVE",
"849 788 OFFCURVE",
"849 623 CURVE SMOOTH",
"849 0 LINE",
"1024 0 LINE",
"1024 612 LINE SMOOTH",
"1024 880 OFFCURVE",
"909 1019 OFFCURVE",
"679 1019 CURVE SMOOTH"
);
},
{
closed = 1;
nodes = (
"572 -163 LINE",
"486 -617 LINE",
"593 -617 LINE",
"723 -163 LINE"
);
}
);
width = 1189;
}
);
leftKerningGroup = n_Right;
rightKerningGroup = n_Left;
unicode = 0146;
},
{
glyphname = eng;
lastChange = "2012-12-20 03:58:12 -0800";
layers = (
{
layerId = "44E8B56B-104B-45A6-8718-400D756F8F39";
name = Regular;
paths = (
{
closed = 1;
nodes = (
"492 1019 OFFCURVE",
"389 963 OFFCURVE",
"317 855 CURVE",
"298 998 LINE",
"149 998 LINE",
"149 0 LINE",
"324 0 LINE",
"324 546 LINE SMOOTH",
"324 597 OFFCURVE",
"327 643 OFFCURVE",
"333 686 CURVE",
"363 801 OFFCURVE",
"439 889 OFFCURVE",
"601 889 CURVE SMOOTH",
"754 889 OFFCURVE",
"790 788 OFFCURVE",
"790 623 CURVE SMOOTH",
"790 95 LINE SMOOTH",
"790 -100 OFFCURVE",
"774 -128 OFFCURVE",
"617 -128 CURVE SMOOTH",
"578 -128 LINE",
"589 -275 LINE",
"653 -275 LINE SMOOTH",
"923 -275 OFFCURVE",
"965 -134 OFFCURVE",
"965 144 CURVE SMOOTH",
"965 612 LINE SMOOTH",
"965 880 OFFCURVE",
"865 1019 OFFCURVE",
"635 1019 CURVE SMOOTH"
);
}
);
width = 1096;
}
);
unicode = 014B;
},
{
glyphname = o;
lastChange = "2012-12-28 16:51:01 -0800";
layers = (
{
anchors = (
{
name = top;
position = "{602, 1019}";
}
);
layerId = "44E8B56B-104B-45A6-8718-400D756F8F39";
name = Regular;
paths = (
{
closed = 1;
nodes = (
"301 1019 OFFCURVE",
"114 804 OFFCURVE",
"114 499 CURVE SMOOTH",
"114 200 OFFCURVE",
"311 -20 OFFCURVE",
"602 -20 CURVE SMOOTH",
"893 -20 OFFCURVE",
"1090 200 OFFCURVE",
"1090 499 CURVE SMOOTH",
"1090 804 OFFCURVE",
"903 1019 OFFCURVE",
"602 1019 CURVE SMOOTH"
);
},
{
closed = 1;
nodes = (
"808 887 OFFCURVE",
"915 725 OFFCURVE",
"915 497 CURVE SMOOTH",
"915 273 OFFCURVE",
"809 112 OFFCURVE",
"602 112 CURVE SMOOTH",
"395 112 OFFCURVE",
"288 273 OFFCURVE",
"288 497 CURVE SMOOTH",
"288 725 OFFCURVE",
"396 887 OFFCURVE",
"602 887 CURVE SMOOTH"
);
}
);
width = 1197;
}
);
leftKerningGroup = o_Right;
rightKerningGroup = o_Left;
unicode = 006F;
},
{
glyphname = obreve;
lastChange = "2012-12-20 03:58:12 -0800";
layers = (
{
layerId = "44E8B56B-104B-45A6-8718-400D756F8F39";
name = Regular;
paths = (
{
closed = 1;
nodes = (
"297 1019 OFFCURVE",
"126 804 OFFCURVE",
"126 499 CURVE SMOOTH",
"126 200 OFFCURVE",
"307 -21 OFFCURVE",
"592 -21 CURVE SMOOTH",
"877 -21 OFFCURVE",
"1058 200 OFFCURVE",
"1058 499 CURVE SMOOTH",
"1058 804 OFFCURVE",
"887 1019 OFFCURVE",
"592 1019 CURVE SMOOTH"
);
},
{
closed = 1;
nodes = (
"798 886 OFFCURVE",
"883 719 OFFCURVE",
"883 497 CURVE SMOOTH",
"883 279 OFFCURVE",
"799 112 OFFCURVE",
"592 112 CURVE SMOOTH",
"385 112 OFFCURVE",
"300 279 OFFCURVE",
"300 497 CURVE SMOOTH",
"300 719 OFFCURVE",
"386 886 OFFCURVE",
"592 886 CURVE SMOOTH"
);
},
{
closed = 1;
nodes = (
"715 1404 LINE",
"715 1317 OFFCURVE",
"657 1276 OFFCURVE",
"591 1276 CURVE SMOOTH",
"525 1276 OFFCURVE",
"470 1317 OFFCURVE",
"470 1404 CURVE",
"364 1404 LINE",
"364 1247 OFFCURVE",
"479 1182 OFFCURVE",
"591 1182 CURVE SMOOTH",
"704 1182 OFFCURVE",
"821 1247 OFFCURVE",
"821 1404 CURVE"
);
}
);
width = 1184;
}
);
leftKerningGroup = o_Right;
rightKerningGroup = o_Left;
unicode = 014F;
},
{
glyphname = ohorn;
lastChange = "2012-12-20 03:58:12 -0800";
layers = (
{
layerId = "44E8B56B-104B-45A6-8718-400D756F8F39";
name = Regular;
paths = (
{
closed = 1;
nodes = (
"297 1019 OFFCURVE",
"126 804 OFFCURVE",
"126 499 CURVE SMOOTH",
"126 200 OFFCURVE",
"307 -21 OFFCURVE",
"592 -21 CURVE SMOOTH",
"877 -21 OFFCURVE",
"1058 200 OFFCURVE",
"1058 499 CURVE SMOOTH",
"1058 804 OFFCURVE",
"887 1019 OFFCURVE",
"592 1019 CURVE SMOOTH"
);
},
{
closed = 1;
nodes = (
"798 886 OFFCURVE",
"883 719 OFFCURVE",
"883 497 CURVE SMOOTH",
"883 279 OFFCURVE",
"799 112 OFFCURVE",
"592 112 CURVE SMOOTH",
"385 112 OFFCURVE",
"300 279 OFFCURVE",
"300 497 CURVE SMOOTH",
"300 719 OFFCURVE",
"386 886 OFFCURVE",
"592 886 CURVE SMOOTH"
);
},
{
closed = 1;
nodes = (
"1227 1019 LINE",
"1241 982 OFFCURVE",
"1254 930 OFFCURVE",
"1254 885 CURVE SMOOTH",
"1254 835 OFFCURVE",
"1238 794 OFFCURVE",
"1185 794 CURVE SMOOTH",
"1170 794 OFFCURVE",
"1154 796 OFFCURVE",
"1140 796 CURVE",
"1140 710 LINE",
"1168 707 OFFCURVE",
"1198 705 OFFCURVE",
"1224 705 CURVE SMOOTH",
"1316 705 OFFCURVE",
"1362 786 OFFCURVE",
"1362 882 CURVE SMOOTH",
"1362 927 OFFCURVE",
"1352 974 OFFCURVE",
"1333 1019 CURVE"
);
}
);
width = 1184;
}
);
unicode = 01A1;
},
{
glyphname = ohungarumlaut;
lastChange = "2012-12-20 03:58:12 -0800";
layers = (
{
layerId = "44E8B56B-104B-45A6-8718-400D756F8F39";
name = Regular;
paths = (
{
closed = 1;
nodes = (
"297 1019 OFFCURVE",
"126 804 OFFCURVE",
"126 499 CURVE SMOOTH",
"126 200 OFFCURVE",
"307 -21 OFFCURVE",
"592 -21 CURVE SMOOTH",
"877 -21 OFFCURVE",
"1058 200 OFFCURVE",
"1058 499 CURVE SMOOTH",
"1058 804 OFFCURVE",
"887 1019 OFFCURVE",
"592 1019 CURVE SMOOTH"
);
},
{
closed = 1;
nodes = (
"798 886 OFFCURVE",
"883 719 OFFCURVE",
"883 497 CURVE SMOOTH",
"883 279 OFFCURVE",
"799 112 OFFCURVE",
"592 112 CURVE SMOOTH",
"385 112 OFFCURVE",
"300 279 OFFCURVE",
"300 497 CURVE SMOOTH",
"300 719 OFFCURVE",
"386 886 OFFCURVE",
"592 886 CURVE SMOOTH"
);
},
{
closed = 1;
nodes = (
"621 1487 LINE",
"440 1182 LINE",
"531 1182 LINE",
"760 1487 LINE"
);
},
{
closed = 1;
nodes = (
"836 1487 LINE",
"653 1182 LINE",
"745 1182 LINE",
"973 1487 LINE"
);
}
);
width = 1184;
}
);
leftKerningGroup = o_Right;
rightKerningGroup = o_Left;
unicode = 0151;
},
{
glyphname = omacron;
lastChange = "2012-12-20 03:58:12 -0800";
layers = (
{
layerId = "44E8B56B-104B-45A6-8718-400D756F8F39";
name = Regular;
paths = (
{
closed = 1;
nodes = (
"297 1019 OFFCURVE",
"126 804 OFFCURVE",
"126 499 CURVE SMOOTH",
"126 200 OFFCURVE",
"307 -21 OFFCURVE",
"592 -21 CURVE SMOOTH",
"877 -21 OFFCURVE",
"1058 200 OFFCURVE",
"1058 499 CURVE SMOOTH",
"1058 804 OFFCURVE",
"887 1019 OFFCURVE",
"592 1019 CURVE SMOOTH"
);
},
{
closed = 1;
nodes = (
"798 886 OFFCURVE",
"883 719 OFFCURVE",
"883 497 CURVE SMOOTH",
"883 279 OFFCURVE",
"799 112 OFFCURVE",
"592 112 CURVE SMOOTH",
"385 112 OFFCURVE",
"300 279 OFFCURVE",
"300 497 CURVE SMOOTH",
"300 719 OFFCURVE",
"386 886 OFFCURVE",
"592 886 CURVE SMOOTH"
);
},
{
closed = 1;
nodes = (
"288 1309 LINE",
"288 1182 LINE",
"896 1182 LINE",
"896 1309 LINE"
);
}
);
width = 1184;
}
);
leftKerningGroup = o_Right;
rightKerningGroup = o_Left;
unicode = 014D;
},
{
glyphname = oslash;
lastChange = "2012-12-20 03:58:12 -0800";
layers = (
{
anchors = (
{
name = top;
position = "{573, 0}";
}
);
layerId = "44E8B56B-104B-45A6-8718-400D756F8F39";
name = Regular;
paths = (
{
closed = 1;
nodes = (
"745 996 LINE",
"696 1013 OFFCURVE",
"640 1023 OFFCURVE",
"579 1023 CURVE SMOOTH",
"277 1023 OFFCURVE",
"106 784 OFFCURVE",
"106 498 CURVE SMOOTH",
"106 299 OFFCURVE",
"188 124 OFFCURVE",
"339 37 CURVE",
"232 -216 LINE",
"296 -250 LINE",
"406 6 LINE",
"457 -13 OFFCURVE",
"514 -23 OFFCURVE",
"577 -23 CURVE SMOOTH",
"876 -23 OFFCURVE",
"1039 223 OFFCURVE",
"1039 500 CURVE SMOOTH",
"1039 701 OFFCURVE",
"963 878 OFFCURVE",
"813 965 CURVE",
"920 1216 LINE",
"850 1244 LINE"
);
},
{
closed = 1;
nodes = (
"622 897 OFFCURVE",
"660 890 OFFCURVE",
"694 876 CURVE",
"393 166 LINE",
"305 239 OFFCURVE",
"264 365 OFFCURVE",
"264 495 CURVE SMOOTH",
"264 699 OFFCURVE",
"362 897 OFFCURVE",
"577 897 CURVE SMOOTH"
);
},
{
closed = 1;
nodes = (
"846 766 OFFCURVE",
"881 637 OFFCURVE",
"881 498 CURVE SMOOTH",
"881 294 OFFCURVE",
"795 103 OFFCURVE",
"579 103 CURVE SMOOTH",
"533 103 OFFCURVE",
"492 111 OFFCURVE",
"457 126 CURVE",
"759 838 LINE"
);
}
);
width = 1145;
}
);
leftKerningGroup = o_Right;
rightKerningGroup = o_Left;
unicode = 00F8;
},
{
glyphname = oslashacute;
lastChange = "2012-12-20 03:58:12 -0800";
layers = (
{
layerId = "44E8B56B-104B-45A6-8718-400D756F8F39";
name = Regular;
paths = (
{
closed = 1;
nodes = (
"748 996 LINE",
"699 1013 OFFCURVE",
"643 1023 OFFCURVE",
"582 1023 CURVE SMOOTH",
"280 1023 OFFCURVE",
"109 784 OFFCURVE",
"109 498 CURVE SMOOTH",
"109 299 OFFCURVE",
"191 124 OFFCURVE",
"342 37 CURVE",
"235 -216 LINE",
"299 -250 LINE",
"409 6 LINE",
"460 -13 OFFCURVE",
"517 -23 OFFCURVE",
"580 -23 CURVE SMOOTH",
"879 -23 OFFCURVE",
"1042 223 OFFCURVE",
"1042 500 CURVE SMOOTH",
"1042 701 OFFCURVE",
"966 878 OFFCURVE",
"816 965 CURVE",
"923 1216 LINE",
"853 1244 LINE"
);
},
{
closed = 1;
nodes = (
"625 897 OFFCURVE",
"663 890 OFFCURVE",
"697 876 CURVE",
"396 166 LINE",
"308 239 OFFCURVE",
"267 365 OFFCURVE",
"267 495 CURVE SMOOTH",
"267 699 OFFCURVE",
"365 897 OFFCURVE",
"580 897 CURVE SMOOTH"
);
},
{
closed = 1;
nodes = (
"849 766 OFFCURVE",
"884 637 OFFCURVE",
"884 498 CURVE SMOOTH",
"884 294 OFFCURVE",
"798 103 OFFCURVE",
"582 103 CURVE SMOOTH",
"536 103 OFFCURVE",
"495 111 OFFCURVE",
"460 126 CURVE",
"762 838 LINE"
);
},
{
closed = 1;
nodes = (
"694 1760 LINE",
"524 1407 LINE",
"628 1407 LINE",
"924 1760 LINE"
);
}
);
width = 1158;
}
);
unicode = 01FF;
},
{
glyphname = oe;
lastChange = "2012-12-20 03:58:12 -0800";
layers = (
{
anchors = (
{
name = top;
position = "{911, 0}";
}
);
layerId = "44E8B56B-104B-45A6-8718-400D756F8F39";
name = Regular;
paths = (
{
closed = 1;
nodes = (
"1164 1018 OFFCURVE",
"1024 938 OFFCURVE",
"949 809 CURVE",
"879 938 OFFCURVE",
"754 1023 OFFCURVE",
"571 1023 CURVE SMOOTH",
"269 1023 OFFCURVE",
"109 784 OFFCURVE",
"109 498 CURVE SMOOTH",
"109 211 OFFCURVE",
"267 -23 OFFCURVE",
"569 -23 CURVE SMOOTH",
"746 -23 OFFCURVE",
"872 64 OFFCURVE",
"945 192 CURVE",
"1021 56 OFFCURVE",
"1154 -23 OFFCURVE",
"1331 -23 CURVE SMOOTH",
"1491 -23 OFFCURVE",
"1607 27 OFFCURVE",
"1689 97 CURVE",
"1642 208 LINE",
"1571 160 OFFCURVE",
"1478 108 OFFCURVE",
"1336 108 CURVE SMOOTH",
"1160 108 OFFCURVE",
"1029 247 OFFCURVE",
"1029 472 CURVE",
"1702 472 LINE",
"1702 489 OFFCURVE",
"1704 526 OFFCURVE",
"1704 541 CURVE SMOOTH",
"1704 836 OFFCURVE",
"1569 1023 OFFCURVE",
"1321 1023 CURVE SMOOTH"
);
},
{
closed = 1;
nodes = (
"794 897 OFFCURVE",
"873 710 OFFCURVE",
"873 498 CURVE SMOOTH",
"873 294 OFFCURVE",
"787 103 OFFCURVE",
"571 103 CURVE SMOOTH",
"353 103 OFFCURVE",
"267 294 OFFCURVE",
"267 495 CURVE SMOOTH",
"267 699 OFFCURVE",
"354 897 OFFCURVE",
"569 897 CURVE SMOOTH"
);
},
{
closed = 1;
nodes = (
"1458 899 OFFCURVE",
"1552 794 OFFCURVE",
"1556 589 CURVE SMOOTH",
"1556 577 LINE",
"1035 577 LINE",
"1052 774 OFFCURVE",
"1161 899 OFFCURVE",
"1312 899 CURVE SMOOTH"
);
}
);
width = 1821;
}
);
leftKerningGroup = o_Right;
unicode = 0153;
},
{
glyphname = p;
lastChange = "2012-12-28 16:51:01 -0800";
layers = (
{
layerId = "44E8B56B-104B-45A6-8718-400D756F8F39";
name = Regular;
paths = (
{
closed = 1;
nodes = (
"532 1019 OFFCURVE",
"405 956 OFFCURVE",
"348 835 CURVE",
"331 998 LINE",
"176 998 LINE",
"176 -433 LINE",
"348 -413 LINE",
"348 -55 LINE SMOOTH",
"348 7 OFFCURVE",
"347 88 OFFCURVE",
"343 154 CURVE",
"399 48 OFFCURVE",
"528 -20 OFFCURVE",
"660 -20 CURVE SMOOTH",
"930 -20 OFFCURVE",
"1090 196 OFFCURVE",
"1090 494 CURVE SMOOTH",
"1090 800 OFFCURVE",
"948 1019 OFFCURVE",
"669 1019 CURVE SMOOTH"
);
},
{
closed = 1;
nodes = (
"831 887 OFFCURVE",
"915 734 OFFCURVE",
"915 500 CURVE SMOOTH",
"915 261 OFFCURVE",
"827 112 OFFCURVE",
"636 112 CURVE SMOOTH",
"446 112 OFFCURVE",
"348 257 OFFCURVE",
"348 516 CURVE SMOOTH",
"348 746 OFFCURVE",
"428 887 OFFCURVE",
"637 887 CURVE SMOOTH"
);
}
);
width = 1206;
}
);
rightKerningGroup = o_Left;
unicode = 0070;
},
{
glyphname = thorn;
lastChange = "2012-12-20 03:58:12 -0800";
layers = (
{
layerId = "44E8B56B-104B-45A6-8718-400D756F8F39";
name = Regular;
paths = (
{
closed = 1;
nodes = (
"136 1374 LINE",
"136 -418 LINE",
"289 -418 LINE",
"289 147 LINE",
"357 31 OFFCURVE",
"471 -23 OFFCURVE",
"609 -23 CURVE SMOOTH",
"889 -23 OFFCURVE",
"1024 244 OFFCURVE",
"1024 510 CURVE SMOOTH",
"1024 800 OFFCURVE",
"860 1021 OFFCURVE",
"609 1023 CURVE SMOOTH",
"473 1023 OFFCURVE",
"367 965 OFFCURVE",
"289 849 CURVE",
"289 1374 LINE"
);
},
{
closed = 1;
nodes = (
"806 897 OFFCURVE",
"866 676 OFFCURVE",
"866 501 CURVE SMOOTH",
"866 327 OFFCURVE",
"805 103 OFFCURVE",
"592 103 CURVE SMOOTH",
"375 103 OFFCURVE",
"288 291 OFFCURVE",
"288 501 CURVE SMOOTH",
"288 710 OFFCURVE",
"392 897 OFFCURVE",
"598 897 CURVE SMOOTH"
);
}
);
width = 1136;
}
);
rightKerningGroup = o_Left;
unicode = 00FE;
},
{
glyphname = q;
lastChange = "2012-12-28 16:51:01 -0800";
layers = (
{
layerId = "44E8B56B-104B-45A6-8718-400D756F8F39";
name = Regular;
paths = (
{
closed = 1;
nodes = (
"269 1019 OFFCURVE",
"116 800 OFFCURVE",
"116 494 CURVE SMOOTH",
"116 196 OFFCURVE",
"287 -20 OFFCURVE",
"547 -20 CURVE SMOOTH",
"679 -20 OFFCURVE",
"794 43 OFFCURVE",
"860 136 CURVE",
"856 70 OFFCURVE",
"856 7 OFFCURVE",
"856 -55 CURVE SMOOTH",
"856 -433 LINE",
"1028 -413 LINE",
"1028 998 LINE",
"873 998 LINE",
"856 835 LINE",
"801 953 OFFCURVE",
"685 1019 OFFCURVE",
"548 1019 CURVE SMOOTH"
);
},
{
closed = 1;
nodes = (
"781 887 OFFCURVE",
"856 746 OFFCURVE",
"856 516 CURVE SMOOTH",
"856 257 OFFCURVE",
"790 112 OFFCURVE",
"575 112 CURVE SMOOTH",
"384 112 OFFCURVE",
"290 261 OFFCURVE",
"290 500 CURVE SMOOTH",
"290 734 OFFCURVE",
"381 887 OFFCURVE",
"575 887 CURVE SMOOTH"
);
}
);
width = 1206;
}
);
leftKerningGroup = o_Right;
unicode = 0071;
},
{
glyphname = r;
lastChange = "2012-12-28 16:51:01 -0800";
layers = (
{
anchors = (
{
name = bottom;
position = "{395, 0}";
},
{
name = top;
position = "{395, 0}";
}
);
layerId = "44E8B56B-104B-45A6-8718-400D756F8F39";
name = Regular;
paths = (
{
closed = 1;
nodes = (
"516 1007 OFFCURVE",
"402 928 OFFCURVE",
"336 819 CURVE",
"322 998 LINE",
"176 998 LINE",
"176 0 LINE",
"348 0 LINE",
"348 561 LINE SMOOTH",
"348 732 OFFCURVE",
"463 869 OFFCURVE",
"637 869 CURVE SMOOTH",
"659 869 OFFCURVE",
"692 865 OFFCURVE",
"718 860 CURVE",
"728 999 LINE",
"705 1003 OFFCURVE",
"667 1007 OFFCURVE",
"640 1007 CURVE SMOOTH"
);
}
);
width = 790;
}
);
rightKerningGroup = r_Left;
unicode = 0072;
},
{
glyphname = racute;
lastChange = "2012-12-20 03:58:12 -0800";
layers = (
{
layerId = "44E8B56B-104B-45A6-8718-400D756F8F39";
name = Regular;
paths = (
{
closed = 1;
nodes = (
"526 1007 OFFCURVE",
"414 928 OFFCURVE",
"348 819 CURVE",
"334 998 LINE",
"185 998 LINE",
"185 0 LINE",
"360 0 LINE",
"360 561 LINE SMOOTH",
"360 732 OFFCURVE",
"473 869 OFFCURVE",
"647 869 CURVE SMOOTH",
"669 869 OFFCURVE",
"693 867 OFFCURVE",
"719 862 CURVE",
"725 1002 LINE",
"702 1006 OFFCURVE",
"677 1007 OFFCURVE",
"650 1007 CURVE SMOOTH"
);
},
{
closed = 1;
nodes = (
"573 1535 LINE",
"403 1182 LINE",
"507 1182 LINE",
"803 1535 LINE"
);
}
);
width = 786;
}
);
rightKerningGroup = r_Left;
unicode = 0155;
},
{
glyphname = rcaron;
lastChange = "2012-12-20 03:58:12 -0800";
layers = (
{
layerId = "44E8B56B-104B-45A6-8718-400D756F8F39";
name = Regular;
paths = (
{
closed = 1;
nodes = (
"526 1007 OFFCURVE",
"414 928 OFFCURVE",
"348 819 CURVE",
"334 998 LINE",
"185 998 LINE",
"185 0 LINE",
"360 0 LINE",
"360 561 LINE SMOOTH",
"360 732 OFFCURVE",
"473 869 OFFCURVE",
"647 869 CURVE SMOOTH",
"669 869 OFFCURVE",
"693 867 OFFCURVE",
"719 862 CURVE",
"725 1002 LINE",
"702 1006 OFFCURVE",
"677 1007 OFFCURVE",
"650 1007 CURVE SMOOTH"
);
},
{
closed = 1;
nodes = (
"601 1535 LINE",
"454 1252 LINE",
"307 1535 LINE",
"188 1535 LINE",
"358 1182 LINE",
"552 1182 LINE",
"722 1535 LINE"
);
}
);
width = 786;
}
);
rightKerningGroup = r_Left;
unicode = 0159;
},
{
glyphname = rcommaaccent;
lastChange = "2012-12-20 03:58:12 -0800";
layers = (
{
layerId = "44E8B56B-104B-45A6-8718-400D756F8F39";
name = Regular;
paths = (
{
closed = 1;
nodes = (
"526 1007 OFFCURVE",
"414 928 OFFCURVE",
"348 819 CURVE",
"334 998 LINE",
"185 998 LINE",
"185 0 LINE",
"360 0 LINE",
"360 561 LINE SMOOTH",
"360 732 OFFCURVE",
"473 869 OFFCURVE",
"647 869 CURVE SMOOTH",
"669 869 OFFCURVE",
"693 867 OFFCURVE",
"719 862 CURVE",
"725 1002 LINE",
"702 1006 OFFCURVE",
"677 1007 OFFCURVE",
"650 1007 CURVE SMOOTH"
);
},
{
closed = 1;
nodes = (
"423 -163 LINE",
"337 -617 LINE",
"444 -617 LINE",
"574 -163 LINE"
);
}
);
width = 786;
}
);
rightKerningGroup = r_Left;
unicode = 0157;
},
{
glyphname = s;
lastChange = "2012-12-28 16:58:14 -0800";
layers = (
{
anchors = (
{
name = bottom;
position = "{448, 0}";
},
{
name = top;
position = "{448, 0}";
}
);
layerId = "44E8B56B-104B-45A6-8718-400D756F8F39";
name = Regular;
paths = (
{
closed = 1;
nodes = (
"242 1019 OFFCURVE",
"115 896 OFFCURVE",
"115 745 CURVE SMOOTH",
"116 620 OFFCURVE",
"169 525 OFFCURVE",
"350 465 CURVE SMOOTH",
"446 433 LINE",
"626 373 OFFCURVE",
"661 342 OFFCURVE",
"661 254 CURVE SMOOTH",
"661 154 OFFCURVE",
"592 112 OFFCURVE",
"450 112 CURVE SMOOTH",
"347 112 OFFCURVE",
"209 144 OFFCURVE",
"146 171 CURVE",
"114 46 LINE",
"181 20 OFFCURVE",
"322 -20 OFFCURVE",
"468 -20 CURVE SMOOTH",
"690 -20 OFFCURVE",
"803 82 OFFCURVE",
"806 269 CURVE SMOOTH",
"806 420 OFFCURVE",
"744 494 OFFCURVE",
"534 562 CURVE SMOOTH",
"441 592 LINE SMOOTH",
"292 640 OFFCURVE",
"269 679 OFFCURVE",
"269 758 CURVE SMOOTH",
"269 843 OFFCURVE",
"336 887 OFFCURVE",
"461 887 CURVE SMOOTH",
"539 887 OFFCURVE",
"668 851 OFFCURVE",
"748 815 CURVE",
"788 940 LINE",
"713 974 OFFCURVE",
"573 1019 OFFCURVE",
"452 1019 CURVE SMOOTH"
);
}
);
width = 906;
}
);
rightKerningGroup = s_left;
unicode = 0073;
},
{
glyphname = sacute;
lastChange = "2012-12-20 03:58:12 -0800";
layers = (
{
layerId = "44E8B56B-104B-45A6-8718-400D756F8F39";
name = Regular;
paths = (
{
closed = 1;
nodes = (
"247 1019 OFFCURVE",
"130 896 OFFCURVE",
"130 745 CURVE SMOOTH",
"131 620 OFFCURVE",
"198 530 OFFCURVE",
"375 465 CURVE SMOOTH",
"443 439 LINE SMOOTH",
"626 373 OFFCURVE",
"666 342 OFFCURVE",
"666 254 CURVE SMOOTH",
"666 154 OFFCURVE",
"586 98 OFFCURVE",
"447 98 CURVE SMOOTH",
"328 98 OFFCURVE",
"235 133 OFFCURVE",
"169 168 CURVE",
"137 48 LINE",
"203 5 OFFCURVE",
"312 -21 OFFCURVE",
"455 -21 CURVE SMOOTH",
"673 -21 OFFCURVE",
"805 82 OFFCURVE",
"808 269 CURVE SMOOTH",
"808 420 OFFCURVE",
"727 491 OFFCURVE",
"529 568 CURVE SMOOTH",
"465 593 LINE SMOOTH",
"322 649 OFFCURVE",
"281 672 OFFCURVE",
"281 751 CURVE SMOOTH",
"281 836 OFFCURVE",
"354 899 OFFCURVE",
"480 899 CURVE SMOOTH",
"576 899 OFFCURVE",
"655 877 OFFCURVE",
"732 845 CURVE",
"770 954 LINE",
"681 996 OFFCURVE",
"591 1019 OFFCURVE",
"473 1019 CURVE SMOOTH"
);
},
{
closed = 1;
nodes = (
"587 1535 LINE",
"417 1182 LINE",
"521 1182 LINE",
"817 1535 LINE"
);
}
);
width = 909;
}
);
rightKerningGroup = s_left;
unicode = 015B;
},
{
glyphname = scaron;
lastChange = "2012-12-20 03:58:12 -0800";
layers = (
{
layerId = "44E8B56B-104B-45A6-8718-400D756F8F39";
name = Regular;
paths = (
{
closed = 1;
nodes = (
"247 1019 OFFCURVE",
"130 896 OFFCURVE",
"130 745 CURVE SMOOTH",
"131 620 OFFCURVE",
"198 530 OFFCURVE",
"375 465 CURVE SMOOTH",
"443 439 LINE SMOOTH",
"626 373 OFFCURVE",
"666 342 OFFCURVE",
"666 254 CURVE SMOOTH",
"666 154 OFFCURVE",
"586 98 OFFCURVE",
"447 98 CURVE SMOOTH",
"328 98 OFFCURVE",
"235 133 OFFCURVE",
"169 168 CURVE",
"137 48 LINE",
"203 5 OFFCURVE",
"312 -21 OFFCURVE",
"455 -21 CURVE SMOOTH",
"673 -21 OFFCURVE",
"805 82 OFFCURVE",
"808 269 CURVE SMOOTH",
"808 420 OFFCURVE",
"727 491 OFFCURVE",
"529 568 CURVE SMOOTH",
"465 593 LINE SMOOTH",
"322 649 OFFCURVE",
"281 672 OFFCURVE",
"281 751 CURVE SMOOTH",
"281 836 OFFCURVE",
"354 899 OFFCURVE",
"480 899 CURVE SMOOTH",
"576 899 OFFCURVE",
"655 877 OFFCURVE",
"732 845 CURVE",
"770 954 LINE",
"681 996 OFFCURVE",
"591 1019 OFFCURVE",
"473 1019 CURVE SMOOTH"
);
},
{
closed = 1;
nodes = (
"615 1535 LINE",
"468 1252 LINE",
"321 1535 LINE",
"202 1535 LINE",
"372 1182 LINE",
"566 1182 LINE",
"736 1535 LINE"
);
}
);
width = 909;
}
);
rightKerningGroup = s_left;
unicode = 0161;
},
{
glyphname = scedilla;
lastChange = "2012-12-20 03:58:12 -0800";
layers = (
{
layerId = "44E8B56B-104B-45A6-8718-400D756F8F39";
name = Regular;
paths = (
{
closed = 1;
nodes = (
"247 1019 OFFCURVE",
"130 896 OFFCURVE",
"130 745 CURVE SMOOTH",
"131 620 OFFCURVE",
"198 530 OFFCURVE",
"375 465 CURVE SMOOTH",
"443 439 LINE SMOOTH",
"626 373 OFFCURVE",
"666 342 OFFCURVE",
"666 254 CURVE SMOOTH",
"666 154 OFFCURVE",
"586 98 OFFCURVE",
"447 98 CURVE SMOOTH",
"328 98 OFFCURVE",
"235 133 OFFCURVE",
"169 168 CURVE",
"137 48 LINE",
"203 5 OFFCURVE",
"312 -21 OFFCURVE",
"455 -21 CURVE SMOOTH",
"673 -21 OFFCURVE",
"805 82 OFFCURVE",
"808 269 CURVE SMOOTH",
"808 420 OFFCURVE",
"727 491 OFFCURVE",
"529 568 CURVE SMOOTH",
"465 593 LINE SMOOTH",
"322 649 OFFCURVE",
"281 672 OFFCURVE",
"281 751 CURVE SMOOTH",
"281 836 OFFCURVE",
"354 899 OFFCURVE",
"480 899 CURVE SMOOTH",
"576 899 OFFCURVE",
"655 877 OFFCURVE",
"732 845 CURVE",
"770 954 LINE",
"681 996 OFFCURVE",
"591 1019 OFFCURVE",
"473 1019 CURVE SMOOTH"
);
},
{
closed = 1;
nodes = (
"430 -8 LINE",
"328 -396 LINE",
"468 -396 LINE",
"508 -8 LINE"
);
}
);
width = 909;
}
);
rightKerningGroup = s_left;
unicode = 015F;
},
{
glyphname = scircumflex;
lastChange = "2012-12-20 03:58:12 -0800";
layers = (
{
layerId = "44E8B56B-104B-45A6-8718-400D756F8F39";
name = Regular;
paths = (
{
closed = 1;
nodes = (
"247 1019 OFFCURVE",
"130 896 OFFCURVE",
"130 745 CURVE SMOOTH",
"131 620 OFFCURVE",
"198 530 OFFCURVE",
"375 465 CURVE SMOOTH",
"443 439 LINE SMOOTH",
"626 373 OFFCURVE",
"666 342 OFFCURVE",
"666 254 CURVE SMOOTH",
"666 154 OFFCURVE",
"586 98 OFFCURVE",
"447 98 CURVE SMOOTH",
"328 98 OFFCURVE",
"235 133 OFFCURVE",
"169 168 CURVE",
"137 48 LINE",
"203 5 OFFCURVE",
"312 -21 OFFCURVE",
"455 -21 CURVE SMOOTH",
"673 -21 OFFCURVE",
"805 82 OFFCURVE",
"808 269 CURVE SMOOTH",
"808 420 OFFCURVE",
"727 491 OFFCURVE",
"529 568 CURVE SMOOTH",
"465 593 LINE SMOOTH",
"322 649 OFFCURVE",
"281 672 OFFCURVE",
"281 751 CURVE SMOOTH",
"281 836 OFFCURVE",
"354 899 OFFCURVE",
"480 899 CURVE SMOOTH",
"576 899 OFFCURVE",
"655 877 OFFCURVE",
"732 845 CURVE",
"770 954 LINE",
"681 996 OFFCURVE",
"591 1019 OFFCURVE",
"473 1019 CURVE SMOOTH"
);
},
{
closed = 1;
nodes = (
"372 1535 LINE",
"202 1182 LINE",
"321 1182 LINE",
"468 1430 LINE",
"615 1182 LINE",
"736 1182 LINE",
"566 1535 LINE"
);
}
);
width = 909;
}
);
rightKerningGroup = s_left;
unicode = 015D;
},
{
glyphname = scommaaccent;
lastChange = "2012-12-20 03:58:12 -0800";
layers = (
{
layerId = "44E8B56B-104B-45A6-8718-400D756F8F39";
name = Regular;
paths = (
{
closed = 1;
nodes = (
"247 1019 OFFCURVE",
"130 896 OFFCURVE",
"130 745 CURVE SMOOTH",
"131 620 OFFCURVE",
"198 530 OFFCURVE",
"375 465 CURVE SMOOTH",
"443 439 LINE SMOOTH",
"626 373 OFFCURVE",
"666 342 OFFCURVE",
"666 254 CURVE SMOOTH",
"666 154 OFFCURVE",
"586 98 OFFCURVE",
"447 98 CURVE SMOOTH",
"328 98 OFFCURVE",
"235 133 OFFCURVE",
"169 168 CURVE",
"137 48 LINE",
"203 5 OFFCURVE",
"312 -21 OFFCURVE",
"455 -21 CURVE SMOOTH",
"673 -21 OFFCURVE",
"805 82 OFFCURVE",
"808 269 CURVE SMOOTH",
"808 420 OFFCURVE",
"727 491 OFFCURVE",
"529 568 CURVE SMOOTH",
"465 593 LINE SMOOTH",
"322 649 OFFCURVE",
"281 672 OFFCURVE",
"281 751 CURVE SMOOTH",
"281 836 OFFCURVE",
"354 899 OFFCURVE",
"480 899 CURVE SMOOTH",
"576 899 OFFCURVE",
"655 877 OFFCURVE",
"732 845 CURVE",
"770 954 LINE",
"681 996 OFFCURVE",
"591 1019 OFFCURVE",
"473 1019 CURVE SMOOTH"
);
},
{
closed = 1;
nodes = (
"437 -184 LINE",
"351 -638 LINE",
"458 -638 LINE",
"588 -184 LINE"
);
}
);
width = 909;
}
);
rightKerningGroup = s_left;
unicode = 0219;
},
{
glyphname = germandbls;
lastChange = "2012-12-20 03:58:12 -0800";
layers = (
{
layerId = "44E8B56B-104B-45A6-8718-400D756F8F39";
name = Regular;
paths = (
{
closed = 1;
nodes = (
"279 1388 OFFCURVE",
"149 1222 OFFCURVE",
"149 952 CURVE SMOOTH",
"149 0 LINE",
"302 0 LINE",
"302 961 LINE SMOOTH",
"302 1134 OFFCURVE",
"373 1249 OFFCURVE",
"559 1249 CURVE SMOOTH",
"671 1249 OFFCURVE",
"733 1187 OFFCURVE",
"733 1077 CURVE SMOOTH",
"733 952 OFFCURVE",
"560 836 OFFCURVE",
"560 684 CURVE SMOOTH",
"560 521 OFFCURVE",
"832 465 OFFCURVE",
"876 312 CURVE SMOOTH",
"881 294 OFFCURVE",
"884 276 OFFCURVE",
"884 259 CURVE SMOOTH",
"884 181 OFFCURVE",
"832 116 OFFCURVE",
"734 116 CURVE SMOOTH",
"657 116 OFFCURVE",
"548 156 OFFCURVE",
"490 187 CURVE",
"436 56 LINE",
"493 22 OFFCURVE",
"617 -18 OFFCURVE",
"748 -18 CURVE SMOOTH",
"928 -18 OFFCURVE",
"1052 103 OFFCURVE",
"1052 268 CURVE SMOOTH",
"1052 284 OFFCURVE",
"1050 300 OFFCURVE",
"1048 317 CURVE SMOOTH",
"1015 548 OFFCURVE",
"718 588 OFFCURVE",
"718 699 CURVE SMOOTH",
"718 792 OFFCURVE",
"895 903 OFFCURVE",
"895 1076 CURVE SMOOTH",
"895 1273 OFFCURVE",
"787 1388 OFFCURVE",
"559 1388 CURVE SMOOTH"
);
}
);
width = 1103;
}
);
unicode = 00DF;
},
{
glyphname = uni0259;
lastChange = "2012-12-20 03:58:12 -0800";
layers = (
{
layerId = "44E8B56B-104B-45A6-8718-400D756F8F39";
name = Regular;
paths = (
{
closed = 1;
nodes = (
"284 1019 OFFCURVE",
"170 991 OFFCURVE",
"74 933 CURVE",
"98 801 LINE",
"186 847 OFFCURVE",
"283 886 OFFCURVE",
"408 886 CURVE SMOOTH",
"598 886 OFFCURVE",
"751 758 OFFCURVE",
"755 529 CURVE",
"58 529 LINE SMOOTH",
"58 529 OFFCURVE",
"52 468 OFFCURVE",
"52 445 CURVE SMOOTH",
"52 166 OFFCURVE",
"195 -21 OFFCURVE",
"452 -21 CURVE SMOOTH",
"715 -21 OFFCURVE",
"927 193 OFFCURVE",
"927 502 CURVE SMOOTH",
"927 822 OFFCURVE",
"722 1019 OFFCURVE",
"433 1019 CURVE SMOOTH"
);
},
{
closed = 1;
nodes = (
"734 226 OFFCURVE",
"603 110 OFFCURVE",
"447 110 CURVE SMOOTH",
"286 110 OFFCURVE",
"221 219 OFFCURVE",
"216 416 CURVE",
"751 416 LINE"
);
}
);
width = 1108;
}
);
unicode = 0259;
},
{
glyphname = t;
lastChange = "2012-12-28 16:51:01 -0800";
layers = (
{
anchors = (
{
name = bottom;
position = "{412, 0}";
},
{
name = center;
position = "{412, 0}";
}
);
layerId = "44E8B56B-104B-45A6-8718-400D756F8F39";
name = Regular;
paths = (
{
closed = 1;
nodes = (
"308 1241 LINE",
"256 998 LINE",
"112 986 LINE",
"106 887 LINE",
"257 887 LINE",
"257 313 LINE SMOOTH",
"257 104 OFFCURVE",
"351 -18 OFFCURVE",
"551 -18 CURVE SMOOTH",
"590 -18 OFFCURVE",
"681 -13 OFFCURVE",
"743 13 CURVE",
"716 139 LINE",
"671 122 OFFCURVE",
"615 114 OFFCURVE",
"580 114 CURVE SMOOTH",
"469 114 OFFCURVE",
"429 160 OFFCURVE",
"429 313 CURVE SMOOTH",
"429 887 LINE",
"720 887 LINE",
"720 998 LINE",
"429 998 LINE",
"429 1244 LINE"
);
}
);
width = 823;
}
);
rightKerningGroup = t_Left;
unicode = 0074;
},
{
glyphname = tbar;
lastChange = "2012-12-20 03:58:12 -0800";
layers = (
{
layerId = "44E8B56B-104B-45A6-8718-400D756F8F39";
name = Regular;
paths = (
{
closed = 1;
nodes = (
"306 1225 LINE",
"266 999 LINE",
"126 999 LINE",
"114 892 LINE",
"266 892 LINE",
"266 695 LINE",
"125 695 LINE",
"125 581 LINE",
"266 581 LINE",
"266 405 LINE SMOOTH",
"266 101 OFFCURVE",
"285 -18 OFFCURVE",
"528 -18 CURVE SMOOTH",
"559 -18 OFFCURVE",
"587 -16 OFFCURVE",
"701 -6 CURVE",
"687 117 LINE",
"617 112 OFFCURVE",
"580 107 OFFCURVE",
"563 107 CURVE SMOOTH",
"441 107 OFFCURVE",
"419 147 OFFCURVE",
"419 334 CURVE SMOOTH",
"419 581 LINE",
"609 581 LINE",
"609 695 LINE",
"419 695 LINE",
"419 892 LINE",
"683 892 LINE",
"683 999 LINE",
"419 999 LINE",
"419 1233 LINE"
);
}
);
width = 815;
}
);
unicode = 0167;
},
{
glyphname = tcaron;
lastChange = "2012-12-20 03:58:12 -0800";
layers = (
{
layerId = "44E8B56B-104B-45A6-8718-400D756F8F39";
name = Regular;
paths = (
{
closed = 1;
nodes = (
"311 1227 LINE",
"259 998 LINE",
"118 986 LINE",
"112 885 LINE",
"260 885 LINE",
"260 313 LINE SMOOTH",
"260 104 OFFCURVE",
"357 -18 OFFCURVE",
"557 -18 CURVE SMOOTH",
"596 -18 OFFCURVE",
"687 -13 OFFCURVE",
"749 13 CURVE",
"722 139 LINE",
"677 122 OFFCURVE",
"621 114 OFFCURVE",
"586 114 CURVE SMOOTH",
"475 114 OFFCURVE",
"435 160 OFFCURVE",
"435 313 CURVE SMOOTH",
"435 885 LINE",
"726 885 LINE",
"726 998 LINE",
"435 998 LINE",
"435 1230 LINE"
);
},
{
closed = 1;
nodes = (
"1079 1230 LINE",
"994 801 LINE",
"1100 801 LINE",
"1222 1230 LINE"
);
}
);
width = 858;
}
);
rightKerningGroup = t_Left;
unicode = 0165;
},
{
glyphname = u;
lastChange = "2012-12-28 16:51:01 -0800";
layers = (
{
anchors = (
{
name = ogonek;
position = "{1048, 10}";
},
{
name = top;
position = "{558, 1024}";
}
);
layerId = "44E8B56B-104B-45A6-8718-400D756F8F39";
name = Regular;
paths = (
{
closed = 1;
nodes = (
"819 998 LINE",
"819 453 LINE SMOOTH",
"819 247 OFFCURVE",
"750 112 OFFCURVE",
"531 112 CURVE SMOOTH",
"378 112 OFFCURVE",
"324 211 OFFCURVE",
"324 376 CURVE SMOOTH",
"324 998 LINE",
"152 998 LINE",
"152 387 LINE SMOOTH",
"152 119 OFFCURVE",
"267 -20 OFFCURVE",
"497 -20 CURVE SMOOTH",
"640 -20 OFFCURVE",
"754 36 OFFCURVE",
"826 144 CURVE",
"845 0 LINE",
"991 0 LINE",
"991 998 LINE"
);
}
);
width = 1165;
}
);
leftKerningGroup = u_Left;
unicode = 0075;
},
{
glyphname = ubreve;
lastChange = "2012-12-20 03:58:12 -0800";
layers = (
{
layerId = "44E8B56B-104B-45A6-8718-400D756F8F39";
name = Regular;
paths = (
{
closed = 1;
nodes = (
"829 998 LINE",
"829 452 LINE SMOOTH",
"829 247 OFFCURVE",
"754 109 OFFCURVE",
"539 109 CURVE SMOOTH",
"386 109 OFFCURVE",
"339 210 OFFCURVE",
"339 375 CURVE SMOOTH",
"339 998 LINE",
"165 998 LINE",
"165 387 LINE SMOOTH",
"165 119 OFFCURVE",
"279 -21 OFFCURVE",
"509 -21 CURVE SMOOTH",
"652 -21 OFFCURVE",
"783 27 OFFCURVE",
"837 143 CURVE",
"856 0 LINE",
"1004 0 LINE",
"1004 998 LINE"
);
},
{
closed = 1;
nodes = (
"707 1404 LINE",
"707 1317 OFFCURVE",
"649 1276 OFFCURVE",
"583 1276 CURVE SMOOTH",
"517 1276 OFFCURVE",
"462 1317 OFFCURVE",
"462 1404 CURVE",
"356 1404 LINE",
"356 1247 OFFCURVE",
"471 1182 OFFCURVE",
"583 1182 CURVE SMOOTH",
"696 1182 OFFCURVE",
"813 1247 OFFCURVE",
"813 1404 CURVE"
);
}
);
width = 1189;
}
);
leftKerningGroup = u_Left;
unicode = 016D;
},
{
glyphname = uhorn;
lastChange = "2012-12-20 03:58:12 -0800";
layers = (
{
layerId = "44E8B56B-104B-45A6-8718-400D756F8F39";
name = Regular;
paths = (
{
closed = 1;
nodes = (
"829 998 LINE",
"829 452 LINE SMOOTH",
"829 247 OFFCURVE",
"754 109 OFFCURVE",
"539 109 CURVE SMOOTH",
"386 109 OFFCURVE",
"339 210 OFFCURVE",
"339 375 CURVE SMOOTH",
"339 998 LINE",
"165 998 LINE",
"165 387 LINE SMOOTH",
"165 119 OFFCURVE",
"279 -21 OFFCURVE",
"509 -21 CURVE SMOOTH",
"652 -21 OFFCURVE",
"783 27 OFFCURVE",
"837 143 CURVE",
"856 0 LINE",
"1004 0 LINE",
"1004 998 LINE"
);
},
{
closed = 1;
nodes = (
"1173 1019 LINE",
"1187 982 OFFCURVE",
"1200 930 OFFCURVE",
"1200 885 CURVE SMOOTH",
"1200 835 OFFCURVE",
"1184 794 OFFCURVE",
"1131 794 CURVE SMOOTH",
"1116 794 OFFCURVE",
"1100 796 OFFCURVE",
"1086 796 CURVE",
"1086 710 LINE",
"1114 707 OFFCURVE",
"1144 705 OFFCURVE",
"1170 705 CURVE SMOOTH",
"1262 705 OFFCURVE",
"1308 786 OFFCURVE",
"1308 882 CURVE SMOOTH",
"1308 927 OFFCURVE",
"1298 974 OFFCURVE",
"1279 1019 CURVE"
);
}
);
width = 1189;
}
);
unicode = 01B0;
},
{
glyphname = uhungarumlaut;
lastChange = "2012-12-20 03:58:12 -0800";
layers = (
{
layerId = "44E8B56B-104B-45A6-8718-400D756F8F39";
name = Regular;
paths = (
{
closed = 1;
nodes = (
"829 998 LINE",
"829 452 LINE SMOOTH",
"829 247 OFFCURVE",
"754 109 OFFCURVE",
"539 109 CURVE SMOOTH",
"386 109 OFFCURVE",
"339 210 OFFCURVE",
"339 375 CURVE SMOOTH",
"339 998 LINE",
"165 998 LINE",
"165 387 LINE SMOOTH",
"165 119 OFFCURVE",
"279 -21 OFFCURVE",
"509 -21 CURVE SMOOTH",
"652 -21 OFFCURVE",
"783 27 OFFCURVE",
"837 143 CURVE",
"856 0 LINE",
"1004 0 LINE",
"1004 998 LINE"
);
},
{
closed = 1;
nodes = (
"613 1487 LINE",
"432 1182 LINE",
"523 1182 LINE",
"752 1487 LINE"
);
},
{
closed = 1;
nodes = (
"828 1487 LINE",
"645 1182 LINE",
"737 1182 LINE",
"965 1487 LINE"
);
}
);
width = 1189;
}
);
leftKerningGroup = u_Left;
unicode = 0171;
},
{
glyphname = umacron;
lastChange = "2012-12-20 03:58:12 -0800";
layers = (
{
layerId = "44E8B56B-104B-45A6-8718-400D756F8F39";
name = Regular;
paths = (
{
closed = 1;
nodes = (
"829 998 LINE",
"829 452 LINE SMOOTH",
"829 247 OFFCURVE",
"754 109 OFFCURVE",
"539 109 CURVE SMOOTH",
"386 109 OFFCURVE",
"339 210 OFFCURVE",
"339 375 CURVE SMOOTH",
"339 998 LINE",
"165 998 LINE",
"165 387 LINE SMOOTH",
"165 119 OFFCURVE",
"279 -21 OFFCURVE",
"509 -21 CURVE SMOOTH",
"652 -21 OFFCURVE",
"783 27 OFFCURVE",
"837 143 CURVE",
"856 0 LINE",
"1004 0 LINE",
"1004 998 LINE"
);
},
{
closed = 1;
nodes = (
"281 1309 LINE",
"281 1182 LINE",
"889 1182 LINE",
"889 1309 LINE"
);
}
);
width = 1189;
}
);
leftKerningGroup = u_Left;
unicode = 016B;
},
{
glyphname = uni01C6;
lastChange = "2012-12-20 03:58:12 -0800";
layers = (
{
layerId = "44E8B56B-104B-45A6-8718-400D756F8F39";
name = Regular;
paths = (
{
closed = 1;
nodes = (
"879 1395 LINE",
"879 1053 LINE SMOOTH",
"879 991 OFFCURVE",
"879 928 OFFCURVE",
"883 862 CURVE",
"817 955 OFFCURVE",
"691 1019 OFFCURVE",
"559 1019 CURVE SMOOTH",
"299 1019 OFFCURVE",
"122 807 OFFCURVE",
"122 504 CURVE SMOOTH",
"122 198 OFFCURVE",
"281 -21 OFFCURVE",
"560 -21 CURVE SMOOTH",
"697 -21 OFFCURVE",
"824 45 OFFCURVE",
"879 163 CURVE",
"896 0 LINE",
"1054 0 LINE",
"1054 1409 LINE"
);
},
{
closed = 1;
nodes = (
"803 891 OFFCURVE",
"879 741 OFFCURVE",
"879 482 CURVE SMOOTH",
"879 252 OFFCURVE",
"793 108 OFFCURVE",
"587 108 CURVE SMOOTH",
"393 108 OFFCURVE",
"296 265 OFFCURVE",
"296 499 CURVE SMOOTH",
"296 738 OFFCURVE",
"397 891 OFFCURVE",
"588 891 CURVE SMOOTH"
);
},
{
closed = 1;
nodes = (
"1376 998 LINE",
"1376 878 LINE",
"1866 878 LINE",
"1355 117 LINE",
"1355 0 LINE",
"2053 0 LINE",
"2053 120 LINE",
"1534 120 LINE",
"2036 873 LINE",
"2036 998 LINE"
);
},
{
closed = 1;
nodes = (
"1850 1535 LINE",
"1703 1252 LINE",
"1556 1535 LINE",
"1437 1535 LINE",
"1607 1182 LINE",
"1801 1182 LINE",
"1971 1535 LINE"
);
}
);
width = 2149;
}
);
unicode = 01C6;
},
{
glyphname = uni01C9;
lastChange = "2012-12-20 03:58:12 -0800";
layers = (
{
layerId = "44E8B56B-104B-45A6-8718-400D756F8F39";
name = Regular;
paths = (
{
closed = 1;
nodes = (
"904 998 LINE",
"905 -127 LINE SMOOTH",
"905 -215 OFFCURVE",
"891 -257 OFFCURVE",
"756 -257 CURVE SMOOTH",
"708 -257 LINE",
"728 -398 LINE",
"776 -398 LINE SMOOTH",
"1024 -398 OFFCURVE",
"1079 -312 OFFCURVE",
"1079 -68 CURVE SMOOTH",
"1079 998 LINE"
);
},
{
closed = 1;
nodes = (
"189 1395 LINE",
"189 305 LINE SMOOTH",
"189 45 OFFCURVE",
"262 -18 OFFCURVE",
"419 -18 CURVE SMOOTH",
"445 -18 OFFCURVE",
"481 -16 OFFCURVE",
"529 -9 CURVE",
"518 116 LINE",
"454 116 LINE SMOOTH",
"379 116 OFFCURVE",
"364 153 OFFCURVE",
"364 345 CURVE SMOOTH",
"364 1409 LINE"
);
},
{
closed = 1;
nodes = (
"904 1361 LINE",
"904 1181 LINE",
"1079 1181 LINE",
"1079 1361 LINE"
);
}
);
width = 1264;
}
);
unicode = 01C9;
},
{
glyphname = uni01CC;
lastChange = "2012-12-20 03:58:12 -0800";
layers = (
{
layerId = "44E8B56B-104B-45A6-8718-400D756F8F39";
name = Regular;
paths = (
{
closed = 1;
nodes = (
"536 1019 OFFCURVE",
"425 963 OFFCURVE",
"353 855 CURVE",
"334 998 LINE",
"185 998 LINE",
"185 0 LINE",
"360 0 LINE",
"360 546 LINE SMOOTH",
"360 752 OFFCURVE",
"429 889 OFFCURVE",
"645 889 CURVE SMOOTH",
"798 889 OFFCURVE",
"849 788 OFFCURVE",
"849 623 CURVE SMOOTH",
"849 0 LINE",
"1024 0 LINE",
"1024 612 LINE SMOOTH",
"1024 880 OFFCURVE",
"909 1019 OFFCURVE",
"679 1019 CURVE SMOOTH"
);
},
{
closed = 1;
nodes = (
"1451 998 LINE",
"1452 -127 LINE SMOOTH",
"1452 -215 OFFCURVE",
"1438 -257 OFFCURVE",
"1303 -257 CURVE SMOOTH",
"1255 -257 LINE",
"1275 -398 LINE",
"1323 -398 LINE SMOOTH",
"1571 -398 OFFCURVE",
"1626 -312 OFFCURVE",
"1626 -68 CURVE SMOOTH",
"1626 998 LINE"
);
},
{
closed = 1;
nodes = (
"1451 1361 LINE",
"1451 1181 LINE",
"1626 1181 LINE",
"1626 1361 LINE"
);
}
);
width = 1811;
}
);
unicode = 01CC;
},
{
glyphname = uni01CE;
lastChange = "2012-12-20 03:58:12 -0800";
layers = (
{
layerId = "44E8B56B-104B-45A6-8718-400D756F8F39";
name = Regular;
paths = (
{
closed = 1;
nodes = (
"428 1019 OFFCURVE",
"273 983 OFFCURVE",
"187 935 CURVE",
"194 916 OFFCURVE",
"226 831 OFFCURVE",
"234 812 CURVE",
"328 858 OFFCURVE",
"465 886 OFFCURVE",
"561 886 CURVE SMOOTH",
"704 886 OFFCURVE",
"774 823 OFFCURVE",
"774 685 CURVE SMOOTH",
"774 597 LINE",
"774 597 OFFCURVE",
"645 587 OFFCURVE",
"599 583 CURVE SMOOTH",
"314 562 OFFCURVE",
"134 478 OFFCURVE",
"134 263 CURVE SMOOTH",
"134 79 OFFCURVE",
"269 -21 OFFCURVE",
"445 -21 CURVE SMOOTH",
"579 -21 OFFCURVE",
"720 22 OFFCURVE",
"781 112 CURVE",
"808 0 LINE",
"949 0 LINE",
"949 661 LINE SMOOTH",
"949 927 OFFCURVE",
"801 1019 OFFCURVE",
"557 1019 CURVE SMOOTH"
);
},
{
closed = 1;
nodes = (
"774 251 LINE",
"742 165 OFFCURVE",
"589 102 OFFCURVE",
"468 102 CURVE SMOOTH",
"385 102 OFFCURVE",
"308 152 OFFCURVE",
"308 262 CURVE SMOOTH",
"308 402 OFFCURVE",
"397 447 OFFCURVE",
"658 478 CURVE SMOOTH",
"681 481 OFFCURVE",
"774 490 OFFCURVE",
"774 490 CURVE"
);
},
{
closed = 1;
nodes = (
"688 1535 LINE",
"541 1252 LINE",
"394 1535 LINE",
"275 1535 LINE",
"445 1182 LINE",
"639 1182 LINE",
"809 1535 LINE"
);
}
);
width = 1116;
}
);
unicode = 01CE;
},
{
glyphname = uni01D0;
lastChange = "2012-12-20 03:58:12 -0800";
layers = (
{
layerId = "44E8B56B-104B-45A6-8718-400D756F8F39";
name = Regular;
paths = (
{
closed = 1;
nodes = (
"353 1535 LINE",
"206 1252 LINE",
"59 1535 LINE",
"-60 1535 LINE",
"110 1182 LINE",
"304 1182 LINE",
"474 1535 LINE"
);
},
{
closed = 1;
nodes = (
"130 999 LINE",
"130 0 LINE",
"284 0 LINE",
"284 999 LINE"
);
}
);
width = 413;
}
);
unicode = 01D0;
},
{
glyphname = uni01D2;
lastChange = "2012-12-20 03:58:12 -0800";
layers = (
{
layerId = "44E8B56B-104B-45A6-8718-400D756F8F39";
name = Regular;
paths = (
{
closed = 1;
nodes = (
"297 1019 OFFCURVE",
"126 804 OFFCURVE",
"126 499 CURVE SMOOTH",
"126 200 OFFCURVE",
"307 -21 OFFCURVE",
"592 -21 CURVE SMOOTH",
"877 -21 OFFCURVE",
"1058 200 OFFCURVE",
"1058 499 CURVE SMOOTH",
"1058 804 OFFCURVE",
"887 1019 OFFCURVE",
"592 1019 CURVE SMOOTH"
);
},
{
closed = 1;
nodes = (
"798 886 OFFCURVE",
"883 719 OFFCURVE",
"883 497 CURVE SMOOTH",
"883 279 OFFCURVE",
"799 112 OFFCURVE",
"592 112 CURVE SMOOTH",
"385 112 OFFCURVE",
"300 279 OFFCURVE",
"300 497 CURVE SMOOTH",
"300 719 OFFCURVE",
"386 886 OFFCURVE",
"592 886 CURVE SMOOTH"
);
},
{
closed = 1;
nodes = (
"738 1535 LINE",
"591 1252 LINE",
"444 1535 LINE",
"325 1535 LINE",
"495 1182 LINE",
"689 1182 LINE",
"859 1535 LINE"
);
}
);
width = 1184;
}
);
unicode = 01D2;
},
{
glyphname = uni01D4;
lastChange = "2012-12-20 03:58:12 -0800";
layers = (
{
layerId = "44E8B56B-104B-45A6-8718-400D756F8F39";
name = Regular;
paths = (
{
closed = 1;
nodes = (
"829 998 LINE",
"829 452 LINE SMOOTH",
"829 247 OFFCURVE",
"754 109 OFFCURVE",
"539 109 CURVE SMOOTH",
"386 109 OFFCURVE",
"339 210 OFFCURVE",
"339 375 CURVE SMOOTH",
"339 998 LINE",
"165 998 LINE",
"165 387 LINE SMOOTH",
"165 119 OFFCURVE",
"279 -21 OFFCURVE",
"509 -21 CURVE SMOOTH",
"652 -21 OFFCURVE",
"783 27 OFFCURVE",
"837 143 CURVE",
"856 0 LINE",
"1004 0 LINE",
"1004 998 LINE"
);
},
{
closed = 1;
nodes = (
"731 1535 LINE",
"584 1252 LINE",
"437 1535 LINE",
"318 1535 LINE",
"488 1182 LINE",
"682 1182 LINE",
"852 1535 LINE"
);
}
);
width = 1189;
}
);
unicode = 01D4;
},
{
glyphname = uni01D6;
lastChange = "2012-12-20 03:58:12 -0800";
layers = (
{
layerId = "44E8B56B-104B-45A6-8718-400D756F8F39";
name = Regular;
paths = (
{
closed = 1;
nodes = (
"829 998 LINE",
"829 452 LINE SMOOTH",
"829 247 OFFCURVE",
"754 109 OFFCURVE",
"539 109 CURVE SMOOTH",
"386 109 OFFCURVE",
"339 210 OFFCURVE",
"339 375 CURVE SMOOTH",
"339 998 LINE",
"165 998 LINE",
"165 387 LINE SMOOTH",
"165 119 OFFCURVE",
"279 -21 OFFCURVE",
"509 -21 CURVE SMOOTH",
"652 -21 OFFCURVE",
"783 27 OFFCURVE",
"837 143 CURVE",
"856 0 LINE",
"1004 0 LINE",
"1004 998 LINE"
);
},
{
closed = 1;
nodes = (
"337 1375 LINE",
"337 1182 LINE",
"478 1182 LINE",
"478 1375 LINE"
);
},
{
closed = 1;
nodes = (
"692 1375 LINE",
"692 1182 LINE",
"833 1182 LINE",
"833 1375 LINE"
);
},
{
closed = 1;
nodes = (
"281 1665 LINE",
"281 1538 LINE",
"889 1538 LINE",
"889 1665 LINE"
);
}
);
width = 1189;
}
);
unicode = 01D6;
},
{
glyphname = uni01D8;
lastChange = "2012-12-20 03:58:12 -0800";
layers = (
{
layerId = "44E8B56B-104B-45A6-8718-400D756F8F39";
name = Regular;
paths = (
{
closed = 1;
nodes = (
"829 998 LINE",
"829 452 LINE SMOOTH",
"829 247 OFFCURVE",
"754 109 OFFCURVE",
"539 109 CURVE SMOOTH",
"386 109 OFFCURVE",
"339 210 OFFCURVE",
"339 375 CURVE SMOOTH",
"339 998 LINE",
"165 998 LINE",
"165 387 LINE SMOOTH",
"165 119 OFFCURVE",
"279 -21 OFFCURVE",
"509 -21 CURVE SMOOTH",
"652 -21 OFFCURVE",
"783 27 OFFCURVE",
"837 143 CURVE",
"856 0 LINE",
"1004 0 LINE",
"1004 998 LINE"
);
},
{
closed = 1;
nodes = (
"337 1375 LINE",
"337 1182 LINE",
"478 1182 LINE",
"478 1375 LINE"
);
},
{
closed = 1;
nodes = (
"692 1375 LINE",
"692 1182 LINE",
"833 1182 LINE",
"833 1375 LINE"
);
},
{
closed = 1;
nodes = (
"703 1891 LINE",
"533 1538 LINE",
"637 1538 LINE",
"933 1891 LINE"
);
}
);
width = 1189;
}
);
unicode = 01D8;
},
{
glyphname = uni01DA;
lastChange = "2012-12-20 03:58:12 -0800";
layers = (
{
layerId = "44E8B56B-104B-45A6-8718-400D756F8F39";
name = Regular;
paths = (
{
closed = 1;
nodes = (
"829 998 LINE",
"829 452 LINE SMOOTH",
"829 247 OFFCURVE",
"754 109 OFFCURVE",
"539 109 CURVE SMOOTH",
"386 109 OFFCURVE",
"339 210 OFFCURVE",
"339 375 CURVE SMOOTH",
"339 998 LINE",
"165 998 LINE",
"165 387 LINE SMOOTH",
"165 119 OFFCURVE",
"279 -21 OFFCURVE",
"509 -21 CURVE SMOOTH",
"652 -21 OFFCURVE",
"783 27 OFFCURVE",
"837 143 CURVE",
"856 0 LINE",
"1004 0 LINE",
"1004 998 LINE"
);
},
{
closed = 1;
nodes = (
"337 1375 LINE",
"337 1182 LINE",
"478 1182 LINE",
"478 1375 LINE"
);
},
{
closed = 1;
nodes = (
"692 1375 LINE",
"692 1182 LINE",
"833 1182 LINE",
"833 1375 LINE"
);
},
{
closed = 1;
nodes = (
"731 1891 LINE",
"584 1608 LINE",
"437 1891 LINE",
"318 1891 LINE",
"488 1538 LINE",
"682 1538 LINE",
"852 1891 LINE"
);
}
);
width = 1189;
}
);
unicode = 01DA;
},
{
glyphname = uni01DC;
lastChange = "2012-12-20 03:58:12 -0800";
layers = (
{
layerId = "44E8B56B-104B-45A6-8718-400D756F8F39";
name = Regular;
paths = (
{
closed = 1;
nodes = (
"829 998 LINE",
"829 452 LINE SMOOTH",
"829 247 OFFCURVE",
"754 109 OFFCURVE",
"539 109 CURVE SMOOTH",
"386 109 OFFCURVE",
"339 210 OFFCURVE",
"339 375 CURVE SMOOTH",
"339 998 LINE",
"165 998 LINE",
"165 387 LINE SMOOTH",
"165 119 OFFCURVE",
"279 -21 OFFCURVE",
"509 -21 CURVE SMOOTH",
"652 -21 OFFCURVE",
"783 27 OFFCURVE",
"837 143 CURVE",
"856 0 LINE",
"1004 0 LINE",
"1004 998 LINE"
);
},
{
closed = 1;
nodes = (
"337 1375 LINE",
"337 1182 LINE",
"478 1182 LINE",
"478 1375 LINE"
);
},
{
closed = 1;
nodes = (
"692 1375 LINE",
"692 1182 LINE",
"833 1182 LINE",
"833 1375 LINE"
);
},
{
closed = 1;
nodes = (
"240 1891 LINE",
"534 1538 LINE",
"636 1538 LINE",
"468 1891 LINE"
);
}
);
width = 1189;
}
);
unicode = 01DC;
},
{
glyphname = uni01DF;
lastChange = "2012-12-20 03:58:12 -0800";
layers = (
{
layerId = "44E8B56B-104B-45A6-8718-400D756F8F39";
name = Regular;
paths = (
{
closed = 1;
nodes = (
"428 1019 OFFCURVE",
"273 983 OFFCURVE",
"187 935 CURVE",
"194 916 OFFCURVE",
"226 831 OFFCURVE",
"234 812 CURVE",
"328 858 OFFCURVE",
"465 886 OFFCURVE",
"561 886 CURVE SMOOTH",
"704 886 OFFCURVE",
"774 823 OFFCURVE",
"774 685 CURVE SMOOTH",
"774 597 LINE",
"774 597 OFFCURVE",
"645 587 OFFCURVE",
"599 583 CURVE SMOOTH",
"314 562 OFFCURVE",
"134 478 OFFCURVE",
"134 263 CURVE SMOOTH",
"134 79 OFFCURVE",
"269 -21 OFFCURVE",
"445 -21 CURVE SMOOTH",
"579 -21 OFFCURVE",
"720 22 OFFCURVE",
"781 112 CURVE",
"808 0 LINE",
"949 0 LINE",
"949 661 LINE SMOOTH",
"949 927 OFFCURVE",
"801 1019 OFFCURVE",
"557 1019 CURVE SMOOTH"
);
},
{
closed = 1;
nodes = (
"774 251 LINE",
"742 165 OFFCURVE",
"589 102 OFFCURVE",
"468 102 CURVE SMOOTH",
"385 102 OFFCURVE",
"308 152 OFFCURVE",
"308 262 CURVE SMOOTH",
"308 402 OFFCURVE",
"397 447 OFFCURVE",
"658 478 CURVE SMOOTH",
"681 481 OFFCURVE",
"774 490 OFFCURVE",
"774 490 CURVE"
);
},
{
closed = 1;
nodes = (
"294 1375 LINE",
"294 1182 LINE",
"435 1182 LINE",
"435 1375 LINE"
);
},
{
closed = 1;
nodes = (
"649 1375 LINE",
"649 1182 LINE",
"790 1182 LINE",
"790 1375 LINE"
);
},
{
closed = 1;
nodes = (
"238 1665 LINE",
"238 1538 LINE",
"846 1538 LINE",
"846 1665 LINE"
);
}
);
width = 1116;
}
);
unicode = 01DF;
},
{
glyphname = uni01E1;
lastChange = "2012-12-20 03:58:12 -0800";
layers = (
{
layerId = "44E8B56B-104B-45A6-8718-400D756F8F39";
name = Regular;
paths = (
{
closed = 1;
nodes = (
"428 1019 OFFCURVE",
"273 983 OFFCURVE",
"187 935 CURVE",
"194 916 OFFCURVE",
"226 831 OFFCURVE",
"234 812 CURVE",
"328 858 OFFCURVE",
"465 886 OFFCURVE",
"561 886 CURVE SMOOTH",
"704 886 OFFCURVE",
"774 823 OFFCURVE",
"774 685 CURVE SMOOTH",
"774 597 LINE",
"774 597 OFFCURVE",
"645 587 OFFCURVE",
"599 583 CURVE SMOOTH",
"314 562 OFFCURVE",
"134 478 OFFCURVE",
"134 263 CURVE SMOOTH",
"134 79 OFFCURVE",
"269 -21 OFFCURVE",
"445 -21 CURVE SMOOTH",
"579 -21 OFFCURVE",
"720 22 OFFCURVE",
"781 112 CURVE",
"808 0 LINE",
"949 0 LINE",
"949 661 LINE SMOOTH",
"949 927 OFFCURVE",
"801 1019 OFFCURVE",
"557 1019 CURVE SMOOTH"
);
},
{
closed = 1;
nodes = (
"774 251 LINE",
"742 165 OFFCURVE",
"589 102 OFFCURVE",
"468 102 CURVE SMOOTH",
"385 102 OFFCURVE",
"308 152 OFFCURVE",
"308 262 CURVE SMOOTH",
"308 402 OFFCURVE",
"397 447 OFFCURVE",
"658 478 CURVE SMOOTH",
"681 481 OFFCURVE",
"774 490 OFFCURVE",
"774 490 CURVE"
);
},
{
closed = 1;
nodes = (
"465 1362 LINE",
"465 1182 LINE",
"618 1182 LINE",
"618 1362 LINE"
);
},
{
closed = 1;
nodes = (
"238 1611 LINE",
"238 1484 LINE",
"846 1484 LINE",
"846 1611 LINE"
);
}
);
width = 1116;
}
);
unicode = 01E1;
},
{
glyphname = uni01E9;
lastChange = "2012-12-20 03:58:12 -0800";
layers = (
{
layerId = "44E8B56B-104B-45A6-8718-400D756F8F39";
name = Regular;
paths = (
{
closed = 1;
nodes = (
"185 1395 LINE",
"185 0 LINE",
"360 0 LINE",
"360 363 LINE",
"471 459 LINE",
"853 0 LINE",
"1049 0 LINE",
"596 535 LINE",
"1042 998 LINE",
"827 998 LINE",
"360 515 LINE",
"360 1409 LINE"
);
},
{
closed = 1;
nodes = (
"763 1925 LINE",
"616 1642 LINE",
"469 1925 LINE",
"350 1925 LINE",
"520 1572 LINE",
"714 1572 LINE",
"884 1925 LINE"
);
}
);
width = 1091;
}
);
unicode = 01E9;
},
{
glyphname = uni01EB;
lastChange = "2012-12-20 03:58:12 -0800";
layers = (
{
layerId = "44E8B56B-104B-45A6-8718-400D756F8F39";
name = Regular;
paths = (
{
closed = 1;
nodes = (
"297 1019 OFFCURVE",
"126 804 OFFCURVE",
"126 499 CURVE SMOOTH",
"126 200 OFFCURVE",
"307 -21 OFFCURVE",
"592 -21 CURVE SMOOTH",
"877 -21 OFFCURVE",
"1058 200 OFFCURVE",
"1058 499 CURVE SMOOTH",
"1058 804 OFFCURVE",
"887 1019 OFFCURVE",
"592 1019 CURVE SMOOTH"
);
},
{
closed = 1;
nodes = (
"540 -8 LINE",
"453 -59 OFFCURVE",
"366 -135 OFFCURVE",
"366 -234 CURVE SMOOTH",
"366 -338 OFFCURVE",
"444 -394 OFFCURVE",
"542 -394 CURVE SMOOTH",
"591 -394 OFFCURVE",
"650 -380 OFFCURVE",
"685 -365 CURVE",
"685 -259 LINE",
"639 -278 OFFCURVE",
"609 -289 OFFCURVE",
"560 -289 CURVE SMOOTH",
"523 -289 OFFCURVE",
"480 -256 OFFCURVE",
"480 -208 CURVE SMOOTH",
"480 -146 OFFCURVE",
"549 -78 OFFCURVE",
"644 -8 CURVE"
);
},
{
closed = 1;
nodes = (
"798 886 OFFCURVE",
"883 719 OFFCURVE",
"883 497 CURVE SMOOTH",
"883 279 OFFCURVE",
"799 112 OFFCURVE",
"592 112 CURVE SMOOTH",
"385 112 OFFCURVE",
"300 279 OFFCURVE",
"300 497 CURVE SMOOTH",
"300 719 OFFCURVE",
"386 886 OFFCURVE",
"592 886 CURVE SMOOTH"
);
}
);
width = 1184;
}
);
unicode = 01EB;
},
{
glyphname = uni01ED;
lastChange = "2012-12-20 03:58:12 -0800";
layers = (
{
layerId = "44E8B56B-104B-45A6-8718-400D756F8F39";
name = Regular;
paths = (
{
closed = 1;
nodes = (
"297 1019 OFFCURVE",
"126 804 OFFCURVE",
"126 499 CURVE SMOOTH",
"126 200 OFFCURVE",
"307 -21 OFFCURVE",
"592 -21 CURVE SMOOTH",
"877 -21 OFFCURVE",
"1058 200 OFFCURVE",
"1058 499 CURVE SMOOTH",
"1058 804 OFFCURVE",
"887 1019 OFFCURVE",
"592 1019 CURVE SMOOTH"
);
},
{
closed = 1;
nodes = (
"540 -8 LINE",
"453 -59 OFFCURVE",
"366 -135 OFFCURVE",
"366 -234 CURVE SMOOTH",
"366 -338 OFFCURVE",
"444 -394 OFFCURVE",
"542 -394 CURVE SMOOTH",
"591 -394 OFFCURVE",
"650 -380 OFFCURVE",
"685 -365 CURVE",
"685 -259 LINE",
"639 -278 OFFCURVE",
"609 -289 OFFCURVE",
"560 -289 CURVE SMOOTH",
"523 -289 OFFCURVE",
"480 -256 OFFCURVE",
"480 -208 CURVE SMOOTH",
"480 -146 OFFCURVE",
"549 -78 OFFCURVE",
"644 -8 CURVE"
);
},
{
closed = 1;
nodes = (
"798 886 OFFCURVE",
"883 719 OFFCURVE",
"883 497 CURVE SMOOTH",
"883 279 OFFCURVE",
"799 112 OFFCURVE",
"592 112 CURVE SMOOTH",
"385 112 OFFCURVE",
"300 279 OFFCURVE",
"300 497 CURVE SMOOTH",
"300 719 OFFCURVE",
"386 886 OFFCURVE",
"592 886 CURVE SMOOTH"
);
},
{
closed = 1;
nodes = (
"288 1309 LINE",
"288 1182 LINE",
"896 1182 LINE",
"896 1309 LINE"
);
}
);
width = 1184;
}
);
unicode = 01ED;
},
{
glyphname = uni01F0;
lastChange = "2012-12-20 03:58:12 -0800";
layers = (
{
layerId = "44E8B56B-104B-45A6-8718-400D756F8F39";
name = Regular;
paths = (
{
closed = 1;
nodes = (
"123 998 LINE",
"123 -122 LINE SMOOTH",
"123 -222 OFFCURVE",
"112 -257 OFFCURVE",
"-25 -257 CURVE SMOOTH",
"-73 -257 LINE",
"-53 -398 LINE",
"-5 -398 LINE SMOOTH",
"243 -398 OFFCURVE",
"298 -312 OFFCURVE",
"298 -68 CURVE SMOOTH",
"298 998 LINE"
);
},
{
closed = 1;
nodes = (
"259 1535 LINE",
"112 1252 LINE",
"-36 1535 LINE",
"-155 1535 LINE",
"16 1182 LINE",
"210 1182 LINE",
"380 1535 LINE"
);
}
);
width = 417;
}
);
unicode = 01F0;
},
{
glyphname = uni01F3;
lastChange = "2012-12-20 03:58:12 -0800";
layers = (
{
layerId = "44E8B56B-104B-45A6-8718-400D756F8F39";
name = Regular;
paths = (
{
closed = 1;
nodes = (
"879 1395 LINE",
"879 1053 LINE SMOOTH",
"879 991 OFFCURVE",
"879 928 OFFCURVE",
"883 862 CURVE",
"817 955 OFFCURVE",
"691 1019 OFFCURVE",
"559 1019 CURVE SMOOTH",
"299 1019 OFFCURVE",
"122 807 OFFCURVE",
"122 504 CURVE SMOOTH",
"122 198 OFFCURVE",
"281 -21 OFFCURVE",
"560 -21 CURVE SMOOTH",
"697 -21 OFFCURVE",
"824 45 OFFCURVE",
"879 163 CURVE",
"896 0 LINE",
"1054 0 LINE",
"1054 1409 LINE"
);
},
{
closed = 1;
nodes = (
"803 891 OFFCURVE",
"879 741 OFFCURVE",
"879 482 CURVE SMOOTH",
"879 252 OFFCURVE",
"793 108 OFFCURVE",
"587 108 CURVE SMOOTH",
"393 108 OFFCURVE",
"296 265 OFFCURVE",
"296 499 CURVE SMOOTH",
"296 738 OFFCURVE",
"397 891 OFFCURVE",
"588 891 CURVE SMOOTH"
);
},
{
closed = 1;
nodes = (
"1376 998 LINE",
"1376 878 LINE",
"1866 878 LINE",
"1355 117 LINE",
"1355 0 LINE",
"2053 0 LINE",
"2053 120 LINE",
"1534 120 LINE",
"2036 873 LINE",
"2036 998 LINE"
);
}
);
width = 2149;
}
);
unicode = 01F3;
},
{
glyphname = uni01F5;
lastChange = "2012-12-20 03:58:12 -0800";
layers = (
{
layerId = "44E8B56B-104B-45A6-8718-400D756F8F39";
name = Regular;
paths = (
{
closed = 1;
nodes = (
"267 1019 OFFCURVE",
"122 780 OFFCURVE",
"122 496 CURVE SMOOTH",
"122 249 OFFCURVE",
"273 0 OFFCURVE",
"569 0 CURVE SMOOTH",
"727 0 OFFCURVE",
"832 73 OFFCURVE",
"879 191 CURVE",
"879 73 LINE SMOOTH",
"879 -199 OFFCURVE",
"774 -291 OFFCURVE",
"530 -291 CURVE SMOOTH",
"429 -291 OFFCURVE",
"337 -273 OFFCURVE",
"297 -262 CURVE",
"286 -390 LINE",
"326 -400 OFFCURVE",
"424 -425 OFFCURVE",
"543 -425 CURVE SMOOTH",
"952 -425 OFFCURVE",
"1054 -187 OFFCURVE",
"1054 148 CURVE SMOOTH",
"1054 998 LINE",
"895 998 LINE",
"883 865 LINE",
"807 968 OFFCURVE",
"705 1019 OFFCURVE",
"572 1019 CURVE SMOOTH"
);
},
{
closed = 1;
nodes = (
"793 891 OFFCURVE",
"879 732 OFFCURVE",
"879 543 CURVE SMOOTH",
"879 470 LINE SMOOTH",
"879 291 OFFCURVE",
"797 130 OFFCURVE",
"582 130 CURVE SMOOTH",
"375 130 OFFCURVE",
"296 333 OFFCURVE",
"296 504 CURVE SMOOTH",
"296 677 OFFCURVE",
"369 891 OFFCURVE",
"586 891 CURVE SMOOTH"
);
},
{
closed = 1;
nodes = (
"706 1535 LINE",
"536 1182 LINE",
"640 1182 LINE",
"936 1535 LINE"
);
}
);
width = 1233;
}
);
leftKerningGroup = g_Right;
unicode = 01F5;
},
{
glyphname = uni01F9;
lastChange = "2012-12-20 03:58:12 -0800";
layers = (
{
layerId = "44E8B56B-104B-45A6-8718-400D756F8F39";
name = Regular;
paths = (
{
closed = 1;
nodes = (
"536 1019 OFFCURVE",
"425 963 OFFCURVE",
"353 855 CURVE",
"334 998 LINE",
"185 998 LINE",
"185 0 LINE",
"360 0 LINE",
"360 546 LINE SMOOTH",
"360 752 OFFCURVE",
"429 889 OFFCURVE",
"645 889 CURVE SMOOTH",
"798 889 OFFCURVE",
"849 788 OFFCURVE",
"849 623 CURVE SMOOTH",
"849 0 LINE",
"1024 0 LINE",
"1024 612 LINE SMOOTH",
"1024 880 OFFCURVE",
"909 1019 OFFCURVE",
"679 1019 CURVE SMOOTH"
);
},
{
closed = 1;
nodes = (
"260 1535 LINE",
"554 1182 LINE",
"656 1182 LINE",
"488 1535 LINE"
);
}
);
width = 1189;
}
);
unicode = 01F9;
},
{
glyphname = uni0201;
lastChange = "2012-12-20 03:58:12 -0800";
layers = (
{
layerId = "44E8B56B-104B-45A6-8718-400D756F8F39";
name = Regular;
paths = (
{
closed = 1;
nodes = (
"428 1019 OFFCURVE",
"273 983 OFFCURVE",
"187 935 CURVE",
"194 916 OFFCURVE",
"226 831 OFFCURVE",
"234 812 CURVE",
"328 858 OFFCURVE",
"465 886 OFFCURVE",
"561 886 CURVE SMOOTH",
"704 886 OFFCURVE",
"774 823 OFFCURVE",
"774 685 CURVE SMOOTH",
"774 597 LINE",
"774 597 OFFCURVE",
"645 587 OFFCURVE",
"599 583 CURVE SMOOTH",
"314 562 OFFCURVE",
"134 478 OFFCURVE",
"134 263 CURVE SMOOTH",
"134 79 OFFCURVE",
"269 -21 OFFCURVE",
"445 -21 CURVE SMOOTH",
"579 -21 OFFCURVE",
"720 22 OFFCURVE",
"781 112 CURVE",
"808 0 LINE",
"949 0 LINE",
"949 661 LINE SMOOTH",
"949 927 OFFCURVE",
"801 1019 OFFCURVE",
"557 1019 CURVE SMOOTH"
);
},
{
closed = 1;
nodes = (
"774 251 LINE",
"742 165 OFFCURVE",
"589 102 OFFCURVE",
"468 102 CURVE SMOOTH",
"385 102 OFFCURVE",
"308 152 OFFCURVE",
"308 262 CURVE SMOOTH",
"308 402 OFFCURVE",
"397 447 OFFCURVE",
"658 478 CURVE SMOOTH",
"681 481 OFFCURVE",
"774 490 OFFCURVE",
"774 490 CURVE"
);
},
{
closed = 1;
nodes = (
"146 1487 LINE",
"373 1182 LINE",
"466 1182 LINE",
"282 1487 LINE"
);
},
{
closed = 1;
nodes = (
"392 1487 LINE",
"617 1182 LINE",
"710 1182 LINE",
"530 1487 LINE"
);
}
);
width = 1116;
}
);
leftKerningGroup = a_Right;
unicode = 0201;
},
{
glyphname = uni0203;
lastChange = "2012-12-20 03:58:12 -0800";
layers = (
{
layerId = "44E8B56B-104B-45A6-8718-400D756F8F39";
name = Regular;
paths = (
{
closed = 1;
nodes = (
"428 1019 OFFCURVE",
"273 983 OFFCURVE",
"187 935 CURVE",
"194 916 OFFCURVE",
"226 831 OFFCURVE",
"234 812 CURVE",
"328 858 OFFCURVE",
"465 886 OFFCURVE",
"561 886 CURVE SMOOTH",
"704 886 OFFCURVE",
"774 823 OFFCURVE",
"774 685 CURVE SMOOTH",
"774 597 LINE",
"774 597 OFFCURVE",
"645 587 OFFCURVE",
"599 583 CURVE SMOOTH",
"314 562 OFFCURVE",
"134 478 OFFCURVE",
"134 263 CURVE SMOOTH",
"134 79 OFFCURVE",
"269 -21 OFFCURVE",
"445 -21 CURVE SMOOTH",
"579 -21 OFFCURVE",
"720 22 OFFCURVE",
"781 112 CURVE",
"808 0 LINE",
"949 0 LINE",
"949 661 LINE SMOOTH",
"949 927 OFFCURVE",
"801 1019 OFFCURVE",
"557 1019 CURVE SMOOTH"
);
},
{
closed = 1;
nodes = (
"774 251 LINE",
"742 165 OFFCURVE",
"589 102 OFFCURVE",
"468 102 CURVE SMOOTH",
"385 102 OFFCURVE",
"308 152 OFFCURVE",
"308 262 CURVE SMOOTH",
"308 402 OFFCURVE",
"397 447 OFFCURVE",
"658 478 CURVE SMOOTH",
"681 481 OFFCURVE",
"774 490 OFFCURVE",
"774 490 CURVE"
);
},
{
closed = 1;
nodes = (
"428 1417 OFFCURVE",
"314 1339 OFFCURVE",
"314 1182 CURVE",
"419 1182 LINE",
"419 1269 OFFCURVE",
"474 1310 OFFCURVE",
"540 1310 CURVE SMOOTH",
"606 1310 OFFCURVE",
"664 1269 OFFCURVE",
"664 1182 CURVE",
"770 1182 LINE",
"770 1339 OFFCURVE",
"653 1417 OFFCURVE",
"540 1417 CURVE SMOOTH"
);
}
);
width = 1116;
}
);
leftKerningGroup = a_Right;
unicode = 0203;
},
{
glyphname = uni0205;
lastChange = "2012-12-20 03:58:12 -0800";
layers = (
{
layerId = "44E8B56B-104B-45A6-8718-400D756F8F39";
name = Regular;
paths = (
{
closed = 1;
nodes = (
"338 1019 OFFCURVE",
"126 805 OFFCURVE",
"126 496 CURVE SMOOTH",
"126 176 OFFCURVE",
"331 -21 OFFCURVE",
"620 -21 CURVE SMOOTH",
"769 -21 OFFCURVE",
"883 7 OFFCURVE",
"979 65 CURVE",
"955 197 LINE",
"867 151 OFFCURVE",
"770 112 OFFCURVE",
"645 112 CURVE SMOOTH",
"455 112 OFFCURVE",
"302 240 OFFCURVE",
"298 469 CURVE",
"995 469 LINE",
"995 469 OFFCURVE",
"1001 530 OFFCURVE",
"1001 553 CURVE SMOOTH",
"1001 832 OFFCURVE",
"858 1019 OFFCURVE",
"601 1019 CURVE SMOOTH"
);
},
{
closed = 1;
nodes = (
"767 888 OFFCURVE",
"832 779 OFFCURVE",
"837 582 CURVE",
"302 582 LINE",
"319 772 OFFCURVE",
"450 888 OFFCURVE",
"606 888 CURVE SMOOTH"
);
},
{
closed = 1;
nodes = (
"168 1487 LINE",
"395 1182 LINE",
"488 1182 LINE",
"304 1487 LINE"
);
},
{
closed = 1;
nodes = (
"414 1487 LINE",
"639 1182 LINE",
"732 1182 LINE",
"552 1487 LINE"
);
}
);
width = 1132;
}
);
leftKerningGroup = o_Right;
unicode = 0205;
},
{
glyphname = uni0207;
lastChange = "2012-12-20 03:58:12 -0800";
layers = (
{
layerId = "44E8B56B-104B-45A6-8718-400D756F8F39";
name = Regular;
paths = (
{
closed = 1;
nodes = (
"338 1019 OFFCURVE",
"126 805 OFFCURVE",
"126 496 CURVE SMOOTH",
"126 176 OFFCURVE",
"331 -21 OFFCURVE",
"620 -21 CURVE SMOOTH",
"769 -21 OFFCURVE",
"883 7 OFFCURVE",
"979 65 CURVE",
"955 197 LINE",
"867 151 OFFCURVE",
"770 112 OFFCURVE",
"645 112 CURVE SMOOTH",
"455 112 OFFCURVE",
"302 240 OFFCURVE",
"298 469 CURVE",
"995 469 LINE",
"995 469 OFFCURVE",
"1001 530 OFFCURVE",
"1001 553 CURVE SMOOTH",
"1001 832 OFFCURVE",
"858 1019 OFFCURVE",
"601 1019 CURVE SMOOTH"
);
},
{
closed = 1;
nodes = (
"767 888 OFFCURVE",
"832 779 OFFCURVE",
"837 582 CURVE",
"302 582 LINE",
"319 772 OFFCURVE",
"450 888 OFFCURVE",
"606 888 CURVE SMOOTH"
);
},
{
closed = 1;
nodes = (
"450 1417 OFFCURVE",
"336 1339 OFFCURVE",
"336 1182 CURVE",
"441 1182 LINE",
"441 1269 OFFCURVE",
"496 1310 OFFCURVE",
"562 1310 CURVE SMOOTH",
"628 1310 OFFCURVE",
"686 1269 OFFCURVE",
"686 1182 CURVE",
"792 1182 LINE",
"792 1339 OFFCURVE",
"675 1417 OFFCURVE",
"562 1417 CURVE SMOOTH"
);
}
);
width = 1132;
}
);
leftKerningGroup = o_Right;
unicode = 0207;
},
{
glyphname = uni0209;
lastChange = "2012-12-20 03:58:12 -0800";
layers = (
{
layerId = "44E8B56B-104B-45A6-8718-400D756F8F39";
name = Regular;
paths = (
{
closed = 1;
nodes = (
"130 999 LINE",
"130 0 LINE",
"284 0 LINE",
"284 999 LINE"
);
},
{
closed = 1;
nodes = (
"-189 1487 LINE",
"39 1182 LINE",
"132 1182 LINE",
"-53 1487 LINE"
);
},
{
closed = 1;
nodes = (
"58 1487 LINE",
"283 1182 LINE",
"376 1182 LINE",
"196 1487 LINE"
);
}
);
width = 413;
}
);
unicode = 0209;
},
{
glyphname = uni020B;
lastChange = "2012-12-20 03:58:12 -0800";
layers = (
{
layerId = "44E8B56B-104B-45A6-8718-400D756F8F39";
name = Regular;
paths = (
{
closed = 1;
nodes = (
"130 999 LINE",
"130 0 LINE",
"284 0 LINE",
"284 999 LINE"
);
},
{
closed = 1;
nodes = (
"93 1417 OFFCURVE",
"-21 1339 OFFCURVE",
"-21 1182 CURVE",
"84 1182 LINE",
"84 1269 OFFCURVE",
"139 1310 OFFCURVE",
"205 1310 CURVE SMOOTH",
"271 1310 OFFCURVE",
"329 1269 OFFCURVE",
"329 1182 CURVE",
"435 1182 LINE",
"435 1339 OFFCURVE",
"318 1417 OFFCURVE",
"205 1417 CURVE SMOOTH"
);
}
);
width = 413;
}
);
unicode = 020B;
},
{
glyphname = uni020D;
lastChange = "2012-12-20 03:58:12 -0800";
layers = (
{
layerId = "44E8B56B-104B-45A6-8718-400D756F8F39";
name = Regular;
paths = (
{
closed = 1;
nodes = (
"297 1019 OFFCURVE",
"126 804 OFFCURVE",
"126 499 CURVE SMOOTH",
"126 200 OFFCURVE",
"307 -21 OFFCURVE",
"592 -21 CURVE SMOOTH",
"877 -21 OFFCURVE",
"1058 200 OFFCURVE",
"1058 499 CURVE SMOOTH",
"1058 804 OFFCURVE",
"887 1019 OFFCURVE",
"592 1019 CURVE SMOOTH"
);
},
{
closed = 1;
nodes = (
"798 886 OFFCURVE",
"883 719 OFFCURVE",
"883 497 CURVE SMOOTH",
"883 279 OFFCURVE",
"799 112 OFFCURVE",
"592 112 CURVE SMOOTH",
"385 112 OFFCURVE",
"300 279 OFFCURVE",
"300 497 CURVE SMOOTH",
"300 719 OFFCURVE",
"386 886 OFFCURVE",
"592 886 CURVE SMOOTH"
);
},
{
closed = 1;
nodes = (
"197 1487 LINE",
"424 1182 LINE",
"517 1182 LINE",
"333 1487 LINE"
);
},
{
closed = 1;
nodes = (
"443 1487 LINE",
"668 1182 LINE",
"761 1182 LINE",
"581 1487 LINE"
);
}
);
width = 1184;
}
);
leftKerningGroup = o_Right;
rightKerningGroup = o_Left;
unicode = 020D;
},
{
glyphname = uni020F;
lastChange = "2012-12-20 03:58:12 -0800";
layers = (
{
layerId = "44E8B56B-104B-45A6-8718-400D756F8F39";
name = Regular;
paths = (
{
closed = 1;
nodes = (
"297 1019 OFFCURVE",
"126 804 OFFCURVE",
"126 499 CURVE SMOOTH",
"126 200 OFFCURVE",
"307 -21 OFFCURVE",
"592 -21 CURVE SMOOTH",
"877 -21 OFFCURVE",
"1058 200 OFFCURVE",
"1058 499 CURVE SMOOTH",
"1058 804 OFFCURVE",
"887 1019 OFFCURVE",
"592 1019 CURVE SMOOTH"
);
},
{
closed = 1;
nodes = (
"798 886 OFFCURVE",
"883 719 OFFCURVE",
"883 497 CURVE SMOOTH",
"883 279 OFFCURVE",
"799 112 OFFCURVE",
"592 112 CURVE SMOOTH",
"385 112 OFFCURVE",
"300 279 OFFCURVE",
"300 497 CURVE SMOOTH",
"300 719 OFFCURVE",
"386 886 OFFCURVE",
"592 886 CURVE SMOOTH"
);
},
{
closed = 1;
nodes = (
"478 1417 OFFCURVE",
"364 1339 OFFCURVE",
"364 1182 CURVE",
"469 1182 LINE",
"469 1269 OFFCURVE",
"524 1310 OFFCURVE",
"590 1310 CURVE SMOOTH",
"656 1310 OFFCURVE",
"714 1269 OFFCURVE",
"714 1182 CURVE",
"820 1182 LINE",
"820 1339 OFFCURVE",
"703 1417 OFFCURVE",
"590 1417 CURVE SMOOTH"
);
}
);
width = 1184;
}
);
leftKerningGroup = o_Right;
rightKerningGroup = o_Left;
unicode = 020F;
},
{
glyphname = uni0211;
lastChange = "2012-12-20 03:58:12 -0800";
layers = (
{
layerId = "44E8B56B-104B-45A6-8718-400D756F8F39";
name = Regular;
paths = (
{
closed = 1;
nodes = (
"526 1007 OFFCURVE",
"414 928 OFFCURVE",
"348 819 CURVE",
"334 998 LINE",
"185 998 LINE",
"185 0 LINE",
"360 0 LINE",
"360 561 LINE SMOOTH",
"360 732 OFFCURVE",
"473 869 OFFCURVE",
"647 869 CURVE SMOOTH",
"669 869 OFFCURVE",
"693 867 OFFCURVE",
"719 862 CURVE",
"725 1002 LINE",
"702 1006 OFFCURVE",
"677 1007 OFFCURVE",
"650 1007 CURVE SMOOTH"
);
},
{
closed = 1;
nodes = (
"60 1487 LINE",
"287 1182 LINE",
"380 1182 LINE",
"196 1487 LINE"
);
},
{
closed = 1;
nodes = (
"306 1487 LINE",
"531 1182 LINE",
"624 1182 LINE",
"444 1487 LINE"
);
}
);
width = 786;
}
);
rightKerningGroup = r_Left;
unicode = 0211;
},
{
glyphname = uni0213;
lastChange = "2012-12-20 03:58:12 -0800";
layers = (
{
layerId = "44E8B56B-104B-45A6-8718-400D756F8F39";
name = Regular;
paths = (
{
closed = 1;
nodes = (
"526 1007 OFFCURVE",
"414 928 OFFCURVE",
"348 819 CURVE",
"334 998 LINE",
"185 998 LINE",
"185 0 LINE",
"360 0 LINE",
"360 561 LINE SMOOTH",
"360 732 OFFCURVE",
"473 869 OFFCURVE",
"647 869 CURVE SMOOTH",
"669 869 OFFCURVE",
"693 867 OFFCURVE",
"719 862 CURVE",
"725 1002 LINE",
"702 1006 OFFCURVE",
"677 1007 OFFCURVE",
"650 1007 CURVE SMOOTH"
);
},
{
closed = 1;
nodes = (
"341 1417 OFFCURVE",
"227 1339 OFFCURVE",
"227 1182 CURVE",
"332 1182 LINE",
"332 1269 OFFCURVE",
"387 1310 OFFCURVE",
"453 1310 CURVE SMOOTH",
"519 1310 OFFCURVE",
"577 1269 OFFCURVE",
"577 1182 CURVE",
"683 1182 LINE",
"683 1339 OFFCURVE",
"566 1417 OFFCURVE",
"453 1417 CURVE SMOOTH"
);
}
);
width = 786;
}
);
rightKerningGroup = r_Left;
unicode = 0213;
},
{
glyphname = uni0215;
lastChange = "2012-12-20 03:58:12 -0800";
layers = (
{
layerId = "44E8B56B-104B-45A6-8718-400D756F8F39";
name = Regular;
paths = (
{
closed = 1;
nodes = (
"829 998 LINE",
"829 452 LINE SMOOTH",
"829 247 OFFCURVE",
"754 109 OFFCURVE",
"539 109 CURVE SMOOTH",
"386 109 OFFCURVE",
"339 210 OFFCURVE",
"339 375 CURVE SMOOTH",
"339 998 LINE",
"165 998 LINE",
"165 387 LINE SMOOTH",
"165 119 OFFCURVE",
"279 -21 OFFCURVE",
"509 -21 CURVE SMOOTH",
"652 -21 OFFCURVE",
"783 27 OFFCURVE",
"837 143 CURVE",
"856 0 LINE",
"1004 0 LINE",
"1004 998 LINE"
);
},
{
closed = 1;
nodes = (
"189 1487 LINE",
"416 1182 LINE",
"509 1182 LINE",
"325 1487 LINE"
);
},
{
closed = 1;
nodes = (
"435 1487 LINE",
"660 1182 LINE",
"753 1182 LINE",
"573 1487 LINE"
);
}
);
width = 1189;
}
);
leftKerningGroup = u_Left;
unicode = 0215;
},
{
glyphname = uni0217;
lastChange = "2012-12-20 03:58:12 -0800";
layers = (
{
layerId = "44E8B56B-104B-45A6-8718-400D756F8F39";
name = Regular;
paths = (
{
closed = 1;
nodes = (
"829 998 LINE",
"829 452 LINE SMOOTH",
"829 247 OFFCURVE",
"754 109 OFFCURVE",
"539 109 CURVE SMOOTH",
"386 109 OFFCURVE",
"339 210 OFFCURVE",
"339 375 CURVE SMOOTH",
"339 998 LINE",
"165 998 LINE",
"165 387 LINE SMOOTH",
"165 119 OFFCURVE",
"279 -21 OFFCURVE",
"509 -21 CURVE SMOOTH",
"652 -21 OFFCURVE",
"783 27 OFFCURVE",
"837 143 CURVE",
"856 0 LINE",
"1004 0 LINE",
"1004 998 LINE"
);
},
{
closed = 1;
nodes = (
"471 1417 OFFCURVE",
"357 1339 OFFCURVE",
"357 1182 CURVE",
"462 1182 LINE",
"462 1269 OFFCURVE",
"517 1310 OFFCURVE",
"583 1310 CURVE SMOOTH",
"649 1310 OFFCURVE",
"707 1269 OFFCURVE",
"707 1182 CURVE",
"813 1182 LINE",
"813 1339 OFFCURVE",
"696 1417 OFFCURVE",
"583 1417 CURVE SMOOTH"
);
}
);
width = 1189;
}
);
leftKerningGroup = u_Left;
unicode = 0217;
},
{
glyphname = uni021B;
lastChange = "2012-12-20 03:58:12 -0800";
layers = (
{
layerId = "44E8B56B-104B-45A6-8718-400D756F8F39";
name = Regular;
paths = (
{
closed = 1;
nodes = (
"311 1227 LINE",
"259 998 LINE",
"118 986 LINE",
"112 885 LINE",
"260 885 LINE",
"260 313 LINE SMOOTH",
"260 104 OFFCURVE",
"357 -18 OFFCURVE",
"557 -18 CURVE SMOOTH",
"596 -18 OFFCURVE",
"687 -13 OFFCURVE",
"749 13 CURVE",
"722 139 LINE",
"677 122 OFFCURVE",
"621 114 OFFCURVE",
"586 114 CURVE SMOOTH",
"475 114 OFFCURVE",
"435 160 OFFCURVE",
"435 313 CURVE SMOOTH",
"435 885 LINE",
"726 885 LINE",
"726 998 LINE",
"435 998 LINE",
"435 1230 LINE"
);
},
{
closed = 1;
nodes = (
"398 -181 LINE",
"312 -635 LINE",
"419 -635 LINE",
"549 -181 LINE"
);
}
);
width = 858;
}
);
rightKerningGroup = t_Left;
unicode = 021B;
},
{
glyphname = uni021F;
lastChange = "2012-12-20 03:58:12 -0800";
layers = (
{
layerId = "44E8B56B-104B-45A6-8718-400D756F8F39";
name = Regular;
paths = (
{
closed = 1;
nodes = (
"185 1395 LINE",
"185 0 LINE",
"360 0 LINE",
"360 546 LINE SMOOTH",
"360 752 OFFCURVE",
"421 889 OFFCURVE",
"637 889 CURVE SMOOTH",
"790 889 OFFCURVE",
"826 788 OFFCURVE",
"826 623 CURVE SMOOTH",
"826 0 LINE",
"1001 0 LINE",
"1001 612 LINE SMOOTH",
"1001 880 OFFCURVE",
"897 1019 OFFCURVE",
"667 1019 CURVE SMOOTH",
"529 1019 OFFCURVE",
"418 963 OFFCURVE",
"360 864 CURVE",
"360 1409 LINE"
);
},
{
closed = 1;
nodes = (
"739 1925 LINE",
"592 1642 LINE",
"445 1925 LINE",
"326 1925 LINE",
"496 1572 LINE",
"690 1572 LINE",
"860 1925 LINE"
);
}
);
width = 1166;
}
);
unicode = 021F;
},
{
glyphname = uni0227;
lastChange = "2012-12-20 03:58:12 -0800";
layers = (
{
layerId = "44E8B56B-104B-45A6-8718-400D756F8F39";
name = Regular;
paths = (
{
closed = 1;
nodes = (
"428 1019 OFFCURVE",
"273 983 OFFCURVE",
"187 935 CURVE",
"194 916 OFFCURVE",
"226 831 OFFCURVE",
"234 812 CURVE",
"328 858 OFFCURVE",
"465 886 OFFCURVE",
"561 886 CURVE SMOOTH",
"704 886 OFFCURVE",
"774 823 OFFCURVE",
"774 685 CURVE SMOOTH",
"774 597 LINE",
"774 597 OFFCURVE",
"645 587 OFFCURVE",
"599 583 CURVE SMOOTH",
"314 562 OFFCURVE",
"134 478 OFFCURVE",
"134 263 CURVE SMOOTH",
"134 79 OFFCURVE",
"269 -21 OFFCURVE",
"445 -21 CURVE SMOOTH",
"579 -21 OFFCURVE",
"720 22 OFFCURVE",
"781 112 CURVE",
"808 0 LINE",
"949 0 LINE",
"949 661 LINE SMOOTH",
"949 927 OFFCURVE",
"801 1019 OFFCURVE",
"557 1019 CURVE SMOOTH"
);
},
{
closed = 1;
nodes = (
"774 251 LINE",
"742 165 OFFCURVE",
"589 102 OFFCURVE",
"468 102 CURVE SMOOTH",
"385 102 OFFCURVE",
"308 152 OFFCURVE",
"308 262 CURVE SMOOTH",
"308 402 OFFCURVE",
"397 447 OFFCURVE",
"658 478 CURVE SMOOTH",
"681 481 OFFCURVE",
"774 490 OFFCURVE",
"774 490 CURVE"
);
},
{
closed = 1;
nodes = (
"465 1362 LINE",
"465 1182 LINE",
"618 1182 LINE",
"618 1362 LINE"
);
}
);
width = 1116;
}
);
unicode = 0227;
},
{
glyphname = uni0229;
lastChange = "2012-12-20 03:58:12 -0800";
layers = (
{
layerId = "44E8B56B-104B-45A6-8718-400D756F8F39";
name = Regular;
paths = (
{
closed = 1;
nodes = (
"338 1019 OFFCURVE",
"126 805 OFFCURVE",
"126 496 CURVE SMOOTH",
"126 176 OFFCURVE",
"331 -21 OFFCURVE",
"620 -21 CURVE SMOOTH",
"769 -21 OFFCURVE",
"883 7 OFFCURVE",
"979 65 CURVE",
"955 197 LINE",
"867 151 OFFCURVE",
"770 112 OFFCURVE",
"645 112 CURVE SMOOTH",
"455 112 OFFCURVE",
"302 240 OFFCURVE",
"298 469 CURVE",
"995 469 LINE",
"995 469 OFFCURVE",
"1001 530 OFFCURVE",
"1001 553 CURVE SMOOTH",
"1001 832 OFFCURVE",
"858 1019 OFFCURVE",
"601 1019 CURVE SMOOTH"
);
},
{
closed = 1;
nodes = (
"525 -8 LINE",
"423 -396 LINE",
"563 -396 LINE",
"603 -8 LINE"
);
},
{
closed = 1;
nodes = (
"767 888 OFFCURVE",
"832 779 OFFCURVE",
"837 582 CURVE",
"302 582 LINE",
"319 772 OFFCURVE",
"450 888 OFFCURVE",
"606 888 CURVE SMOOTH"
);
}
);
width = 1132;
}
);
unicode = 0229;
},
{
glyphname = uni022B;
lastChange = "2012-12-20 03:58:12 -0800";
layers = (
{
layerId = "44E8B56B-104B-45A6-8718-400D756F8F39";
name = Regular;
paths = (
{
closed = 1;
nodes = (
"297 1019 OFFCURVE",
"126 804 OFFCURVE",
"126 499 CURVE SMOOTH",
"126 200 OFFCURVE",
"307 -21 OFFCURVE",
"592 -21 CURVE SMOOTH",
"877 -21 OFFCURVE",
"1058 200 OFFCURVE",
"1058 499 CURVE SMOOTH",
"1058 804 OFFCURVE",
"887 1019 OFFCURVE",
"592 1019 CURVE SMOOTH"
);
},
{
closed = 1;
nodes = (
"798 886 OFFCURVE",
"883 719 OFFCURVE",
"883 497 CURVE SMOOTH",
"883 279 OFFCURVE",
"799 112 OFFCURVE",
"592 112 CURVE SMOOTH",
"385 112 OFFCURVE",
"300 279 OFFCURVE",
"300 497 CURVE SMOOTH",
"300 719 OFFCURVE",
"386 886 OFFCURVE",
"592 886 CURVE SMOOTH"
);
},
{
closed = 1;
nodes = (
"344 1375 LINE",
"344 1182 LINE",
"485 1182 LINE",
"485 1375 LINE"
);
},
{
closed = 1;
nodes = (
"699 1375 LINE",
"699 1182 LINE",
"840 1182 LINE",
"840 1375 LINE"
);
},
{
closed = 1;
nodes = (
"288 1665 LINE",
"288 1538 LINE",
"896 1538 LINE",
"896 1665 LINE"
);
}
);
width = 1184;
}
);
unicode = 022B;
},
{
glyphname = uni0231;
lastChange = "2012-12-20 03:58:12 -0800";
layers = (
{
layerId = "44E8B56B-104B-45A6-8718-400D756F8F39";
name = Regular;
paths = (
{
closed = 1;
nodes = (
"297 1019 OFFCURVE",
"126 804 OFFCURVE",
"126 499 CURVE SMOOTH",
"126 200 OFFCURVE",
"307 -21 OFFCURVE",
"592 -21 CURVE SMOOTH",
"877 -21 OFFCURVE",
"1058 200 OFFCURVE",
"1058 499 CURVE SMOOTH",
"1058 804 OFFCURVE",
"887 1019 OFFCURVE",
"592 1019 CURVE SMOOTH"
);
},
{
closed = 1;
nodes = (
"798 886 OFFCURVE",
"883 719 OFFCURVE",
"883 497 CURVE SMOOTH",
"883 279 OFFCURVE",
"799 112 OFFCURVE",
"592 112 CURVE SMOOTH",
"385 112 OFFCURVE",
"300 279 OFFCURVE",
"300 497 CURVE SMOOTH",
"300 719 OFFCURVE",
"386 886 OFFCURVE",
"592 886 CURVE SMOOTH"
);
},
{
closed = 1;
nodes = (
"516 1362 LINE",
"516 1182 LINE",
"669 1182 LINE",
"669 1362 LINE"
);
},
{
closed = 1;
nodes = (
"288 1652 LINE",
"288 1525 LINE",
"896 1525 LINE",
"896 1652 LINE"
);
}
);
width = 1184;
}
);
unicode = 0231;
},
{
glyphname = uni0233;
lastChange = "2012-12-20 03:58:12 -0800";
layers = (
{
layerId = "44E8B56B-104B-45A6-8718-400D756F8F39";
name = Regular;
paths = (
{
closed = 1;
nodes = (
"860 998 LINE",
"570 199 LINE",
"275 998 LINE",
"87 998 LINE",
"484 11 LINE",
"328 -405 LINE",
"501 -405 LINE",
"1048 998 LINE"
);
},
{
closed = 1;
nodes = (
"264 1309 LINE",
"264 1182 LINE",
"872 1182 LINE",
"872 1309 LINE"
);
}
);
width = 1071;
}
);
unicode = 0233;
},
{
glyphname = uni1E03;
lastChange = "2012-12-20 03:58:12 -0800";
layers = (
{
layerId = "44E8B56B-104B-45A6-8718-400D756F8F39";
name = Regular;
paths = (
{
closed = 1;
nodes = (
"153 1395 LINE",
"153 0 LINE",
"311 0 LINE",
"328 163 LINE",
"383 45 OFFCURVE",
"509 -21 OFFCURVE",
"646 -21 CURVE SMOOTH",
"925 -21 OFFCURVE",
"1085 198 OFFCURVE",
"1085 504 CURVE SMOOTH",
"1085 802 OFFCURVE",
"907 1019 OFFCURVE",
"647 1019 CURVE SMOOTH",
"515 1019 OFFCURVE",
"389 955 OFFCURVE",
"323 862 CURVE",
"327 928 OFFCURVE",
"328 991 OFFCURVE",
"328 1053 CURVE SMOOTH",
"328 1409 LINE"
);
},
{
closed = 1;
nodes = (
"810 891 OFFCURVE",
"910 738 OFFCURVE",
"910 499 CURVE SMOOTH",
"910 265 OFFCURVE",
"814 108 OFFCURVE",
"620 108 CURVE SMOOTH",
"414 108 OFFCURVE",
"328 252 OFFCURVE",
"328 482 CURVE SMOOTH",
"328 741 OFFCURVE",
"404 891 OFFCURVE",
"619 891 CURVE SMOOTH"
);
},
{
closed = 1;
nodes = (
"542 1752 LINE",
"542 1572 LINE",
"696 1572 LINE",
"696 1752 LINE"
);
}
);
width = 1188;
}
);
unicode = 1E03;
},
{
glyphname = uni1E0B;
lastChange = "2012-12-20 03:58:12 -0800";
layers = (
{
layerId = "44E8B56B-104B-45A6-8718-400D756F8F39";
name = Regular;
paths = (
{
closed = 1;
nodes = (
"860 1395 LINE",
"860 1053 LINE SMOOTH",
"860 991 OFFCURVE",
"860 928 OFFCURVE",
"864 862 CURVE",
"798 955 OFFCURVE",
"672 1019 OFFCURVE",
"540 1019 CURVE SMOOTH",
"280 1019 OFFCURVE",
"103 807 OFFCURVE",
"103 504 CURVE SMOOTH",
"103 198 OFFCURVE",
"262 -21 OFFCURVE",
"541 -21 CURVE SMOOTH",
"678 -21 OFFCURVE",
"805 45 OFFCURVE",
"860 163 CURVE",
"877 0 LINE",
"1035 0 LINE",
"1035 1409 LINE"
);
},
{
closed = 1;
nodes = (
"784 891 OFFCURVE",
"860 741 OFFCURVE",
"860 482 CURVE SMOOTH",
"860 252 OFFCURVE",
"774 108 OFFCURVE",
"568 108 CURVE SMOOTH",
"374 108 OFFCURVE",
"277 265 OFFCURVE",
"277 499 CURVE SMOOTH",
"277 738 OFFCURVE",
"378 891 OFFCURVE",
"569 891 CURVE SMOOTH"
);
},
{
closed = 1;
nodes = (
"492 1752 LINE",
"492 1572 LINE",
"646 1572 LINE",
"646 1752 LINE"
);
}
);
width = 1182;
}
);
unicode = 1E0B;
},
